%TF.GenerationSoftware,KiCad,Pcbnew,(6.0.0)*%
%TF.CreationDate,2022-09-21T16:06:08+02:00*%
%TF.ProjectId,ESP32_Wled_hub,45535033-325f-4576-9c65-645f6875622e,rev?*%
%TF.SameCoordinates,Original*%
%TF.FileFunction,Copper,L1,Top*%
%TF.FilePolarity,Positive*%
%FSLAX46Y46*%
G04 Gerber Fmt 4.6, Leading zero omitted, Abs format (unit mm)*
G04 Created by KiCad (PCBNEW (6.0.0)) date 2022-09-21 16:06:08*
%MOMM*%
%LPD*%
G01*
G04 APERTURE LIST*
G04 Aperture macros list*
%AMRoundRect*
0 Rectangle with rounded corners*
0 $1 Rounding radius*
0 $2 $3 $4 $5 $6 $7 $8 $9 X,Y pos of 4 corners*
0 Add a 4 corners polygon primitive as box body*
4,1,4,$2,$3,$4,$5,$6,$7,$8,$9,$2,$3,0*
0 Add four circle primitives for the rounded corners*
1,1,$1+$1,$2,$3*
1,1,$1+$1,$4,$5*
1,1,$1+$1,$6,$7*
1,1,$1+$1,$8,$9*
0 Add four rect primitives between the rounded corners*
20,1,$1+$1,$2,$3,$4,$5,0*
20,1,$1+$1,$4,$5,$6,$7,0*
20,1,$1+$1,$6,$7,$8,$9,0*
20,1,$1+$1,$8,$9,$2,$3,0*%
G04 Aperture macros list end*
%ADD10C,0.300000*%
%TA.AperFunction,NonConductor*%
%ADD11C,0.300000*%
%TD*%
%TA.AperFunction,NonConductor*%
%ADD12C,0.200000*%
%TD*%
%TA.AperFunction,ComponentPad*%
%ADD13R,2.600000X2.600000*%
%TD*%
%TA.AperFunction,ComponentPad*%
%ADD14C,2.600000*%
%TD*%
%TA.AperFunction,ComponentPad*%
%ADD15C,6.400000*%
%TD*%
%TA.AperFunction,ComponentPad*%
%ADD16C,0.800000*%
%TD*%
%TA.AperFunction,ComponentPad*%
%ADD17R,1.560000X1.560000*%
%TD*%
%TA.AperFunction,ComponentPad*%
%ADD18C,1.560000*%
%TD*%
%TA.AperFunction,ComponentPad*%
%ADD19C,1.600000*%
%TD*%
%TA.AperFunction,SMDPad,CuDef*%
%ADD20RoundRect,0.150000X0.150000X-0.825000X0.150000X0.825000X-0.150000X0.825000X-0.150000X-0.825000X0*%
%TD*%
%TA.AperFunction,ComponentPad*%
%ADD21R,1.600000X1.600000*%
%TD*%
%TA.AperFunction,ComponentPad*%
%ADD22O,1.600000X1.600000*%
%TD*%
%TA.AperFunction,ViaPad*%
%ADD23C,0.800000*%
%TD*%
%TA.AperFunction,Conductor*%
%ADD24C,2.000000*%
%TD*%
%TA.AperFunction,Conductor*%
%ADD25C,0.500000*%
%TD*%
%TA.AperFunction,Conductor*%
%ADD26C,4.000000*%
%TD*%
G04 APERTURE END LIST*
D10*
D11*
X130138571Y-70014285D02*
X130138571Y-70300000D01*
X130210000Y-70442857D01*
X130281428Y-70514285D01*
X130495714Y-70657142D01*
X130781428Y-70728571D01*
X131352857Y-70728571D01*
X131495714Y-70657142D01*
X131567142Y-70585714D01*
X131638571Y-70442857D01*
X131638571Y-70157142D01*
X131567142Y-70014285D01*
X131495714Y-69942857D01*
X131352857Y-69871428D01*
X130995714Y-69871428D01*
X130852857Y-69942857D01*
X130781428Y-70014285D01*
X130710000Y-70157142D01*
X130710000Y-70442857D01*
X130781428Y-70585714D01*
X130852857Y-70657142D01*
X130995714Y-70728571D01*
X130138571Y-68942857D02*
X130138571Y-68800000D01*
X130210000Y-68657142D01*
X130281428Y-68585714D01*
X130424285Y-68514285D01*
X130710000Y-68442857D01*
X131067142Y-68442857D01*
X131352857Y-68514285D01*
X131495714Y-68585714D01*
X131567142Y-68657142D01*
X131638571Y-68800000D01*
X131638571Y-68942857D01*
X131567142Y-69085714D01*
X131495714Y-69157142D01*
X131352857Y-69228571D01*
X131067142Y-69300000D01*
X130710000Y-69300000D01*
X130424285Y-69228571D01*
X130281428Y-69157142D01*
X130210000Y-69085714D01*
X130138571Y-68942857D01*
X131495714Y-67800000D02*
X131567142Y-67728571D01*
X131638571Y-67800000D01*
X131567142Y-67871428D01*
X131495714Y-67800000D01*
X131638571Y-67800000D01*
X130138571Y-66800000D02*
X130138571Y-66657142D01*
X130210000Y-66514285D01*
X130281428Y-66442857D01*
X130424285Y-66371428D01*
X130710000Y-66300000D01*
X131067142Y-66300000D01*
X131352857Y-66371428D01*
X131495714Y-66442857D01*
X131567142Y-66514285D01*
X131638571Y-66657142D01*
X131638571Y-66800000D01*
X131567142Y-66942857D01*
X131495714Y-67014285D01*
X131352857Y-67085714D01*
X131067142Y-67157142D01*
X130710000Y-67157142D01*
X130424285Y-67085714D01*
X130281428Y-67014285D01*
X130210000Y-66942857D01*
X130138571Y-66800000D01*
X130138571Y-65371428D02*
X130138571Y-65228571D01*
X130210000Y-65085714D01*
X130281428Y-65014285D01*
X130424285Y-64942857D01*
X130710000Y-64871428D01*
X131067142Y-64871428D01*
X131352857Y-64942857D01*
X131495714Y-65014285D01*
X131567142Y-65085714D01*
X131638571Y-65228571D01*
X131638571Y-65371428D01*
X131567142Y-65514285D01*
X131495714Y-65585714D01*
X131352857Y-65657142D01*
X131067142Y-65728571D01*
X130710000Y-65728571D01*
X130424285Y-65657142D01*
X130281428Y-65585714D01*
X130210000Y-65514285D01*
X130138571Y-65371428D01*
X130138571Y-63942857D02*
X130138571Y-63800000D01*
X130210000Y-63657142D01*
X130281428Y-63585714D01*
X130424285Y-63514285D01*
X130710000Y-63442857D01*
X131067142Y-63442857D01*
X131352857Y-63514285D01*
X131495714Y-63585714D01*
X131567142Y-63657142D01*
X131638571Y-63800000D01*
X131638571Y-63942857D01*
X131567142Y-64085714D01*
X131495714Y-64157142D01*
X131352857Y-64228571D01*
X131067142Y-64300000D01*
X130710000Y-64300000D01*
X130424285Y-64228571D01*
X130281428Y-64157142D01*
X130210000Y-64085714D01*
X130138571Y-63942857D01*
X130138571Y-62514285D02*
X130138571Y-62371428D01*
X130210000Y-62228571D01*
X130281428Y-62157142D01*
X130424285Y-62085714D01*
X130710000Y-62014285D01*
X131067142Y-62014285D01*
X131352857Y-62085714D01*
X131495714Y-62157142D01*
X131567142Y-62228571D01*
X131638571Y-62371428D01*
X131638571Y-62514285D01*
X131567142Y-62657142D01*
X131495714Y-62728571D01*
X131352857Y-62800000D01*
X131067142Y-62871428D01*
X130710000Y-62871428D01*
X130424285Y-62800000D01*
X130281428Y-62728571D01*
X130210000Y-62657142D01*
X130138571Y-62514285D01*
X131638571Y-60228571D02*
X130638571Y-60228571D01*
X130781428Y-60228571D02*
X130710000Y-60157142D01*
X130638571Y-60014285D01*
X130638571Y-59800000D01*
X130710000Y-59657142D01*
X130852857Y-59585714D01*
X131638571Y-59585714D01*
X130852857Y-59585714D02*
X130710000Y-59514285D01*
X130638571Y-59371428D01*
X130638571Y-59157142D01*
X130710000Y-59014285D01*
X130852857Y-58942857D01*
X131638571Y-58942857D01*
X131638571Y-58228571D02*
X130638571Y-58228571D01*
X130781428Y-58228571D02*
X130710000Y-58157142D01*
X130638571Y-58014285D01*
X130638571Y-57800000D01*
X130710000Y-57657142D01*
X130852857Y-57585714D01*
X131638571Y-57585714D01*
X130852857Y-57585714D02*
X130710000Y-57514285D01*
X130638571Y-57371428D01*
X130638571Y-57157142D01*
X130710000Y-57014285D01*
X130852857Y-56942857D01*
X131638571Y-56942857D01*
D12*
X124360000Y-33500000D02*
X136646420Y-33500000D01*
X124360000Y-93500000D02*
X136646420Y-93500000D01*
X136060000Y-33500000D02*
X136060000Y-93500000D01*
X136060000Y-33500000D02*
X136060000Y-93500000D01*
X136060000Y-33500000D02*
X135473579Y-34626504D01*
X136060000Y-33500000D02*
X136646421Y-34626504D01*
X136060000Y-93500000D02*
X136646421Y-92373496D01*
X136060000Y-93500000D02*
X135473579Y-92373496D01*
D10*
D11*
X86860000Y-20978571D02*
X87860000Y-20978571D01*
X87217142Y-22478571D01*
X88717142Y-20978571D02*
X88860000Y-20978571D01*
X89002857Y-21050000D01*
X89074285Y-21121428D01*
X89145714Y-21264285D01*
X89217142Y-21550000D01*
X89217142Y-21907142D01*
X89145714Y-22192857D01*
X89074285Y-22335714D01*
X89002857Y-22407142D01*
X88860000Y-22478571D01*
X88717142Y-22478571D01*
X88574285Y-22407142D01*
X88502857Y-22335714D01*
X88431428Y-22192857D01*
X88360000Y-21907142D01*
X88360000Y-21550000D01*
X88431428Y-21264285D01*
X88502857Y-21121428D01*
X88574285Y-21050000D01*
X88717142Y-20978571D01*
X89860000Y-22335714D02*
X89931428Y-22407142D01*
X89860000Y-22478571D01*
X89788571Y-22407142D01*
X89860000Y-22335714D01*
X89860000Y-22478571D01*
X90860000Y-20978571D02*
X91002857Y-20978571D01*
X91145714Y-21050000D01*
X91217142Y-21121428D01*
X91288571Y-21264285D01*
X91360000Y-21550000D01*
X91360000Y-21907142D01*
X91288571Y-22192857D01*
X91217142Y-22335714D01*
X91145714Y-22407142D01*
X91002857Y-22478571D01*
X90860000Y-22478571D01*
X90717142Y-22407142D01*
X90645714Y-22335714D01*
X90574285Y-22192857D01*
X90502857Y-21907142D01*
X90502857Y-21550000D01*
X90574285Y-21264285D01*
X90645714Y-21121428D01*
X90717142Y-21050000D01*
X90860000Y-20978571D01*
X92288571Y-20978571D02*
X92431428Y-20978571D01*
X92574285Y-21050000D01*
X92645714Y-21121428D01*
X92717142Y-21264285D01*
X92788571Y-21550000D01*
X92788571Y-21907142D01*
X92717142Y-22192857D01*
X92645714Y-22335714D01*
X92574285Y-22407142D01*
X92431428Y-22478571D01*
X92288571Y-22478571D01*
X92145714Y-22407142D01*
X92074285Y-22335714D01*
X92002857Y-22192857D01*
X91931428Y-21907142D01*
X91931428Y-21550000D01*
X92002857Y-21264285D01*
X92074285Y-21121428D01*
X92145714Y-21050000D01*
X92288571Y-20978571D01*
X93717142Y-20978571D02*
X93860000Y-20978571D01*
X94002857Y-21050000D01*
X94074285Y-21121428D01*
X94145714Y-21264285D01*
X94217142Y-21550000D01*
X94217142Y-21907142D01*
X94145714Y-22192857D01*
X94074285Y-22335714D01*
X94002857Y-22407142D01*
X93860000Y-22478571D01*
X93717142Y-22478571D01*
X93574285Y-22407142D01*
X93502857Y-22335714D01*
X93431428Y-22192857D01*
X93360000Y-21907142D01*
X93360000Y-21550000D01*
X93431428Y-21264285D01*
X93502857Y-21121428D01*
X93574285Y-21050000D01*
X93717142Y-20978571D01*
X95145714Y-20978571D02*
X95288571Y-20978571D01*
X95431428Y-21050000D01*
X95502857Y-21121428D01*
X95574285Y-21264285D01*
X95645714Y-21550000D01*
X95645714Y-21907142D01*
X95574285Y-22192857D01*
X95502857Y-22335714D01*
X95431428Y-22407142D01*
X95288571Y-22478571D01*
X95145714Y-22478571D01*
X95002857Y-22407142D01*
X94931428Y-22335714D01*
X94860000Y-22192857D01*
X94788571Y-21907142D01*
X94788571Y-21550000D01*
X94860000Y-21264285D01*
X94931428Y-21121428D01*
X95002857Y-21050000D01*
X95145714Y-20978571D01*
X97431428Y-22478571D02*
X97431428Y-21478571D01*
X97431428Y-21621428D02*
X97502857Y-21550000D01*
X97645714Y-21478571D01*
X97860000Y-21478571D01*
X98002857Y-21550000D01*
X98074285Y-21692857D01*
X98074285Y-22478571D01*
X98074285Y-21692857D02*
X98145714Y-21550000D01*
X98288571Y-21478571D01*
X98502857Y-21478571D01*
X98645714Y-21550000D01*
X98717142Y-21692857D01*
X98717142Y-22478571D01*
X99431428Y-22478571D02*
X99431428Y-21478571D01*
X99431428Y-21621428D02*
X99502857Y-21550000D01*
X99645714Y-21478571D01*
X99860000Y-21478571D01*
X100002857Y-21550000D01*
X100074285Y-21692857D01*
X100074285Y-22478571D01*
X100074285Y-21692857D02*
X100145714Y-21550000D01*
X100288571Y-21478571D01*
X100502857Y-21478571D01*
X100645714Y-21550000D01*
X100717142Y-21692857D01*
X100717142Y-22478571D01*
D12*
X58860000Y-33000000D02*
X58860000Y-23013580D01*
X128860000Y-33000000D02*
X128860000Y-23013580D01*
X58860000Y-23600000D02*
X85745715Y-23600000D01*
X101974286Y-23600000D02*
X128860000Y-23600000D01*
X58860000Y-23600000D02*
X59986504Y-24186421D01*
X58860000Y-23600000D02*
X59986504Y-23013579D01*
X128860000Y-23600000D02*
X127733496Y-23013579D01*
X128860000Y-23600000D02*
X127733496Y-24186421D01*
D13*
%TO.P,J5,1,Pin_1*%
%TO.N,Vbus*%
X104145000Y-42875000D03*
D14*
%TO.P,J5,2,Pin_2*%
%TO.N,GND*%
X99065000Y-42875000D03*
%TO.P,J5,3,Pin_3*%
%TO.N,HV3*%
X93985000Y-42875000D03*
%TD*%
D15*
%TO.P,H4,1*%
%TO.N,N/C*%
X63860000Y-88500000D03*
D16*
X65557056Y-90197056D03*
X63860000Y-86100000D03*
X62162944Y-90197056D03*
X63860000Y-90900000D03*
X62162944Y-86802944D03*
X66260000Y-88500000D03*
X61460000Y-88500000D03*
X65557056Y-86802944D03*
%TD*%
D17*
%TO.P,U2,1,3V3*%
%TO.N,unconnected-(U2-Pad1)*%
X66350000Y-76200000D03*
D18*
%TO.P,U2,2,EN*%
%TO.N,unconnected-(U2-Pad2)*%
X68890000Y-76200000D03*
%TO.P,U2,3,SENSOR_VP*%
%TO.N,unconnected-(U2-Pad3)*%
X71430000Y-76200000D03*
%TO.P,U2,4,SENSOR_VN*%
%TO.N,unconnected-(U2-Pad4)*%
X73970000Y-76200000D03*
%TO.P,U2,5,IO34*%
%TO.N,unconnected-(U2-Pad5)*%
X76510000Y-76200000D03*
%TO.P,U2,6,IO35*%
%TO.N,unconnected-(U2-Pad6)*%
X79050000Y-76200000D03*
%TO.P,U2,7,IO32*%
%TO.N,unconnected-(U2-Pad7)*%
X81590000Y-76200000D03*
%TO.P,U2,8,IO33*%
%TO.N,unconnected-(U2-Pad8)*%
X84130000Y-76200000D03*
%TO.P,U2,9,IO25*%
%TO.N,LV1*%
X86670000Y-76200000D03*
%TO.P,U2,10,IO26*%
%TO.N,LV2*%
X89210000Y-76200000D03*
%TO.P,U2,11,IO27*%
%TO.N,unconnected-(U2-Pad11)*%
X91750000Y-76200000D03*
%TO.P,U2,12,IO14*%
%TO.N,unconnected-(U2-Pad12)*%
X94290000Y-76200000D03*
%TO.P,U2,13,IO12*%
%TO.N,unconnected-(U2-Pad13)*%
X96830000Y-76200000D03*
%TO.P,U2,14,GND1*%
%TO.N,GND*%
X99370000Y-76200000D03*
%TO.P,U2,15,IO13*%
%TO.N,unconnected-(U2-Pad15)*%
X101910000Y-76200000D03*
%TO.P,U2,16,SD2*%
%TO.N,unconnected-(U2-Pad16)*%
X104450000Y-76200000D03*
%TO.P,U2,17,SD3*%
%TO.N,unconnected-(U2-Pad17)*%
X106990000Y-76200000D03*
%TO.P,U2,18,CMD*%
%TO.N,unconnected-(U2-Pad18)*%
X109530000Y-76200000D03*
%TO.P,U2,19,EXT_5V*%
%TO.N,Vbus*%
X112070000Y-76200000D03*
%TO.P,U2,20,GND3*%
%TO.N,GND*%
X66350000Y-50800000D03*
%TO.P,U2,21,IO23*%
%TO.N,unconnected-(U2-Pad21)*%
X68890000Y-50800000D03*
%TO.P,U2,22,IO22*%
%TO.N,unconnected-(U2-Pad22)*%
X71430000Y-50800000D03*
%TO.P,U2,23,TXD0*%
%TO.N,unconnected-(U2-Pad23)*%
X73970000Y-50800000D03*
%TO.P,U2,24,RXD0*%
%TO.N,unconnected-(U2-Pad24)*%
X76510000Y-50800000D03*
%TO.P,U2,25,IO21*%
%TO.N,unconnected-(U2-Pad25)*%
X79050000Y-50800000D03*
%TO.P,U2,26,GND2*%
%TO.N,GND*%
X81590000Y-50800000D03*
%TO.P,U2,27,IO19*%
%TO.N,LV4*%
X84130000Y-50800000D03*
%TO.P,U2,28,IO18*%
%TO.N,LV3*%
X86670000Y-50800000D03*
%TO.P,U2,29,IO5*%
%TO.N,unconnected-(U2-Pad29)*%
X89210000Y-50800000D03*
%TO.P,U2,30,IO17*%
%TO.N,unconnected-(U2-Pad30)*%
X91750000Y-50800000D03*
%TO.P,U2,31,IO16*%
%TO.N,unconnected-(U2-Pad31)*%
X94290000Y-50800000D03*
%TO.P,U2,32,IO4*%
%TO.N,unconnected-(U2-Pad32)*%
X96830000Y-50800000D03*
%TO.P,U2,33,IO0*%
%TO.N,unconnected-(U2-Pad33)*%
X99370000Y-50800000D03*
%TO.P,U2,34,IO2*%
%TO.N,unconnected-(U2-Pad34)*%
X101910000Y-50800000D03*
%TO.P,U2,35,IO15*%
%TO.N,unconnected-(U2-Pad35)*%
X104450000Y-50800000D03*
%TO.P,U2,36,SD1*%
%TO.N,unconnected-(U2-Pad36)*%
X106990000Y-50800000D03*
%TO.P,U2,37,SD0*%
%TO.N,unconnected-(U2-Pad37)*%
X109530000Y-50800000D03*
%TO.P,U2,38,CLK*%
%TO.N,unconnected-(U2-Pad38)*%
X112070000Y-50800000D03*
%TD*%
D16*
%TO.P,H3,1*%
%TO.N,N/C*%
X125557056Y-86802944D03*
X123860000Y-90900000D03*
X121460000Y-88500000D03*
X122162944Y-90197056D03*
X123860000Y-86100000D03*
D15*
X123860000Y-88500000D03*
D16*
X122162944Y-86802944D03*
X126260000Y-88500000D03*
X125557056Y-90197056D03*
%TD*%
D13*
%TO.P,J6,1,Pin_1*%
%TO.N,Vbus*%
X93980000Y-83820000D03*
D14*
%TO.P,J6,2,Pin_2*%
%TO.N,GND*%
X99060000Y-83820000D03*
%TO.P,J6,3,Pin_3*%
%TO.N,HV2*%
X104140000Y-83820000D03*
%TD*%
D13*
%TO.P,J4,1,Pin_1*%
%TO.N,Vbus*%
X73655000Y-84125000D03*
D14*
%TO.P,J4,2,Pin_2*%
%TO.N,GND*%
X78735000Y-84125000D03*
%TO.P,J4,3,Pin_3*%
%TO.N,HV1*%
X83815000Y-84125000D03*
%TD*%
D16*
%TO.P,H1,1*%
%TO.N,N/C*%
X65557056Y-40197056D03*
X65557056Y-36802944D03*
D15*
X63860000Y-38500000D03*
D16*
X61460000Y-38500000D03*
X63860000Y-36100000D03*
X62162944Y-36802944D03*
X66260000Y-38500000D03*
X63860000Y-40900000D03*
X62162944Y-40197056D03*
%TD*%
%TO.P,H2,1*%
%TO.N,N/C*%
X126260000Y-38500000D03*
X121460000Y-38500000D03*
X125557056Y-36802944D03*
X125557056Y-40197056D03*
D15*
X123860000Y-38500000D03*
D16*
X122162944Y-36802944D03*
X122162944Y-40197056D03*
X123860000Y-36100000D03*
X123860000Y-40900000D03*
%TD*%
D19*
%TO.P,C1,1*%
%TO.N,Vbus*%
X118860000Y-48800000D03*
%TO.P,C1,2*%
%TO.N,GND*%
X123860000Y-48800000D03*
%TD*%
D13*
%TO.P,J1,1,Pin_1*%
%TO.N,GND*%
X120360000Y-78500000D03*
D14*
%TO.P,J1,2,Pin_2*%
%TO.N,Vbus*%
X120360000Y-73420000D03*
%TD*%
D20*
%TO.P,U1,1*%
%TO.N,GND*%
X86950000Y-69375000D03*
D21*
X83135000Y-67000000D03*
D22*
%TO.P,U1,2*%
%TO.N,LV1*%
X85675000Y-67000000D03*
D20*
X88220000Y-69375000D03*
D22*
%TO.P,U1,3*%
%TO.N,HV1*%
X88215000Y-67000000D03*
D20*
X89490000Y-69375000D03*
D22*
%TO.P,U1,4*%
%TO.N,GND*%
X90755000Y-67000000D03*
D20*
X90760000Y-69375000D03*
D22*
%TO.P,U1,5*%
%TO.N,LV2*%
X93295000Y-67000000D03*
D20*
X92030000Y-69375000D03*
D22*
%TO.P,U1,6*%
%TO.N,HV2*%
X95835000Y-67000000D03*
D20*
X93300000Y-69375000D03*
D22*
%TO.P,U1,7,GND*%
%TO.N,GND*%
X98375000Y-67000000D03*
D20*
X94570000Y-69375000D03*
%TO.P,U1,8*%
%TO.N,HV3*%
X94570000Y-64425000D03*
D22*
X98375000Y-59380000D03*
%TO.P,U1,9*%
%TO.N,LV3*%
X95835000Y-59380000D03*
D20*
X93300000Y-64425000D03*
%TO.P,U1,10*%
%TO.N,GND*%
X92030000Y-64425000D03*
D22*
X93295000Y-59380000D03*
%TO.P,U1,11*%
%TO.N,HV4*%
X90755000Y-59380000D03*
D20*
X90760000Y-64425000D03*
%TO.P,U1,12*%
%TO.N,LV4*%
X89490000Y-64425000D03*
D22*
X88215000Y-59380000D03*
D20*
%TO.P,U1,13*%
%TO.N,GND*%
X88220000Y-64425000D03*
D22*
X85675000Y-59380000D03*
D20*
%TO.P,U1,14,VCC*%
%TO.N,Vbus*%
X86950000Y-64425000D03*
D22*
X83135000Y-59380000D03*
%TD*%
D13*
%TO.P,J7,1,Pin_1*%
%TO.N,Vbus*%
X83825000Y-42875000D03*
D14*
%TO.P,J7,2,Pin_2*%
%TO.N,GND*%
X78745000Y-42875000D03*
%TO.P,J7,3,Pin_3*%
%TO.N,HV4*%
X73665000Y-42875000D03*
%TD*%
D23*
%TO.N,GND*%
X107360000Y-74100000D03*
X104960000Y-74100000D03*
X96160000Y-69700000D03*
X86760000Y-72500000D03*
X90160000Y-72500000D03*
%TD*%
D24*
%TO.N,Vbus*%
X115860000Y-57700000D02*
X115860000Y-51800000D01*
X93980000Y-83820000D02*
X97100000Y-80700000D01*
X104145000Y-42875000D02*
X100970000Y-39700000D01*
D25*
X83135000Y-59380000D02*
X83140000Y-59380000D01*
D24*
X115860000Y-51800000D02*
X118860000Y-48800000D01*
D25*
X86950000Y-63190000D02*
X86950000Y-64425000D01*
D24*
X112070000Y-76200000D02*
X112070000Y-61490000D01*
X87000000Y-39700000D02*
X83825000Y-42875000D01*
D25*
X83140000Y-59380000D02*
X86950000Y-63190000D01*
D24*
X112070000Y-61490000D02*
X115860000Y-57700000D01*
X93980000Y-83820000D02*
X90500000Y-87300000D01*
D26*
X120360000Y-73420000D02*
X120360000Y-50300000D01*
D24*
X90500000Y-87300000D02*
X76830000Y-87300000D01*
D26*
X120360000Y-50300000D02*
X118860000Y-48800000D01*
D24*
X112070000Y-77590000D02*
X112070000Y-76200000D01*
X97100000Y-80700000D02*
X108960000Y-80700000D01*
X108960000Y-80700000D02*
X112070000Y-77590000D01*
X100970000Y-39700000D02*
X87000000Y-39700000D01*
X112935000Y-42875000D02*
X118860000Y-48800000D01*
X104145000Y-42875000D02*
X112935000Y-42875000D01*
X76830000Y-87300000D02*
X73655000Y-84125000D01*
D25*
%TO.N,GND*%
X88220000Y-61925000D02*
X85675000Y-59380000D01*
X92030000Y-64425000D02*
X92030000Y-60645000D01*
X92030000Y-60645000D02*
X93295000Y-59380000D01*
X90760000Y-67005000D02*
X90755000Y-67000000D01*
X90760000Y-69375000D02*
X90760000Y-67005000D01*
X88220000Y-64425000D02*
X88220000Y-61925000D01*
%TO.N,HV1*%
X89490000Y-68275000D02*
X88215000Y-67000000D01*
X89490000Y-69375000D02*
X89490000Y-68275000D01*
%TO.N,HV2*%
X93300000Y-68822151D02*
X95122151Y-67000000D01*
X95122151Y-67000000D02*
X95835000Y-67000000D01*
X93300000Y-69375000D02*
X93300000Y-68822151D01*
%TO.N,HV3*%
X94570000Y-63690000D02*
X94570000Y-64425000D01*
X98375000Y-59380000D02*
X98375000Y-59885000D01*
X98375000Y-59885000D02*
X94570000Y-63690000D01*
%TO.N,HV4*%
X90755000Y-64420000D02*
X90760000Y-64425000D01*
X90755000Y-59380000D02*
X90755000Y-64420000D01*
%TO.N,LV4*%
X88215000Y-59380000D02*
X88215000Y-54885000D01*
X88215000Y-54885000D02*
X84130000Y-50800000D01*
X89490000Y-60655000D02*
X89490000Y-64425000D01*
X88215000Y-59380000D02*
X89490000Y-60655000D01*
%TO.N,LV3*%
X93300000Y-64425000D02*
X93300000Y-63360000D01*
X95440000Y-59380000D02*
X86860000Y-50800000D01*
X95835000Y-59380000D02*
X95440000Y-59380000D01*
X95835000Y-60825000D02*
X95835000Y-59380000D01*
X86860000Y-50800000D02*
X86670000Y-50800000D01*
X93300000Y-63360000D02*
X95835000Y-60825000D01*
%TO.N,LV2*%
X92030000Y-68265000D02*
X93295000Y-67000000D01*
X92030000Y-73380000D02*
X89210000Y-76200000D01*
X92030000Y-69375000D02*
X92030000Y-68265000D01*
X92030000Y-69375000D02*
X92030000Y-73380000D01*
%TO.N,LV1*%
X88220000Y-74650000D02*
X86670000Y-76200000D01*
X86397849Y-67000000D02*
X85675000Y-67000000D01*
X88220000Y-69375000D02*
X88220000Y-74650000D01*
X88220000Y-69375000D02*
X88220000Y-68822151D01*
X88220000Y-68822151D02*
X86397849Y-67000000D01*
%TD*%
%TA.AperFunction,Conductor*%
%TO.N,GND*%
G36*
X123830057Y-34009500D02*
G01*
X123844858Y-34011805D01*
X123844861Y-34011805D01*
X123853730Y-34013186D01*
X123874158Y-34010515D01*
X123895983Y-34009571D01*
X124246007Y-34024853D01*
X124256958Y-34025811D01*
X124634579Y-34075527D01*
X124645403Y-34077436D01*
X125017243Y-34159870D01*
X125027860Y-34162715D01*
X125391110Y-34277248D01*
X125401425Y-34281001D01*
X125753334Y-34426766D01*
X125763269Y-34431399D01*
X126101128Y-34607278D01*
X126110637Y-34612768D01*
X126431860Y-34817410D01*
X126440864Y-34823714D01*
X126743043Y-35055583D01*
X126751463Y-35062649D01*
X127032268Y-35319959D01*
X127040041Y-35327732D01*
X127297351Y-35608537D01*
X127304417Y-35616957D01*
X127536286Y-35919136D01*
X127542590Y-35928140D01*
X127747232Y-36249363D01*
X127752722Y-36258872D01*
X127928601Y-36596731D01*
X127933234Y-36606666D01*
X127976047Y-36710026D01*
X128078996Y-36958568D01*
X128082752Y-36968890D01*
X128138819Y-37146710D01*
X128197285Y-37332139D01*
X128200130Y-37342757D01*
X128282564Y-37714597D01*
X128284473Y-37725421D01*
X128334189Y-38103042D01*
X128335147Y-38113993D01*
X128339167Y-38206060D01*
X128350104Y-38456583D01*
X128348724Y-38481461D01*
X128346814Y-38493730D01*
X128349274Y-38512539D01*
X128350936Y-38525251D01*
X128352000Y-38541589D01*
X128352000Y-88450672D01*
X128350500Y-88470056D01*
X128346814Y-88493730D01*
X128349485Y-88514158D01*
X128350429Y-88535983D01*
X128338883Y-88800426D01*
X128335147Y-88886007D01*
X128334189Y-88896958D01*
X128284473Y-89274579D01*
X128282564Y-89285403D01*
X128200130Y-89657243D01*
X128197285Y-89667860D01*
X128090239Y-90007368D01*
X128082755Y-90031103D01*
X128078999Y-90041425D01*
X127947223Y-90359563D01*
X127933238Y-90393325D01*
X127928601Y-90403269D01*
X127752722Y-90741128D01*
X127747232Y-90750637D01*
X127542590Y-91071860D01*
X127536286Y-91080864D01*
X127304417Y-91383043D01*
X127297351Y-91391463D01*
X127040041Y-91672268D01*
X127032268Y-91680041D01*
X126751463Y-91937351D01*
X126743043Y-91944417D01*
X126440864Y-92176286D01*
X126431860Y-92182590D01*
X126110637Y-92387232D01*
X126101128Y-92392722D01*
X125763269Y-92568601D01*
X125753334Y-92573234D01*
X125401425Y-92718999D01*
X125391110Y-92722752D01*
X125027861Y-92837285D01*
X125017243Y-92840130D01*
X124645403Y-92922564D01*
X124634579Y-92924473D01*
X124256958Y-92974189D01*
X124246007Y-92975147D01*
X123903417Y-92990104D01*
X123878539Y-92988724D01*
X123878160Y-92988665D01*
X123866270Y-92986814D01*
X123834749Y-92990936D01*
X123818411Y-92992000D01*
X63909328Y-92992000D01*
X63889943Y-92990500D01*
X63875142Y-92988195D01*
X63875139Y-92988195D01*
X63866270Y-92986814D01*
X63845842Y-92989485D01*
X63824017Y-92990429D01*
X63473993Y-92975147D01*
X63463042Y-92974189D01*
X63085421Y-92924473D01*
X63074597Y-92922564D01*
X62702757Y-92840130D01*
X62692139Y-92837285D01*
X62328890Y-92722752D01*
X62318575Y-92718999D01*
X61966666Y-92573234D01*
X61956731Y-92568601D01*
X61618872Y-92392722D01*
X61609363Y-92387232D01*
X61288140Y-92182590D01*
X61279136Y-92176286D01*
X60976957Y-91944417D01*
X60968537Y-91937351D01*
X60687732Y-91680041D01*
X60679959Y-91672268D01*
X60422649Y-91391463D01*
X60415583Y-91383043D01*
X60183714Y-91080864D01*
X60177410Y-91071860D01*
X59972768Y-90750637D01*
X59967278Y-90741128D01*
X59791399Y-90403269D01*
X59786762Y-90393325D01*
X59772778Y-90359563D01*
X59641001Y-90041425D01*
X59637245Y-90031103D01*
X59629762Y-90007368D01*
X59522715Y-89667860D01*
X59519870Y-89657243D01*
X59437436Y-89285403D01*
X59435527Y-89274579D01*
X59385811Y-88896957D01*
X59384853Y-88886006D01*
X59375561Y-88673180D01*
X59370059Y-88547172D01*
X59371686Y-88520769D01*
X59372263Y-88517342D01*
X59372263Y-88517340D01*
X59373071Y-88512539D01*
X59373224Y-88500000D01*
X60146411Y-88500000D01*
X60166754Y-88888176D01*
X60167267Y-88891416D01*
X60167268Y-88891424D01*
X60168145Y-88896958D01*
X60227562Y-89272099D01*
X60328167Y-89647562D01*
X60467468Y-90010453D01*
X60643938Y-90356794D01*
X60855643Y-90682793D01*
X61100266Y-90984876D01*
X61375124Y-91259734D01*
X61677207Y-91504357D01*
X61679970Y-91506152D01*
X61679971Y-91506152D01*
X61942014Y-91676324D01*
X62003205Y-91716062D01*
X62006139Y-91717557D01*
X62006146Y-91717561D01*
X62336680Y-91885976D01*
X62349547Y-91892532D01*
X62712438Y-92031833D01*
X63087901Y-92132438D01*
X63291793Y-92164732D01*
X63468576Y-92192732D01*
X63468584Y-92192733D01*
X63471824Y-92193246D01*
X63860000Y-92213589D01*
X64248176Y-92193246D01*
X64251416Y-92192733D01*
X64251424Y-92192732D01*
X64428207Y-92164732D01*
X64632099Y-92132438D01*
X65007562Y-92031833D01*
X65370453Y-91892532D01*
X65383320Y-91885976D01*
X65713854Y-91717561D01*
X65713861Y-91717557D01*
X65716795Y-91716062D01*
X65777987Y-91676324D01*
X66040029Y-91506152D01*
X66040030Y-91506152D01*
X66042793Y-91504357D01*
X66344876Y-91259734D01*
X66619734Y-90984876D01*
X66864357Y-90682793D01*
X67076062Y-90356794D01*
X67252532Y-90010453D01*
X67391833Y-89647562D01*
X67492438Y-89272099D01*
X67551855Y-88896958D01*
X67552732Y-88891424D01*
X67552733Y-88891416D01*
X67553246Y-88888176D01*
X67573589Y-88500000D01*
X67553246Y-88111824D01*
X67492438Y-87727901D01*
X67391833Y-87352438D01*
X67252532Y-86989547D01*
X67076062Y-86643206D01*
X66864357Y-86317207D01*
X66619734Y-86015124D01*
X66344876Y-85740266D01*
X66269085Y-85678891D01*
X66139268Y-85573767D01*
X66042793Y-85495643D01*
X66008132Y-85473134D01*
X71846500Y-85473134D01*
X71853255Y-85535316D01*
X71904385Y-85671705D01*
X71991739Y-85788261D01*
X72108295Y-85875615D01*
X72244684Y-85926745D01*
X72306866Y-85933500D01*
X73277969Y-85933500D01*
X73346090Y-85953502D01*
X73367064Y-85970405D01*
X75746325Y-88349666D01*
X75748779Y-88352188D01*
X75792060Y-88397956D01*
X75817332Y-88424681D01*
X75851327Y-88450672D01*
X75879757Y-88472408D01*
X75884892Y-88476552D01*
X75929072Y-88514152D01*
X75944720Y-88527470D01*
X75949045Y-88530089D01*
X75949050Y-88530093D01*
X75972824Y-88544491D01*
X75984071Y-88552163D01*
X76010174Y-88572120D01*
X76071255Y-88604871D01*
X76079401Y-88609239D01*
X76085126Y-88612504D01*
X76152358Y-88653221D01*
X76182817Y-88665527D01*
X76195158Y-88671307D01*
X76224109Y-88686831D01*
X76228890Y-88688477D01*
X76228894Y-88688479D01*
X76298401Y-88712412D01*
X76304579Y-88714722D01*
X76318962Y-88720533D01*
X76377429Y-88744155D01*
X76382369Y-88745277D01*
X76382368Y-88745277D01*
X76409460Y-88751432D01*
X76422559Y-88755163D01*
X76453631Y-88765862D01*
X76531100Y-88779243D01*
X76537504Y-88780523D01*
X76614144Y-88797935D01*
X76646953Y-88799999D01*
X76660453Y-88801585D01*
X76692836Y-88807179D01*
X76696793Y-88807359D01*
X76696796Y-88807359D01*
X76720506Y-88808436D01*
X76720525Y-88808436D01*
X76721925Y-88808500D01*
X76778108Y-88808500D01*
X76786019Y-88808749D01*
X76856413Y-88813178D01*
X76897992Y-88809101D01*
X76910288Y-88808500D01*
X90475984Y-88808500D01*
X90479502Y-88808549D01*
X90574150Y-88811193D01*
X90574153Y-88811193D01*
X90579205Y-88811334D01*
X90657098Y-88800941D01*
X90663639Y-88800242D01*
X90692332Y-88797933D01*
X90736923Y-88794346D01*
X90736927Y-88794345D01*
X90741965Y-88793940D01*
X90773878Y-88786101D01*
X90787258Y-88783574D01*
X90819820Y-88779229D01*
X90824661Y-88777768D01*
X90824663Y-88777767D01*
X90895029Y-88756522D01*
X90901392Y-88754781D01*
X90915027Y-88751432D01*
X90977706Y-88736037D01*
X91007952Y-88723199D01*
X91020763Y-88718561D01*
X91047362Y-88710530D01*
X91052208Y-88709067D01*
X91056756Y-88706849D01*
X91056763Y-88706846D01*
X91122818Y-88674629D01*
X91128820Y-88671893D01*
X91178978Y-88650602D01*
X91201156Y-88641188D01*
X91228956Y-88623681D01*
X91240860Y-88617055D01*
X91270388Y-88602654D01*
X91334600Y-88557357D01*
X91340086Y-88553699D01*
X91402286Y-88514529D01*
X91402287Y-88514528D01*
X91406567Y-88511833D01*
X91410356Y-88508492D01*
X91410362Y-88508488D01*
X91419990Y-88500000D01*
X120146411Y-88500000D01*
X120166754Y-88888176D01*
X120167267Y-88891416D01*
X120167268Y-88891424D01*
X120168145Y-88896958D01*
X120227562Y-89272099D01*
X120328167Y-89647562D01*
X120467468Y-90010453D01*
X120643938Y-90356794D01*
X120855643Y-90682793D01*
X121100266Y-90984876D01*
X121375124Y-91259734D01*
X121677207Y-91504357D01*
X121679970Y-91506152D01*
X121679971Y-91506152D01*
X121942014Y-91676324D01*
X122003205Y-91716062D01*
X122006139Y-91717557D01*
X122006146Y-91717561D01*
X122336680Y-91885976D01*
X122349547Y-91892532D01*
X122712438Y-92031833D01*
X123087901Y-92132438D01*
X123291793Y-92164732D01*
X123468576Y-92192732D01*
X123468584Y-92192733D01*
X123471824Y-92193246D01*
X123860000Y-92213589D01*
X124248176Y-92193246D01*
X124251416Y-92192733D01*
X124251424Y-92192732D01*
X124428207Y-92164732D01*
X124632099Y-92132438D01*
X125007562Y-92031833D01*
X125370453Y-91892532D01*
X125383320Y-91885976D01*
X125713854Y-91717561D01*
X125713861Y-91717557D01*
X125716795Y-91716062D01*
X125777987Y-91676324D01*
X126040029Y-91506152D01*
X126040030Y-91506152D01*
X126042793Y-91504357D01*
X126344876Y-91259734D01*
X126619734Y-90984876D01*
X126864357Y-90682793D01*
X127076062Y-90356794D01*
X127252532Y-90010453D01*
X127391833Y-89647562D01*
X127492438Y-89272099D01*
X127551855Y-88896958D01*
X127552732Y-88891424D01*
X127552733Y-88891416D01*
X127553246Y-88888176D01*
X127573589Y-88500000D01*
X127553246Y-88111824D01*
X127492438Y-87727901D01*
X127391833Y-87352438D01*
X127252532Y-86989547D01*
X127076062Y-86643206D01*
X126864357Y-86317207D01*
X126619734Y-86015124D01*
X126344876Y-85740266D01*
X126269085Y-85678891D01*
X126139268Y-85573767D01*
X126042793Y-85495643D01*
X126002870Y-85469717D01*
X125719564Y-85285736D01*
X125719561Y-85285734D01*
X125716795Y-85283938D01*
X125713861Y-85282443D01*
X125713854Y-85282439D01*
X125373393Y-85108966D01*
X125370453Y-85107468D01*
X125007562Y-84968167D01*
X124632099Y-84867562D01*
X124428207Y-84835268D01*
X124251424Y-84807268D01*
X124251416Y-84807267D01*
X124248176Y-84806754D01*
X123860000Y-84786411D01*
X123471824Y-84806754D01*
X123468584Y-84807267D01*
X123468576Y-84807268D01*
X123291793Y-84835268D01*
X123087901Y-84867562D01*
X122712438Y-84968167D01*
X122349547Y-85107468D01*
X122346607Y-85108966D01*
X122006147Y-85282439D01*
X122006140Y-85282443D01*
X122003206Y-85283938D01*
X122000440Y-85285734D01*
X122000437Y-85285736D01*
X121875755Y-85366705D01*
X121677207Y-85495643D01*
X121580732Y-85573767D01*
X121450916Y-85678891D01*
X121375124Y-85740266D01*
X121100266Y-86015124D01*
X120855643Y-86317207D01*
X120643938Y-86643206D01*
X120467468Y-86989547D01*
X120328167Y-87352438D01*
X120227562Y-87727901D01*
X120166754Y-88111824D01*
X120146411Y-88500000D01*
X91419990Y-88500000D01*
X91431217Y-88490102D01*
X91441912Y-88481656D01*
X91455022Y-88472408D01*
X91468747Y-88462726D01*
X91490250Y-88443091D01*
X91529966Y-88403375D01*
X91535736Y-88397956D01*
X91584858Y-88354650D01*
X91584861Y-88354647D01*
X91588655Y-88351302D01*
X91615179Y-88319011D01*
X91623449Y-88309892D01*
X94267936Y-85665405D01*
X94330248Y-85631379D01*
X94357031Y-85628500D01*
X95328134Y-85628500D01*
X95390316Y-85621745D01*
X95526705Y-85570615D01*
X95643261Y-85483261D01*
X95730615Y-85366705D01*
X95768778Y-85264906D01*
X97979839Y-85264906D01*
X97988553Y-85276427D01*
X98095452Y-85354809D01*
X98103351Y-85359745D01*
X98332905Y-85480519D01*
X98341454Y-85484236D01*
X98586327Y-85569749D01*
X98595336Y-85572163D01*
X98850166Y-85620544D01*
X98859423Y-85621598D01*
X99118607Y-85631783D01*
X99127921Y-85631457D01*
X99385753Y-85603220D01*
X99394930Y-85601519D01*
X99645758Y-85535481D01*
X99654574Y-85532445D01*
X99892880Y-85430062D01*
X99901167Y-85425748D01*
X100121718Y-85289266D01*
X100129268Y-85283780D01*
X100134559Y-85279301D01*
X100142997Y-85266497D01*
X100136935Y-85256145D01*
X99072812Y-84192022D01*
X99058868Y-84184408D01*
X99057035Y-84184539D01*
X99050420Y-84188790D01*
X97986497Y-85252713D01*
X97979839Y-85264906D01*
X95768778Y-85264906D01*
X95781745Y-85230316D01*
X95788500Y-85168134D01*
X95788500Y-84197031D01*
X95808502Y-84128910D01*
X95825405Y-84107936D01*
X96156130Y-83777211D01*
X97247775Y-83777211D01*
X97260220Y-84036288D01*
X97261356Y-84045543D01*
X97311961Y-84299945D01*
X97314449Y-84308917D01*
X97402095Y-84553033D01*
X97405895Y-84561568D01*
X97528658Y-84790042D01*
X97533666Y-84797904D01*
X97603720Y-84891716D01*
X97614979Y-84900165D01*
X97627397Y-84893393D01*
X98687978Y-83832812D01*
X98694356Y-83821132D01*
X99424408Y-83821132D01*
X99424539Y-83822965D01*
X99428790Y-83829580D01*
X100496094Y-84896884D01*
X100508474Y-84903644D01*
X100516815Y-84897400D01*
X100650832Y-84689048D01*
X100655275Y-84680864D01*
X100761807Y-84444370D01*
X100764997Y-84435605D01*
X100835402Y-84185972D01*
X100837262Y-84176830D01*
X100870187Y-83918019D01*
X100870668Y-83911733D01*
X100872987Y-83823160D01*
X100872836Y-83816851D01*
X100853501Y-83556663D01*
X100852125Y-83547457D01*
X100794878Y-83294467D01*
X100792154Y-83285556D01*
X100698143Y-83043806D01*
X100694132Y-83035397D01*
X100565422Y-82810202D01*
X100560211Y-82802476D01*
X100516996Y-82747658D01*
X100505071Y-82739187D01*
X100493537Y-82745673D01*
X99432022Y-83807188D01*
X99424408Y-83821132D01*
X98694356Y-83821132D01*
X98695592Y-83818868D01*
X98695461Y-83817035D01*
X98691210Y-83810420D01*
X97625816Y-82745026D01*
X97612507Y-82737758D01*
X97602472Y-82744878D01*
X97586937Y-82763556D01*
X97581531Y-82771135D01*
X97446965Y-82992891D01*
X97442736Y-83001192D01*
X97342432Y-83240389D01*
X97339471Y-83249239D01*
X97275628Y-83500625D01*
X97274006Y-83509822D01*
X97248020Y-83767885D01*
X97247775Y-83777211D01*
X96156130Y-83777211D01*
X97687937Y-82245405D01*
X97750249Y-82211379D01*
X97777032Y-82208500D01*
X97854133Y-82208500D01*
X97922254Y-82228502D01*
X97968747Y-82282158D01*
X97979009Y-82351295D01*
X97976348Y-82371077D01*
X97981675Y-82382465D01*
X99047188Y-83447978D01*
X99061132Y-83455592D01*
X99062965Y-83455461D01*
X99069580Y-83451210D01*
X100134349Y-82386441D01*
X100141964Y-82372497D01*
X100139889Y-82343489D01*
X100154981Y-82274114D01*
X100205183Y-82223912D01*
X100265568Y-82208500D01*
X102899065Y-82208500D01*
X102967186Y-82228502D01*
X103013679Y-82282158D01*
X103023783Y-82352432D01*
X102994289Y-82417012D01*
X102982966Y-82428503D01*
X102856501Y-82541378D01*
X102835426Y-82560188D01*
X102663544Y-82766854D01*
X102524096Y-82996656D01*
X102522287Y-83000970D01*
X102522285Y-83000974D01*
X102476205Y-83110864D01*
X102420148Y-83244545D01*
X102353981Y-83505077D01*
X102327050Y-83772526D01*
X102327274Y-83777192D01*
X102327274Y-83777197D01*
X102329946Y-83832812D01*
X102339947Y-84041019D01*
X102392388Y-84304656D01*
X102483220Y-84557646D01*
X102610450Y-84794431D01*
X102613241Y-84798168D01*
X102613245Y-84798175D01*
X102689405Y-84900165D01*
X102771281Y-85009810D01*
X102774590Y-85013090D01*
X102774595Y-85013096D01*
X102958863Y-85195762D01*
X102962180Y-85199050D01*
X102965942Y-85201808D01*
X102965945Y-85201811D01*
X103174609Y-85354809D01*
X103178954Y-85357995D01*
X103183089Y-85360171D01*
X103183093Y-85360173D01*
X103412698Y-85480975D01*
X103416840Y-85483154D01*
X103670613Y-85571775D01*
X103675206Y-85572647D01*
X103930109Y-85621042D01*
X103930112Y-85621042D01*
X103934698Y-85621913D01*
X104062370Y-85626929D01*
X104198625Y-85632283D01*
X104198630Y-85632283D01*
X104203293Y-85632466D01*
X104307607Y-85621042D01*
X104465844Y-85603713D01*
X104465850Y-85603712D01*
X104470497Y-85603203D01*
X104475021Y-85602012D01*
X104725918Y-85535956D01*
X104725920Y-85535955D01*
X104730441Y-85534765D01*
X104809585Y-85500762D01*
X104973120Y-85430502D01*
X104973122Y-85430501D01*
X104977414Y-85428657D01*
X105161389Y-85314810D01*
X105202017Y-85289669D01*
X105202021Y-85289666D01*
X105205990Y-85287210D01*
X105411149Y-85113530D01*
X105588382Y-84911434D01*
X105595631Y-84900165D01*
X105731269Y-84689291D01*
X105733797Y-84685361D01*
X105844199Y-84440278D01*
X105881247Y-84308917D01*
X105915893Y-84186072D01*
X105915894Y-84186069D01*
X105917163Y-84181568D01*
X105935043Y-84041019D01*
X105950688Y-83918045D01*
X105950688Y-83918041D01*
X105951086Y-83914915D01*
X105951170Y-83911733D01*
X105953124Y-83837064D01*
X105953571Y-83820000D01*
X105933650Y-83551937D01*
X105932619Y-83547379D01*
X105875361Y-83294331D01*
X105875360Y-83294326D01*
X105874327Y-83289763D01*
X105776902Y-83039238D01*
X105643518Y-82805864D01*
X105609931Y-82763258D01*
X105550180Y-82687465D01*
X105477105Y-82594769D01*
X105343322Y-82468919D01*
X105297990Y-82426275D01*
X105262078Y-82365031D01*
X105264978Y-82294093D01*
X105305769Y-82235985D01*
X105371500Y-82209154D01*
X105384323Y-82208500D01*
X108935984Y-82208500D01*
X108939502Y-82208549D01*
X109034150Y-82211193D01*
X109034153Y-82211193D01*
X109039205Y-82211334D01*
X109117098Y-82200941D01*
X109123639Y-82200242D01*
X109152332Y-82197933D01*
X109196923Y-82194346D01*
X109196927Y-82194345D01*
X109201965Y-82193940D01*
X109233878Y-82186101D01*
X109247258Y-82183574D01*
X109279820Y-82179229D01*
X109284661Y-82177768D01*
X109284663Y-82177767D01*
X109355029Y-82156522D01*
X109361392Y-82154781D01*
X109375328Y-82151358D01*
X109437706Y-82136037D01*
X109467952Y-82123199D01*
X109480763Y-82118561D01*
X109507362Y-82110530D01*
X109512208Y-82109067D01*
X109516756Y-82106849D01*
X109516763Y-82106846D01*
X109582818Y-82074629D01*
X109588820Y-82071893D01*
X109633504Y-82052925D01*
X109661156Y-82041188D01*
X109688956Y-82023681D01*
X109700860Y-82017055D01*
X109730388Y-82002654D01*
X109794600Y-81957357D01*
X109800086Y-81953699D01*
X109862286Y-81914529D01*
X109862287Y-81914528D01*
X109866567Y-81911833D01*
X109870356Y-81908492D01*
X109870362Y-81908488D01*
X109891217Y-81890102D01*
X109901912Y-81881656D01*
X109904863Y-81879574D01*
X109928747Y-81862726D01*
X109950250Y-81843091D01*
X109989966Y-81803375D01*
X109995736Y-81797956D01*
X110044858Y-81754650D01*
X110044861Y-81754647D01*
X110048655Y-81751302D01*
X110075179Y-81719011D01*
X110083449Y-81709892D01*
X111948672Y-79844669D01*
X118552001Y-79844669D01*
X118552371Y-79851490D01*
X118557895Y-79902352D01*
X118561521Y-79917604D01*
X118606676Y-80038054D01*
X118615214Y-80053649D01*
X118691715Y-80155724D01*
X118704276Y-80168285D01*
X118806351Y-80244786D01*
X118821946Y-80253324D01*
X118942394Y-80298478D01*
X118957649Y-80302105D01*
X119008514Y-80307631D01*
X119015328Y-80308000D01*
X120087885Y-80308000D01*
X120103124Y-80303525D01*
X120104329Y-80302135D01*
X120106000Y-80294452D01*
X120106000Y-80289884D01*
X120614000Y-80289884D01*
X120618475Y-80305123D01*
X120619865Y-80306328D01*
X120627548Y-80307999D01*
X121704669Y-80307999D01*
X121711490Y-80307629D01*
X121762352Y-80302105D01*
X121777604Y-80298479D01*
X121898054Y-80253324D01*
X121913649Y-80244786D01*
X122015724Y-80168285D01*
X122028285Y-80155724D01*
X122104786Y-80053649D01*
X122113324Y-80038054D01*
X122158478Y-79917606D01*
X122162105Y-79902351D01*
X122167631Y-79851486D01*
X122168000Y-79844672D01*
X122168000Y-78772115D01*
X122163525Y-78756876D01*
X122162135Y-78755671D01*
X122154452Y-78754000D01*
X120632115Y-78754000D01*
X120616876Y-78758475D01*
X120615671Y-78759865D01*
X120614000Y-78767548D01*
X120614000Y-80289884D01*
X120106000Y-80289884D01*
X120106000Y-78772115D01*
X120101525Y-78756876D01*
X120100135Y-78755671D01*
X120092452Y-78754000D01*
X118570116Y-78754000D01*
X118554877Y-78758475D01*
X118553672Y-78759865D01*
X118552001Y-78767548D01*
X118552001Y-79844669D01*
X111948672Y-79844669D01*
X113119666Y-78673675D01*
X113122188Y-78671221D01*
X113191012Y-78606138D01*
X113191014Y-78606135D01*
X113194681Y-78602668D01*
X113242411Y-78540239D01*
X113246552Y-78535108D01*
X113294191Y-78479133D01*
X113294192Y-78479132D01*
X113297470Y-78475280D01*
X113300089Y-78470955D01*
X113300093Y-78470950D01*
X113314491Y-78447176D01*
X113322163Y-78435929D01*
X113342120Y-78409826D01*
X113379243Y-78340592D01*
X113382507Y-78334868D01*
X113420602Y-78271966D01*
X113423221Y-78267642D01*
X113435528Y-78237181D01*
X113439882Y-78227885D01*
X118552000Y-78227885D01*
X118556475Y-78243124D01*
X118557865Y-78244329D01*
X118565548Y-78246000D01*
X120087885Y-78246000D01*
X120103124Y-78241525D01*
X120104329Y-78240135D01*
X120106000Y-78232452D01*
X120106000Y-78227885D01*
X120614000Y-78227885D01*
X120618475Y-78243124D01*
X120619865Y-78244329D01*
X120627548Y-78246000D01*
X122149884Y-78246000D01*
X122165123Y-78241525D01*
X122166328Y-78240135D01*
X122167999Y-78232452D01*
X122167999Y-77155331D01*
X122167629Y-77148510D01*
X122162105Y-77097648D01*
X122158479Y-77082396D01*
X122113324Y-76961946D01*
X122104786Y-76946351D01*
X122028285Y-76844276D01*
X122015724Y-76831715D01*
X121913649Y-76755214D01*
X121898054Y-76746676D01*
X121777606Y-76701522D01*
X121762351Y-76697895D01*
X121711486Y-76692369D01*
X121704672Y-76692000D01*
X120632115Y-76692000D01*
X120616876Y-76696475D01*
X120615671Y-76697865D01*
X120614000Y-76705548D01*
X120614000Y-78227885D01*
X120106000Y-78227885D01*
X120106000Y-76710116D01*
X120101525Y-76694877D01*
X120100135Y-76693672D01*
X120092452Y-76692001D01*
X119015331Y-76692001D01*
X119008510Y-76692371D01*
X118957648Y-76697895D01*
X118942396Y-76701521D01*
X118821946Y-76746676D01*
X118806351Y-76755214D01*
X118704276Y-76831715D01*
X118691715Y-76844276D01*
X118615214Y-76946351D01*
X118606676Y-76961946D01*
X118561522Y-77082394D01*
X118557895Y-77097649D01*
X118552369Y-77148514D01*
X118552000Y-77155328D01*
X118552000Y-78227885D01*
X113439882Y-78227885D01*
X113441308Y-78224841D01*
X113454440Y-78200350D01*
X113456831Y-78195891D01*
X113480897Y-78126000D01*
X113482412Y-78121599D01*
X113484722Y-78115421D01*
X113512258Y-78047266D01*
X113514155Y-78042571D01*
X113521432Y-78010539D01*
X113525163Y-77997441D01*
X113535862Y-77966369D01*
X113549243Y-77888900D01*
X113550526Y-77882482D01*
X113566815Y-77810786D01*
X113566815Y-77810785D01*
X113567935Y-77805856D01*
X113569999Y-77773047D01*
X113571585Y-77759547D01*
X113577179Y-77727164D01*
X113578500Y-77698075D01*
X113578500Y-77641893D01*
X113578749Y-77633981D01*
X113580393Y-77607860D01*
X113583178Y-77563588D01*
X113579101Y-77522009D01*
X113578500Y-77509713D01*
X113578500Y-62167031D01*
X113598502Y-62098910D01*
X113615405Y-62077936D01*
X115247066Y-60446276D01*
X116909684Y-58783658D01*
X116912206Y-58781204D01*
X116981005Y-58716144D01*
X116984681Y-58712668D01*
X117032412Y-58650239D01*
X117036554Y-58645107D01*
X117084187Y-58589138D01*
X117084189Y-58589135D01*
X117087470Y-58585280D01*
X117090090Y-58580954D01*
X117090095Y-58580947D01*
X117104491Y-58557176D01*
X117112163Y-58545929D01*
X117132120Y-58519826D01*
X117169247Y-58450584D01*
X117172510Y-58444863D01*
X117210602Y-58381966D01*
X117210603Y-58381965D01*
X117213220Y-58377643D01*
X117225534Y-58347166D01*
X117231303Y-58334850D01*
X117246831Y-58305891D01*
X117272423Y-58231567D01*
X117274718Y-58225429D01*
X117302258Y-58157267D01*
X117302259Y-58157263D01*
X117304155Y-58152571D01*
X117305713Y-58145716D01*
X117311432Y-58120540D01*
X117315163Y-58107441D01*
X117325862Y-58076369D01*
X117339243Y-57998900D01*
X117340526Y-57992482D01*
X117356815Y-57920786D01*
X117356815Y-57920785D01*
X117357935Y-57915856D01*
X117359999Y-57883047D01*
X117361585Y-57869547D01*
X117367179Y-57837164D01*
X117368500Y-57808075D01*
X117368500Y-57751893D01*
X117368749Y-57743981D01*
X117372860Y-57678642D01*
X117373178Y-57673588D01*
X117369101Y-57632009D01*
X117368500Y-57619713D01*
X117368500Y-52477031D01*
X117388502Y-52408910D01*
X117405405Y-52387936D01*
X117636405Y-52156936D01*
X117698717Y-52122910D01*
X117769532Y-52127975D01*
X117826368Y-52170522D01*
X117851179Y-52237042D01*
X117851500Y-52246031D01*
X117851500Y-73498838D01*
X117866359Y-73735020D01*
X117925505Y-74045072D01*
X118023044Y-74345266D01*
X118024731Y-74348852D01*
X118024733Y-74348856D01*
X118155750Y-74627283D01*
X118155754Y-74627290D01*
X118157438Y-74630869D01*
X118159562Y-74634215D01*
X118159562Y-74634216D01*
X118162458Y-74638779D01*
X118326568Y-74897375D01*
X118386140Y-74969385D01*
X118477537Y-75079864D01*
X118527767Y-75140582D01*
X118757860Y-75356654D01*
X118761062Y-75358981D01*
X118761064Y-75358982D01*
X118780511Y-75373111D01*
X119013221Y-75542184D01*
X119016690Y-75544091D01*
X119016693Y-75544093D01*
X119268593Y-75682577D01*
X119289821Y-75694247D01*
X119293490Y-75695700D01*
X119293495Y-75695702D01*
X119579628Y-75808990D01*
X119583298Y-75810443D01*
X119889025Y-75888940D01*
X120202179Y-75928500D01*
X120517821Y-75928500D01*
X120830975Y-75888940D01*
X121136702Y-75810443D01*
X121140372Y-75808990D01*
X121426505Y-75695702D01*
X121426510Y-75695700D01*
X121430179Y-75694247D01*
X121451407Y-75682577D01*
X121703307Y-75544093D01*
X121703310Y-75544091D01*
X121706779Y-75542184D01*
X121939489Y-75373111D01*
X121958936Y-75358982D01*
X121958938Y-75358981D01*
X121962140Y-75356654D01*
X122192233Y-75140582D01*
X122242464Y-75079864D01*
X122333860Y-74969385D01*
X122393432Y-74897375D01*
X122557542Y-74638779D01*
X122560438Y-74634216D01*
X122560438Y-74634215D01*
X122562562Y-74630869D01*
X122564246Y-74627290D01*
X122564250Y-74627283D01*
X122695267Y-74348856D01*
X122695269Y-74348852D01*
X122696956Y-74345266D01*
X122794495Y-74045072D01*
X122853641Y-73735020D01*
X122868500Y-73498838D01*
X122868500Y-50341383D01*
X122868562Y-50337425D01*
X122872095Y-50225009D01*
X122872095Y-50225003D01*
X122872219Y-50221051D01*
X122861263Y-50105141D01*
X122860953Y-50101196D01*
X122853890Y-49988943D01*
X122853641Y-49984980D01*
X122847347Y-49951985D01*
X122845638Y-49939844D01*
X122845619Y-49939636D01*
X122859342Y-49869978D01*
X122908546Y-49818797D01*
X122977609Y-49802342D01*
X123043368Y-49824961D01*
X123198993Y-49933931D01*
X123208489Y-49939414D01*
X123405947Y-50031490D01*
X123416239Y-50035236D01*
X123626688Y-50091625D01*
X123637481Y-50093528D01*
X123854525Y-50112517D01*
X123865475Y-50112517D01*
X124082519Y-50093528D01*
X124093312Y-50091625D01*
X124303761Y-50035236D01*
X124314053Y-50031490D01*
X124511511Y-49939414D01*
X124521006Y-49933931D01*
X124573048Y-49897491D01*
X124581424Y-49887012D01*
X124574356Y-49873566D01*
X123501922Y-48801132D01*
X124224408Y-48801132D01*
X124224539Y-48802965D01*
X124228790Y-48809580D01*
X124934287Y-49515077D01*
X124946062Y-49521507D01*
X124958077Y-49512211D01*
X124993931Y-49461006D01*
X124999414Y-49451511D01*
X125091490Y-49254053D01*
X125095236Y-49243761D01*
X125151625Y-49033312D01*
X125153528Y-49022519D01*
X125172517Y-48805475D01*
X125172517Y-48794525D01*
X125153528Y-48577481D01*
X125151625Y-48566688D01*
X125095236Y-48356239D01*
X125091490Y-48345947D01*
X124999414Y-48148489D01*
X124993931Y-48138994D01*
X124957491Y-48086952D01*
X124947012Y-48078576D01*
X124933566Y-48085644D01*
X124232022Y-48787188D01*
X124224408Y-48801132D01*
X123501922Y-48801132D01*
X122785713Y-48084923D01*
X122773938Y-48078493D01*
X122761923Y-48087789D01*
X122726069Y-48138994D01*
X122720586Y-48148489D01*
X122628510Y-48345947D01*
X122624764Y-48356239D01*
X122568375Y-48566688D01*
X122566472Y-48577480D01*
X122557707Y-48677665D01*
X122531844Y-48743783D01*
X122474340Y-48785423D01*
X122403453Y-48789364D01*
X122337672Y-48750010D01*
X122332182Y-48743783D01*
X122268987Y-48672102D01*
X122266480Y-48669166D01*
X122192233Y-48579418D01*
X122107339Y-48499697D01*
X122104498Y-48496943D01*
X121320542Y-47712988D01*
X123138576Y-47712988D01*
X123145644Y-47726434D01*
X123847188Y-48427978D01*
X123861132Y-48435592D01*
X123862965Y-48435461D01*
X123869580Y-48431210D01*
X124575077Y-47725713D01*
X124581507Y-47713938D01*
X124572211Y-47701923D01*
X124521006Y-47666069D01*
X124511511Y-47660586D01*
X124314053Y-47568510D01*
X124303761Y-47564764D01*
X124093312Y-47508375D01*
X124082519Y-47506472D01*
X123865475Y-47487483D01*
X123854525Y-47487483D01*
X123637481Y-47506472D01*
X123626688Y-47508375D01*
X123416239Y-47564764D01*
X123405947Y-47568510D01*
X123208489Y-47660586D01*
X123198994Y-47666069D01*
X123146952Y-47702509D01*
X123138576Y-47712988D01*
X121320542Y-47712988D01*
X120579441Y-46971887D01*
X120578030Y-46970476D01*
X120400518Y-46813977D01*
X120269986Y-46725268D01*
X120142737Y-46638789D01*
X120142732Y-46638786D01*
X120139455Y-46636559D01*
X119858216Y-46493261D01*
X119854492Y-46491920D01*
X119854489Y-46491919D01*
X119564955Y-46387680D01*
X119561233Y-46386340D01*
X119474509Y-46366955D01*
X119257050Y-46318347D01*
X119257044Y-46318346D01*
X119253192Y-46317485D01*
X118938949Y-46287780D01*
X118934998Y-46287904D01*
X118934992Y-46287904D01*
X118774174Y-46292958D01*
X118623463Y-46297695D01*
X118572552Y-46305759D01*
X118502142Y-46296660D01*
X118463746Y-46270405D01*
X114018675Y-41825334D01*
X114016221Y-41822812D01*
X113951138Y-41753988D01*
X113951135Y-41753986D01*
X113947668Y-41750319D01*
X113885239Y-41702589D01*
X113880108Y-41698448D01*
X113824133Y-41650809D01*
X113824132Y-41650808D01*
X113820280Y-41647530D01*
X113815955Y-41644911D01*
X113815950Y-41644907D01*
X113792176Y-41630509D01*
X113780929Y-41622837D01*
X113754826Y-41602880D01*
X113685592Y-41565757D01*
X113679868Y-41562493D01*
X113612642Y-41521779D01*
X113582181Y-41509472D01*
X113569841Y-41503692D01*
X113540891Y-41488169D01*
X113536110Y-41486523D01*
X113536106Y-41486521D01*
X113466599Y-41462588D01*
X113460421Y-41460278D01*
X113396523Y-41434462D01*
X113387571Y-41430845D01*
X113355539Y-41423568D01*
X113342441Y-41419837D01*
X113311369Y-41409138D01*
X113233900Y-41395757D01*
X113227496Y-41394477D01*
X113150856Y-41377065D01*
X113118047Y-41375001D01*
X113104547Y-41373415D01*
X113072164Y-41367821D01*
X113068207Y-41367641D01*
X113068204Y-41367641D01*
X113044494Y-41366564D01*
X113044475Y-41366564D01*
X113043075Y-41366500D01*
X112986892Y-41366500D01*
X112978980Y-41366251D01*
X112973386Y-41365899D01*
X112908587Y-41361822D01*
X112869545Y-41365650D01*
X112867008Y-41365899D01*
X112854712Y-41366500D01*
X105987275Y-41366500D01*
X105919154Y-41346498D01*
X105886449Y-41316065D01*
X105820824Y-41228502D01*
X105808261Y-41211739D01*
X105691705Y-41124385D01*
X105555316Y-41073255D01*
X105493134Y-41066500D01*
X104522031Y-41066500D01*
X104453910Y-41046498D01*
X104432936Y-41029595D01*
X102053675Y-38650334D01*
X102051221Y-38647812D01*
X101986138Y-38578988D01*
X101986135Y-38578986D01*
X101982668Y-38575319D01*
X101920239Y-38527589D01*
X101915108Y-38523448D01*
X101887557Y-38500000D01*
X120146411Y-38500000D01*
X120166754Y-38888176D01*
X120227562Y-39272099D01*
X120328167Y-39647562D01*
X120467468Y-40010453D01*
X120643938Y-40356794D01*
X120855643Y-40682793D01*
X121100266Y-40984876D01*
X121375124Y-41259734D01*
X121377682Y-41261806D01*
X121377686Y-41261809D01*
X121508377Y-41367641D01*
X121677207Y-41504357D01*
X121679970Y-41506152D01*
X121679971Y-41506152D01*
X121979382Y-41700591D01*
X122003205Y-41716062D01*
X122006139Y-41717557D01*
X122006146Y-41717561D01*
X122280194Y-41857195D01*
X122349547Y-41892532D01*
X122712438Y-42031833D01*
X123087901Y-42132438D01*
X123291793Y-42164732D01*
X123468576Y-42192732D01*
X123468584Y-42192733D01*
X123471824Y-42193246D01*
X123860000Y-42213589D01*
X124248176Y-42193246D01*
X124251416Y-42192733D01*
X124251424Y-42192732D01*
X124428207Y-42164732D01*
X124632099Y-42132438D01*
X125007562Y-42031833D01*
X125370453Y-41892532D01*
X125439806Y-41857195D01*
X125713854Y-41717561D01*
X125713861Y-41717557D01*
X125716795Y-41716062D01*
X125740619Y-41700591D01*
X126040029Y-41506152D01*
X126040030Y-41506152D01*
X126042793Y-41504357D01*
X126211623Y-41367641D01*
X126342314Y-41261809D01*
X126342318Y-41261806D01*
X126344876Y-41259734D01*
X126619734Y-40984876D01*
X126864357Y-40682793D01*
X127076062Y-40356794D01*
X127252532Y-40010453D01*
X127391833Y-39647562D01*
X127492438Y-39272099D01*
X127553246Y-38888176D01*
X127573589Y-38500000D01*
X127553246Y-38111824D01*
X127492438Y-37727901D01*
X127391833Y-37352438D01*
X127252532Y-36989547D01*
X127076062Y-36643206D01*
X126864357Y-36317207D01*
X126619734Y-36015124D01*
X126344876Y-35740266D01*
X126042793Y-35495643D01*
X125784232Y-35327732D01*
X125719564Y-35285736D01*
X125719561Y-35285734D01*
X125716795Y-35283938D01*
X125713861Y-35282443D01*
X125713854Y-35282439D01*
X125373393Y-35108966D01*
X125370453Y-35107468D01*
X125007562Y-34968167D01*
X124632099Y-34867562D01*
X124428207Y-34835268D01*
X124251424Y-34807268D01*
X124251416Y-34807267D01*
X124248176Y-34806754D01*
X123860000Y-34786411D01*
X123471824Y-34806754D01*
X123468584Y-34807267D01*
X123468576Y-34807268D01*
X123291793Y-34835268D01*
X123087901Y-34867562D01*
X122712438Y-34968167D01*
X122349547Y-35107468D01*
X122346607Y-35108966D01*
X122006147Y-35282439D01*
X122006140Y-35282443D01*
X122003206Y-35283938D01*
X121677207Y-35495643D01*
X121375124Y-35740266D01*
X121100266Y-36015124D01*
X120855643Y-36317207D01*
X120643938Y-36643206D01*
X120467468Y-36989547D01*
X120328167Y-37352438D01*
X120227562Y-37727901D01*
X120166754Y-38111824D01*
X120146411Y-38500000D01*
X101887557Y-38500000D01*
X101859133Y-38475809D01*
X101859132Y-38475808D01*
X101855280Y-38472530D01*
X101850955Y-38469911D01*
X101850950Y-38469907D01*
X101827176Y-38455509D01*
X101815929Y-38447837D01*
X101789826Y-38427880D01*
X101720592Y-38390757D01*
X101714868Y-38387493D01*
X101647642Y-38346779D01*
X101617181Y-38334472D01*
X101604841Y-38328692D01*
X101601350Y-38326820D01*
X101575891Y-38313169D01*
X101571110Y-38311523D01*
X101571106Y-38311521D01*
X101501599Y-38287588D01*
X101495421Y-38285278D01*
X101427266Y-38257742D01*
X101427267Y-38257742D01*
X101422571Y-38255845D01*
X101390539Y-38248568D01*
X101377441Y-38244837D01*
X101346369Y-38234138D01*
X101268900Y-38220757D01*
X101262496Y-38219477D01*
X101185856Y-38202065D01*
X101153047Y-38200001D01*
X101139547Y-38198415D01*
X101107164Y-38192821D01*
X101103207Y-38192641D01*
X101103204Y-38192641D01*
X101079494Y-38191564D01*
X101079475Y-38191564D01*
X101078075Y-38191500D01*
X101021892Y-38191500D01*
X101013980Y-38191251D01*
X101008386Y-38190899D01*
X100943587Y-38186822D01*
X100904545Y-38190650D01*
X100902008Y-38190899D01*
X100889712Y-38191500D01*
X87024016Y-38191500D01*
X87020498Y-38191451D01*
X86925850Y-38188807D01*
X86925847Y-38188807D01*
X86920795Y-38188666D01*
X86842902Y-38199059D01*
X86836361Y-38199758D01*
X86811617Y-38201749D01*
X86763077Y-38205654D01*
X86763073Y-38205655D01*
X86758035Y-38206060D01*
X86726122Y-38213899D01*
X86712742Y-38216426D01*
X86680180Y-38220771D01*
X86675339Y-38222232D01*
X86675337Y-38222233D01*
X86604971Y-38243478D01*
X86598610Y-38245219D01*
X86522294Y-38263963D01*
X86517634Y-38265941D01*
X86492049Y-38276801D01*
X86479239Y-38281438D01*
X86447792Y-38290933D01*
X86443244Y-38293151D01*
X86443237Y-38293154D01*
X86377182Y-38325371D01*
X86371180Y-38328107D01*
X86327192Y-38346779D01*
X86298844Y-38358812D01*
X86274532Y-38374123D01*
X86271044Y-38376319D01*
X86259140Y-38382945D01*
X86229612Y-38397346D01*
X86225475Y-38400265D01*
X86225474Y-38400265D01*
X86165403Y-38442641D01*
X86159914Y-38446301D01*
X86098691Y-38484856D01*
X86093433Y-38488167D01*
X86089644Y-38491508D01*
X86089638Y-38491512D01*
X86068783Y-38509898D01*
X86058088Y-38518344D01*
X86031253Y-38537274D01*
X86009750Y-38556909D01*
X85970034Y-38596625D01*
X85964264Y-38602044D01*
X85915142Y-38645350D01*
X85915139Y-38645353D01*
X85911345Y-38648698D01*
X85908135Y-38652606D01*
X85908134Y-38652607D01*
X85884821Y-38680989D01*
X85876551Y-38690108D01*
X83537064Y-41029595D01*
X83474752Y-41063621D01*
X83447969Y-41066500D01*
X82476866Y-41066500D01*
X82414684Y-41073255D01*
X82278295Y-41124385D01*
X82161739Y-41211739D01*
X82074385Y-41328295D01*
X82023255Y-41464684D01*
X82016500Y-41526866D01*
X82016500Y-44223134D01*
X82023255Y-44285316D01*
X82074385Y-44421705D01*
X82161739Y-44538261D01*
X82278295Y-44625615D01*
X82414684Y-44676745D01*
X82476866Y-44683500D01*
X85173134Y-44683500D01*
X85235316Y-44676745D01*
X85371705Y-44625615D01*
X85488261Y-44538261D01*
X85575615Y-44421705D01*
X85626745Y-44285316D01*
X85633500Y-44223134D01*
X85633500Y-43252031D01*
X85653502Y-43183910D01*
X85670405Y-43162936D01*
X87587936Y-41245405D01*
X87650248Y-41211379D01*
X87677031Y-41208500D01*
X92807094Y-41208500D01*
X92875215Y-41228502D01*
X92921708Y-41282158D01*
X92931812Y-41352432D01*
X92902318Y-41417012D01*
X92884218Y-41434066D01*
X92880968Y-41436197D01*
X92877483Y-41439307D01*
X92877481Y-41439309D01*
X92737560Y-41564194D01*
X92680426Y-41615188D01*
X92508544Y-41821854D01*
X92369096Y-42051656D01*
X92367287Y-42055970D01*
X92367285Y-42055974D01*
X92301265Y-42213416D01*
X92265148Y-42299545D01*
X92198981Y-42560077D01*
X92172050Y-42827526D01*
X92172274Y-42832192D01*
X92172274Y-42832197D01*
X92174946Y-42887812D01*
X92184947Y-43096019D01*
X92237388Y-43359656D01*
X92328220Y-43612646D01*
X92455450Y-43849431D01*
X92458241Y-43853168D01*
X92458245Y-43853175D01*
X92534405Y-43955165D01*
X92616281Y-44064810D01*
X92619590Y-44068090D01*
X92619595Y-44068096D01*
X92803863Y-44250762D01*
X92807180Y-44254050D01*
X92810942Y-44256808D01*
X92810945Y-44256811D01*
X92922737Y-44338780D01*
X93023954Y-44412995D01*
X93028089Y-44415171D01*
X93028093Y-44415173D01*
X93257698Y-44535975D01*
X93261840Y-44538154D01*
X93515613Y-44626775D01*
X93520206Y-44627647D01*
X93775109Y-44676042D01*
X93775112Y-44676042D01*
X93779698Y-44676913D01*
X93907370Y-44681929D01*
X94043625Y-44687283D01*
X94043630Y-44687283D01*
X94048293Y-44687466D01*
X94152607Y-44676042D01*
X94310844Y-44658713D01*
X94310850Y-44658712D01*
X94315497Y-44658203D01*
X94320021Y-44657012D01*
X94570918Y-44590956D01*
X94570920Y-44590955D01*
X94575441Y-44589765D01*
X94682795Y-44543642D01*
X94818120Y-44485502D01*
X94818122Y-44485501D01*
X94822414Y-44483657D01*
X94951943Y-44403502D01*
X95047017Y-44344669D01*
X95047021Y-44344666D01*
X95050990Y-44342210D01*
X95077337Y-44319906D01*
X97984839Y-44319906D01*
X97993553Y-44331427D01*
X98100452Y-44409809D01*
X98108351Y-44414745D01*
X98337905Y-44535519D01*
X98346454Y-44539236D01*
X98591327Y-44624749D01*
X98600336Y-44627163D01*
X98855166Y-44675544D01*
X98864423Y-44676598D01*
X99123607Y-44686783D01*
X99132921Y-44686457D01*
X99390753Y-44658220D01*
X99399930Y-44656519D01*
X99650758Y-44590481D01*
X99659574Y-44587445D01*
X99897880Y-44485062D01*
X99906167Y-44480748D01*
X100126718Y-44344266D01*
X100134268Y-44338780D01*
X100139559Y-44334301D01*
X100147997Y-44321497D01*
X100141935Y-44311145D01*
X99077812Y-43247022D01*
X99063868Y-43239408D01*
X99062035Y-43239539D01*
X99055420Y-43243790D01*
X97991497Y-44307713D01*
X97984839Y-44319906D01*
X95077337Y-44319906D01*
X95256149Y-44168530D01*
X95433382Y-43966434D01*
X95440631Y-43955165D01*
X95576269Y-43744291D01*
X95578797Y-43740361D01*
X95689199Y-43495278D01*
X95726247Y-43363917D01*
X95760893Y-43241072D01*
X95760894Y-43241069D01*
X95762163Y-43236568D01*
X95780043Y-43096019D01*
X95795688Y-42973045D01*
X95795688Y-42973041D01*
X95796086Y-42969915D01*
X95796170Y-42966733D01*
X95797477Y-42916779D01*
X95798571Y-42875000D01*
X95795391Y-42832211D01*
X97252775Y-42832211D01*
X97265220Y-43091288D01*
X97266356Y-43100543D01*
X97316961Y-43354945D01*
X97319449Y-43363917D01*
X97407095Y-43608033D01*
X97410895Y-43616568D01*
X97533658Y-43845042D01*
X97538666Y-43852904D01*
X97608720Y-43946716D01*
X97619979Y-43955165D01*
X97632397Y-43948393D01*
X98692978Y-42887812D01*
X98699356Y-42876132D01*
X99429408Y-42876132D01*
X99429539Y-42877965D01*
X99433790Y-42884580D01*
X100501094Y-43951884D01*
X100513474Y-43958644D01*
X100521815Y-43952400D01*
X100655832Y-43744048D01*
X100660275Y-43735864D01*
X100766807Y-43499370D01*
X100769997Y-43490605D01*
X100840402Y-43240972D01*
X100842262Y-43231830D01*
X100875187Y-42973019D01*
X100875668Y-42966733D01*
X100877987Y-42878160D01*
X100877836Y-42871851D01*
X100858501Y-42611663D01*
X100857125Y-42602457D01*
X100799878Y-42349467D01*
X100797154Y-42340556D01*
X100703143Y-42098806D01*
X100699132Y-42090397D01*
X100570422Y-41865202D01*
X100565211Y-41857476D01*
X100521996Y-41802658D01*
X100510071Y-41794187D01*
X100498537Y-41800673D01*
X99437022Y-42862188D01*
X99429408Y-42876132D01*
X98699356Y-42876132D01*
X98700592Y-42873868D01*
X98700461Y-42872035D01*
X98696210Y-42865420D01*
X97630816Y-41800026D01*
X97617507Y-41792758D01*
X97607472Y-41799878D01*
X97591937Y-41818556D01*
X97586531Y-41826135D01*
X97451965Y-42047891D01*
X97447736Y-42056192D01*
X97347432Y-42295389D01*
X97344471Y-42304239D01*
X97280628Y-42555625D01*
X97279006Y-42564822D01*
X97253020Y-42822885D01*
X97252775Y-42832211D01*
X95795391Y-42832211D01*
X95778650Y-42606937D01*
X95777619Y-42602379D01*
X95720361Y-42349331D01*
X95720360Y-42349326D01*
X95719327Y-42344763D01*
X95621902Y-42094238D01*
X95488518Y-41860864D01*
X95458521Y-41822812D01*
X95398954Y-41747252D01*
X95322105Y-41649769D01*
X95126317Y-41465591D01*
X95121989Y-41462588D01*
X95086584Y-41438027D01*
X95042014Y-41382764D01*
X95034397Y-41312177D01*
X95066152Y-41248678D01*
X95127195Y-41212426D01*
X95158404Y-41208500D01*
X97895953Y-41208500D01*
X97964074Y-41228502D01*
X98010567Y-41282158D01*
X98020671Y-41352432D01*
X97991927Y-41416139D01*
X97982102Y-41427689D01*
X97986675Y-41437465D01*
X99052188Y-42502978D01*
X99066132Y-42510592D01*
X99067965Y-42510461D01*
X99074580Y-42506210D01*
X100139349Y-41441441D01*
X100145733Y-41429751D01*
X100131796Y-41411817D01*
X100105789Y-41345755D01*
X100119626Y-41276120D01*
X100168914Y-41225020D01*
X100231285Y-41208500D01*
X100292969Y-41208500D01*
X100361090Y-41228502D01*
X100382064Y-41245405D01*
X102299595Y-43162936D01*
X102333621Y-43225248D01*
X102336500Y-43252031D01*
X102336500Y-44223134D01*
X102343255Y-44285316D01*
X102394385Y-44421705D01*
X102481739Y-44538261D01*
X102598295Y-44625615D01*
X102734684Y-44676745D01*
X102796866Y-44683500D01*
X105493134Y-44683500D01*
X105555316Y-44676745D01*
X105691705Y-44625615D01*
X105808261Y-44538261D01*
X105886449Y-44433935D01*
X105943308Y-44391420D01*
X105987275Y-44383500D01*
X112257969Y-44383500D01*
X112326090Y-44403502D01*
X112347064Y-44420405D01*
X116330405Y-48403746D01*
X116364431Y-48466058D01*
X116365759Y-48512551D01*
X116357695Y-48563463D01*
X116357194Y-48579418D01*
X116347936Y-48874000D01*
X116347780Y-48878949D01*
X116352260Y-48926342D01*
X116368103Y-49093950D01*
X116354600Y-49163650D01*
X116331757Y-49194902D01*
X114810334Y-50716325D01*
X114807812Y-50718779D01*
X114768486Y-50755968D01*
X114735319Y-50787332D01*
X114705157Y-50826783D01*
X114687592Y-50849757D01*
X114683448Y-50854892D01*
X114632530Y-50914720D01*
X114629911Y-50919045D01*
X114629907Y-50919050D01*
X114615509Y-50942824D01*
X114607837Y-50954071D01*
X114587880Y-50980174D01*
X114585490Y-50984632D01*
X114585489Y-50984633D01*
X114550761Y-51049401D01*
X114547496Y-51055126D01*
X114506779Y-51122358D01*
X114504884Y-51127049D01*
X114494473Y-51152817D01*
X114488693Y-51165158D01*
X114473169Y-51194109D01*
X114471523Y-51198890D01*
X114471521Y-51198894D01*
X114447588Y-51268401D01*
X114445278Y-51274579D01*
X114428166Y-51316934D01*
X114415845Y-51347429D01*
X114414723Y-51352368D01*
X114408568Y-51379460D01*
X114404837Y-51392559D01*
X114394138Y-51423631D01*
X114380757Y-51501100D01*
X114379477Y-51507504D01*
X114362065Y-51584144D01*
X114360001Y-51616953D01*
X114358415Y-51630453D01*
X114352821Y-51662836D01*
X114351500Y-51691925D01*
X114351500Y-51748108D01*
X114351251Y-51756019D01*
X114346822Y-51826413D01*
X114347316Y-51831448D01*
X114350899Y-51867992D01*
X114351500Y-51880288D01*
X114351500Y-57022969D01*
X114331498Y-57091090D01*
X114314595Y-57112064D01*
X111020334Y-60406325D01*
X111017812Y-60408779D01*
X110982459Y-60442211D01*
X110945319Y-60477332D01*
X110917337Y-60513931D01*
X110897592Y-60539757D01*
X110893448Y-60544892D01*
X110851808Y-60593819D01*
X110842530Y-60604720D01*
X110839911Y-60609045D01*
X110839907Y-60609050D01*
X110825509Y-60632824D01*
X110817837Y-60644071D01*
X110797880Y-60670174D01*
X110795490Y-60674632D01*
X110795489Y-60674633D01*
X110760761Y-60739401D01*
X110757496Y-60745126D01*
X110716779Y-60812358D01*
X110714884Y-60817049D01*
X110704473Y-60842817D01*
X110698693Y-60855158D01*
X110683169Y-60884109D01*
X110681523Y-60888890D01*
X110681521Y-60888894D01*
X110657588Y-60958401D01*
X110655278Y-60964579D01*
X110625845Y-61037429D01*
X110624723Y-61042368D01*
X110618568Y-61069460D01*
X110614837Y-61082559D01*
X110604138Y-61113631D01*
X110590757Y-61191100D01*
X110589477Y-61197504D01*
X110572065Y-61274144D01*
X110570001Y-61306953D01*
X110568415Y-61320453D01*
X110562821Y-61352836D01*
X110561500Y-61381925D01*
X110561500Y-61438108D01*
X110561251Y-61446019D01*
X110556822Y-61516413D01*
X110557316Y-61521448D01*
X110560899Y-61557992D01*
X110561500Y-61570288D01*
X110561500Y-75107507D01*
X110541498Y-75175628D01*
X110487842Y-75222121D01*
X110417568Y-75232225D01*
X110362502Y-75207602D01*
X110361396Y-75209181D01*
X110176711Y-75079864D01*
X110171733Y-75077543D01*
X110171730Y-75077541D01*
X109977358Y-74986904D01*
X109977357Y-74986903D01*
X109972376Y-74984581D01*
X109967068Y-74983159D01*
X109967066Y-74983158D01*
X109759915Y-74927652D01*
X109759913Y-74927652D01*
X109754600Y-74926228D01*
X109530000Y-74906578D01*
X109305400Y-74926228D01*
X109300087Y-74927652D01*
X109300085Y-74927652D01*
X109092934Y-74983158D01*
X109092932Y-74983159D01*
X109087624Y-74984581D01*
X109082643Y-74986903D01*
X109082642Y-74986904D01*
X108888270Y-75077541D01*
X108888267Y-75077543D01*
X108883289Y-75079864D01*
X108698604Y-75209181D01*
X108539181Y-75368604D01*
X108409864Y-75553289D01*
X108407543Y-75558267D01*
X108407541Y-75558270D01*
X108374195Y-75629781D01*
X108327277Y-75683066D01*
X108259000Y-75702527D01*
X108191040Y-75681985D01*
X108145805Y-75629781D01*
X108112459Y-75558270D01*
X108112457Y-75558267D01*
X108110136Y-75553289D01*
X107980819Y-75368604D01*
X107821396Y-75209181D01*
X107636711Y-75079864D01*
X107631733Y-75077543D01*
X107631730Y-75077541D01*
X107437358Y-74986904D01*
X107437357Y-74986903D01*
X107432376Y-74984581D01*
X107427068Y-74983159D01*
X107427066Y-74983158D01*
X107219915Y-74927652D01*
X107219913Y-74927652D01*
X107214600Y-74926228D01*
X106990000Y-74906578D01*
X106765400Y-74926228D01*
X106760087Y-74927652D01*
X106760085Y-74927652D01*
X106552934Y-74983158D01*
X106552932Y-74983159D01*
X106547624Y-74984581D01*
X106542643Y-74986903D01*
X106542642Y-74986904D01*
X106348270Y-75077541D01*
X106348267Y-75077543D01*
X106343289Y-75079864D01*
X106158604Y-75209181D01*
X105999181Y-75368604D01*
X105869864Y-75553289D01*
X105867543Y-75558267D01*
X105867541Y-75558270D01*
X105834195Y-75629781D01*
X105787277Y-75683066D01*
X105719000Y-75702527D01*
X105651040Y-75681985D01*
X105605805Y-75629781D01*
X105572459Y-75558270D01*
X105572457Y-75558267D01*
X105570136Y-75553289D01*
X105440819Y-75368604D01*
X105281396Y-75209181D01*
X105096711Y-75079864D01*
X105091733Y-75077543D01*
X105091730Y-75077541D01*
X104897358Y-74986904D01*
X104897357Y-74986903D01*
X104892376Y-74984581D01*
X104887068Y-74983159D01*
X104887066Y-74983158D01*
X104679915Y-74927652D01*
X104679913Y-74927652D01*
X104674600Y-74926228D01*
X104450000Y-74906578D01*
X104225400Y-74926228D01*
X104220087Y-74927652D01*
X104220085Y-74927652D01*
X104012934Y-74983158D01*
X104012932Y-74983159D01*
X104007624Y-74984581D01*
X104002643Y-74986903D01*
X104002642Y-74986904D01*
X103808270Y-75077541D01*
X103808267Y-75077543D01*
X103803289Y-75079864D01*
X103618604Y-75209181D01*
X103459181Y-75368604D01*
X103329864Y-75553289D01*
X103327543Y-75558267D01*
X103327541Y-75558270D01*
X103294195Y-75629781D01*
X103247277Y-75683066D01*
X103179000Y-75702527D01*
X103111040Y-75681985D01*
X103065805Y-75629781D01*
X103032459Y-75558270D01*
X103032457Y-75558267D01*
X103030136Y-75553289D01*
X102900819Y-75368604D01*
X102741396Y-75209181D01*
X102556711Y-75079864D01*
X102551733Y-75077543D01*
X102551730Y-75077541D01*
X102357358Y-74986904D01*
X102357357Y-74986903D01*
X102352376Y-74984581D01*
X102347068Y-74983159D01*
X102347066Y-74983158D01*
X102139915Y-74927652D01*
X102139913Y-74927652D01*
X102134600Y-74926228D01*
X101910000Y-74906578D01*
X101685400Y-74926228D01*
X101680087Y-74927652D01*
X101680085Y-74927652D01*
X101472934Y-74983158D01*
X101472932Y-74983159D01*
X101467624Y-74984581D01*
X101462643Y-74986903D01*
X101462642Y-74986904D01*
X101268270Y-75077541D01*
X101268267Y-75077543D01*
X101263289Y-75079864D01*
X101078604Y-75209181D01*
X100919181Y-75368604D01*
X100789864Y-75553289D01*
X100787543Y-75558267D01*
X100787541Y-75558270D01*
X100753919Y-75630373D01*
X100707002Y-75683658D01*
X100638724Y-75703119D01*
X100570764Y-75682577D01*
X100525529Y-75630372D01*
X100492030Y-75558531D01*
X100486545Y-75549032D01*
X100453130Y-75501311D01*
X100442653Y-75492936D01*
X100429206Y-75500004D01*
X99742022Y-76187188D01*
X99734408Y-76201132D01*
X99734539Y-76202965D01*
X99738790Y-76209580D01*
X100429927Y-76900717D01*
X100441702Y-76907147D01*
X100453717Y-76897851D01*
X100486545Y-76850968D01*
X100492030Y-76841469D01*
X100525529Y-76769628D01*
X100572445Y-76716343D01*
X100640722Y-76696881D01*
X100708683Y-76717422D01*
X100753919Y-76769627D01*
X100787420Y-76841469D01*
X100789864Y-76846711D01*
X100919181Y-77031396D01*
X101078604Y-77190819D01*
X101263289Y-77320136D01*
X101268267Y-77322457D01*
X101268270Y-77322459D01*
X101324420Y-77348642D01*
X101467624Y-77415419D01*
X101472932Y-77416841D01*
X101472934Y-77416842D01*
X101680085Y-77472348D01*
X101680087Y-77472348D01*
X101685400Y-77473772D01*
X101910000Y-77493422D01*
X102134600Y-77473772D01*
X102139913Y-77472348D01*
X102139915Y-77472348D01*
X102347066Y-77416842D01*
X102347068Y-77416841D01*
X102352376Y-77415419D01*
X102495580Y-77348642D01*
X102551730Y-77322459D01*
X102551733Y-77322457D01*
X102556711Y-77320136D01*
X102741396Y-77190819D01*
X102900819Y-77031396D01*
X103030136Y-76846711D01*
X103032581Y-76841469D01*
X103065805Y-76770219D01*
X103112723Y-76716934D01*
X103181000Y-76697473D01*
X103248960Y-76718015D01*
X103294195Y-76770219D01*
X103327420Y-76841469D01*
X103329864Y-76846711D01*
X103459181Y-77031396D01*
X103618604Y-77190819D01*
X103803289Y-77320136D01*
X103808267Y-77322457D01*
X103808270Y-77322459D01*
X103864420Y-77348642D01*
X104007624Y-77415419D01*
X104012932Y-77416841D01*
X104012934Y-77416842D01*
X104220085Y-77472348D01*
X104220087Y-77472348D01*
X104225400Y-77473772D01*
X104450000Y-77493422D01*
X104674600Y-77473772D01*
X104679913Y-77472348D01*
X104679915Y-77472348D01*
X104887066Y-77416842D01*
X104887068Y-77416841D01*
X104892376Y-77415419D01*
X105035580Y-77348642D01*
X105091730Y-77322459D01*
X105091733Y-77322457D01*
X105096711Y-77320136D01*
X105281396Y-77190819D01*
X105440819Y-77031396D01*
X105570136Y-76846711D01*
X105572581Y-76841469D01*
X105605805Y-76770219D01*
X105652723Y-76716934D01*
X105721000Y-76697473D01*
X105788960Y-76718015D01*
X105834195Y-76770219D01*
X105867420Y-76841469D01*
X105869864Y-76846711D01*
X105999181Y-77031396D01*
X106158604Y-77190819D01*
X106343289Y-77320136D01*
X106348267Y-77322457D01*
X106348270Y-77322459D01*
X106404420Y-77348642D01*
X106547624Y-77415419D01*
X106552932Y-77416841D01*
X106552934Y-77416842D01*
X106760085Y-77472348D01*
X106760087Y-77472348D01*
X106765400Y-77473772D01*
X106990000Y-77493422D01*
X107214600Y-77473772D01*
X107219913Y-77472348D01*
X107219915Y-77472348D01*
X107427066Y-77416842D01*
X107427068Y-77416841D01*
X107432376Y-77415419D01*
X107575580Y-77348642D01*
X107631730Y-77322459D01*
X107631733Y-77322457D01*
X107636711Y-77320136D01*
X107821396Y-77190819D01*
X107980819Y-77031396D01*
X108110136Y-76846711D01*
X108112581Y-76841469D01*
X108145805Y-76770219D01*
X108192723Y-76716934D01*
X108261000Y-76697473D01*
X108328960Y-76718015D01*
X108374195Y-76770219D01*
X108407420Y-76841469D01*
X108409864Y-76846711D01*
X108539181Y-77031396D01*
X108698604Y-77190819D01*
X108883289Y-77320136D01*
X108888267Y-77322457D01*
X108888270Y-77322459D01*
X108944420Y-77348642D01*
X109087624Y-77415419D01*
X109092932Y-77416841D01*
X109092934Y-77416842D01*
X109300085Y-77472348D01*
X109300087Y-77472348D01*
X109305400Y-77473772D01*
X109530000Y-77493422D01*
X109535475Y-77492943D01*
X109736621Y-77475345D01*
X109806226Y-77489334D01*
X109857219Y-77538734D01*
X109873409Y-77607860D01*
X109849657Y-77674765D01*
X109836698Y-77689961D01*
X108372064Y-79154595D01*
X108309752Y-79188621D01*
X108282969Y-79191500D01*
X97124002Y-79191500D01*
X97120483Y-79191451D01*
X97025850Y-79188807D01*
X97025847Y-79188807D01*
X97020795Y-79188666D01*
X96942902Y-79199059D01*
X96936361Y-79199758D01*
X96907668Y-79202067D01*
X96863077Y-79205654D01*
X96863073Y-79205655D01*
X96858035Y-79206060D01*
X96826122Y-79213899D01*
X96812742Y-79216426D01*
X96780180Y-79220771D01*
X96775339Y-79222232D01*
X96775337Y-79222233D01*
X96704971Y-79243478D01*
X96698610Y-79245219D01*
X96622294Y-79263963D01*
X96617634Y-79265941D01*
X96592049Y-79276801D01*
X96579239Y-79281438D01*
X96547792Y-79290933D01*
X96543244Y-79293151D01*
X96543237Y-79293154D01*
X96477182Y-79325371D01*
X96471180Y-79328107D01*
X96426496Y-79347075D01*
X96398844Y-79358812D01*
X96374532Y-79374123D01*
X96371044Y-79376319D01*
X96359140Y-79382945D01*
X96329612Y-79397346D01*
X96325475Y-79400265D01*
X96325474Y-79400265D01*
X96265403Y-79442641D01*
X96259914Y-79446301D01*
X96197714Y-79485471D01*
X96193433Y-79488167D01*
X96189644Y-79491508D01*
X96189638Y-79491512D01*
X96168783Y-79509898D01*
X96158088Y-79518344D01*
X96131253Y-79537274D01*
X96109750Y-79556909D01*
X96070034Y-79596625D01*
X96064264Y-79602044D01*
X96015142Y-79645350D01*
X96015139Y-79645353D01*
X96011345Y-79648698D01*
X96008135Y-79652606D01*
X96008134Y-79652607D01*
X95984821Y-79680989D01*
X95976551Y-79690108D01*
X93692064Y-81974595D01*
X93629752Y-82008621D01*
X93602969Y-82011500D01*
X92631866Y-82011500D01*
X92569684Y-82018255D01*
X92433295Y-82069385D01*
X92316739Y-82156739D01*
X92229385Y-82273295D01*
X92178255Y-82409684D01*
X92171500Y-82471866D01*
X92171500Y-83442969D01*
X92151498Y-83511090D01*
X92134595Y-83532064D01*
X89912064Y-85754595D01*
X89849752Y-85788621D01*
X89822969Y-85791500D01*
X84989425Y-85791500D01*
X84921304Y-85771498D01*
X84874811Y-85717842D01*
X84864707Y-85647568D01*
X84894201Y-85582988D01*
X84908013Y-85569333D01*
X85082582Y-85421550D01*
X85082584Y-85421548D01*
X85086149Y-85418530D01*
X85263382Y-85216434D01*
X85270631Y-85205165D01*
X85406269Y-84994291D01*
X85408797Y-84990361D01*
X85519199Y-84745278D01*
X85556247Y-84613917D01*
X85590893Y-84491072D01*
X85590894Y-84491069D01*
X85592163Y-84486568D01*
X85610043Y-84346019D01*
X85625688Y-84223045D01*
X85625688Y-84223041D01*
X85626086Y-84219915D01*
X85626170Y-84216733D01*
X85627477Y-84166779D01*
X85628571Y-84125000D01*
X85608650Y-83856937D01*
X85607619Y-83852379D01*
X85550361Y-83599331D01*
X85550360Y-83599326D01*
X85549327Y-83594763D01*
X85451902Y-83344238D01*
X85318518Y-83110864D01*
X85271068Y-83050673D01*
X85225332Y-82992658D01*
X85152105Y-82899769D01*
X84956317Y-82715591D01*
X84758407Y-82578295D01*
X84739299Y-82565039D01*
X84739296Y-82565037D01*
X84735457Y-82562374D01*
X84731264Y-82560306D01*
X84498564Y-82445551D01*
X84498561Y-82445550D01*
X84494376Y-82443486D01*
X84448207Y-82428707D01*
X84303746Y-82382465D01*
X84238370Y-82361538D01*
X84233763Y-82360788D01*
X84233760Y-82360787D01*
X84020337Y-82326029D01*
X83973063Y-82318330D01*
X83842719Y-82316624D01*
X83708961Y-82314873D01*
X83708958Y-82314873D01*
X83704284Y-82314812D01*
X83437937Y-82351060D01*
X83433451Y-82352368D01*
X83433449Y-82352368D01*
X83390004Y-82365031D01*
X83179874Y-82426278D01*
X83175621Y-82428238D01*
X83175620Y-82428239D01*
X83174605Y-82428707D01*
X82935763Y-82538815D01*
X82931854Y-82541378D01*
X82714881Y-82683631D01*
X82714876Y-82683635D01*
X82710968Y-82686197D01*
X82707476Y-82689314D01*
X82581004Y-82802195D01*
X82510426Y-82865188D01*
X82338544Y-83071854D01*
X82199096Y-83301656D01*
X82197287Y-83305970D01*
X82197285Y-83305974D01*
X82117954Y-83495159D01*
X82095148Y-83549545D01*
X82028981Y-83810077D01*
X82002050Y-84077526D01*
X82002274Y-84082192D01*
X82002274Y-84082197D01*
X82007550Y-84192022D01*
X82014947Y-84346019D01*
X82067388Y-84609656D01*
X82158220Y-84862646D01*
X82160432Y-84866762D01*
X82160433Y-84866765D01*
X82214459Y-84967312D01*
X82285450Y-85099431D01*
X82288241Y-85103168D01*
X82288245Y-85103175D01*
X82364405Y-85205165D01*
X82446281Y-85314810D01*
X82449590Y-85318090D01*
X82449595Y-85318096D01*
X82628699Y-85495643D01*
X82637180Y-85504050D01*
X82640942Y-85506808D01*
X82640945Y-85506811D01*
X82718789Y-85563888D01*
X82761897Y-85620299D01*
X82767664Y-85691061D01*
X82734259Y-85753707D01*
X82672287Y-85788349D01*
X82644284Y-85791500D01*
X79906947Y-85791500D01*
X79838826Y-85771498D01*
X79792333Y-85717842D01*
X79782229Y-85647568D01*
X79801741Y-85596163D01*
X79817997Y-85571497D01*
X79811935Y-85561145D01*
X78747812Y-84497022D01*
X78733868Y-84489408D01*
X78732035Y-84489539D01*
X78725420Y-84493790D01*
X77661497Y-85557713D01*
X77654839Y-85569906D01*
X77669653Y-85589492D01*
X77694793Y-85655888D01*
X77680046Y-85725336D01*
X77630093Y-85775787D01*
X77569160Y-85791500D01*
X77507031Y-85791500D01*
X77438910Y-85771498D01*
X77417936Y-85754595D01*
X75745552Y-84082211D01*
X76922775Y-84082211D01*
X76935220Y-84341288D01*
X76936356Y-84350543D01*
X76986961Y-84604945D01*
X76989449Y-84613917D01*
X77077095Y-84858033D01*
X77080895Y-84866568D01*
X77203658Y-85095042D01*
X77208666Y-85102904D01*
X77278720Y-85196716D01*
X77289979Y-85205165D01*
X77302397Y-85198393D01*
X78362978Y-84137812D01*
X78369356Y-84126132D01*
X79099408Y-84126132D01*
X79099539Y-84127965D01*
X79103790Y-84134580D01*
X80171094Y-85201884D01*
X80183474Y-85208644D01*
X80191815Y-85202400D01*
X80325832Y-84994048D01*
X80330275Y-84985864D01*
X80436807Y-84749370D01*
X80439997Y-84740605D01*
X80510402Y-84490972D01*
X80512262Y-84481830D01*
X80545187Y-84223019D01*
X80545668Y-84216733D01*
X80547987Y-84128160D01*
X80547836Y-84121851D01*
X80528501Y-83861663D01*
X80527125Y-83852457D01*
X80469878Y-83599467D01*
X80467154Y-83590556D01*
X80373143Y-83348806D01*
X80369132Y-83340397D01*
X80240422Y-83115202D01*
X80235211Y-83107476D01*
X80191996Y-83052658D01*
X80180071Y-83044187D01*
X80168537Y-83050673D01*
X79107022Y-84112188D01*
X79099408Y-84126132D01*
X78369356Y-84126132D01*
X78370592Y-84123868D01*
X78370461Y-84122035D01*
X78366210Y-84115420D01*
X77300816Y-83050026D01*
X77287507Y-83042758D01*
X77277472Y-83049878D01*
X77261937Y-83068556D01*
X77256531Y-83076135D01*
X77121965Y-83297891D01*
X77117736Y-83306192D01*
X77017432Y-83545389D01*
X77014471Y-83554239D01*
X76950628Y-83805625D01*
X76949006Y-83814822D01*
X76923020Y-84072885D01*
X76922775Y-84082211D01*
X75745552Y-84082211D01*
X75500405Y-83837064D01*
X75466379Y-83774752D01*
X75463500Y-83747969D01*
X75463500Y-82776866D01*
X75456745Y-82714684D01*
X75442876Y-82677689D01*
X77652102Y-82677689D01*
X77656675Y-82687465D01*
X78722188Y-83752978D01*
X78736132Y-83760592D01*
X78737965Y-83760461D01*
X78744580Y-83756210D01*
X79809349Y-82691441D01*
X79815733Y-82679751D01*
X79806321Y-82667641D01*
X79659045Y-82565471D01*
X79651010Y-82560738D01*
X79418376Y-82446016D01*
X79409743Y-82442528D01*
X79162703Y-82363450D01*
X79153643Y-82361274D01*
X78897630Y-82319580D01*
X78888343Y-82318768D01*
X78628992Y-82315373D01*
X78619681Y-82315943D01*
X78362682Y-82350919D01*
X78353546Y-82352860D01*
X78104543Y-82425439D01*
X78095800Y-82428707D01*
X77860252Y-82537296D01*
X77852097Y-82541816D01*
X77661240Y-82666947D01*
X77652102Y-82677689D01*
X75442876Y-82677689D01*
X75405615Y-82578295D01*
X75318261Y-82461739D01*
X75201705Y-82374385D01*
X75065316Y-82323255D01*
X75003134Y-82316500D01*
X72306866Y-82316500D01*
X72244684Y-82323255D01*
X72108295Y-82374385D01*
X71991739Y-82461739D01*
X71904385Y-82578295D01*
X71853255Y-82714684D01*
X71846500Y-82776866D01*
X71846500Y-85473134D01*
X66008132Y-85473134D01*
X66002870Y-85469717D01*
X65719564Y-85285736D01*
X65719561Y-85285734D01*
X65716795Y-85283938D01*
X65713861Y-85282443D01*
X65713854Y-85282439D01*
X65373393Y-85108966D01*
X65370453Y-85107468D01*
X65007562Y-84968167D01*
X64632099Y-84867562D01*
X64428207Y-84835268D01*
X64251424Y-84807268D01*
X64251416Y-84807267D01*
X64248176Y-84806754D01*
X63860000Y-84786411D01*
X63471824Y-84806754D01*
X63468584Y-84807267D01*
X63468576Y-84807268D01*
X63291793Y-84835268D01*
X63087901Y-84867562D01*
X62712438Y-84968167D01*
X62349547Y-85107468D01*
X62346607Y-85108966D01*
X62006147Y-85282439D01*
X62006140Y-85282443D01*
X62003206Y-85283938D01*
X62000440Y-85285734D01*
X62000437Y-85285736D01*
X61875755Y-85366705D01*
X61677207Y-85495643D01*
X61580732Y-85573767D01*
X61450916Y-85678891D01*
X61375124Y-85740266D01*
X61100266Y-86015124D01*
X60855643Y-86317207D01*
X60643938Y-86643206D01*
X60467468Y-86989547D01*
X60328167Y-87352438D01*
X60227562Y-87727901D01*
X60166754Y-88111824D01*
X60146411Y-88500000D01*
X59373224Y-88500000D01*
X59369273Y-88472412D01*
X59368000Y-88454549D01*
X59368000Y-78126000D01*
X59388002Y-78057879D01*
X59441658Y-78011386D01*
X59494000Y-78000000D01*
X65360000Y-78000000D01*
X65360000Y-77611345D01*
X65380002Y-77543224D01*
X65433658Y-77496731D01*
X65499608Y-77486082D01*
X65521866Y-77488500D01*
X67178134Y-77488500D01*
X67240316Y-77481745D01*
X67376705Y-77430615D01*
X67493261Y-77343261D01*
X67580615Y-77226705D01*
X67631745Y-77090316D01*
X67637002Y-77041925D01*
X67664244Y-76976363D01*
X67722607Y-76935937D01*
X67793561Y-76933482D01*
X67854579Y-76969777D01*
X67865474Y-76983257D01*
X67899181Y-77031396D01*
X68058604Y-77190819D01*
X68243289Y-77320136D01*
X68248267Y-77322457D01*
X68248270Y-77322459D01*
X68304420Y-77348642D01*
X68447624Y-77415419D01*
X68452932Y-77416841D01*
X68452934Y-77416842D01*
X68660085Y-77472348D01*
X68660087Y-77472348D01*
X68665400Y-77473772D01*
X68890000Y-77493422D01*
X69114600Y-77473772D01*
X69119913Y-77472348D01*
X69119915Y-77472348D01*
X69327066Y-77416842D01*
X69327068Y-77416841D01*
X69332376Y-77415419D01*
X69475580Y-77348642D01*
X69531730Y-77322459D01*
X69531733Y-77322457D01*
X69536711Y-77320136D01*
X69721396Y-77190819D01*
X69880819Y-77031396D01*
X70010136Y-76846711D01*
X70012581Y-76841469D01*
X70045805Y-76770219D01*
X70092723Y-76716934D01*
X70161000Y-76697473D01*
X70228960Y-76718015D01*
X70274195Y-76770219D01*
X70307420Y-76841469D01*
X70309864Y-76846711D01*
X70439181Y-77031396D01*
X70598604Y-77190819D01*
X70783289Y-77320136D01*
X70788267Y-77322457D01*
X70788270Y-77322459D01*
X70844420Y-77348642D01*
X70987624Y-77415419D01*
X70992932Y-77416841D01*
X70992934Y-77416842D01*
X71200085Y-77472348D01*
X71200087Y-77472348D01*
X71205400Y-77473772D01*
X71430000Y-77493422D01*
X71654600Y-77473772D01*
X71659913Y-77472348D01*
X71659915Y-77472348D01*
X71867066Y-77416842D01*
X71867068Y-77416841D01*
X71872376Y-77415419D01*
X72015580Y-77348642D01*
X72071730Y-77322459D01*
X72071733Y-77322457D01*
X72076711Y-77320136D01*
X72261396Y-77190819D01*
X72420819Y-77031396D01*
X72550136Y-76846711D01*
X72552581Y-76841469D01*
X72585805Y-76770219D01*
X72632723Y-76716934D01*
X72701000Y-76697473D01*
X72768960Y-76718015D01*
X72814195Y-76770219D01*
X72847420Y-76841469D01*
X72849864Y-76846711D01*
X72979181Y-77031396D01*
X73138604Y-77190819D01*
X73323289Y-77320136D01*
X73328267Y-77322457D01*
X73328270Y-77322459D01*
X73384420Y-77348642D01*
X73527624Y-77415419D01*
X73532932Y-77416841D01*
X73532934Y-77416842D01*
X73740085Y-77472348D01*
X73740087Y-77472348D01*
X73745400Y-77473772D01*
X73970000Y-77493422D01*
X74194600Y-77473772D01*
X74199913Y-77472348D01*
X74199915Y-77472348D01*
X74407066Y-77416842D01*
X74407068Y-77416841D01*
X74412376Y-77415419D01*
X74555580Y-77348642D01*
X74611730Y-77322459D01*
X74611733Y-77322457D01*
X74616711Y-77320136D01*
X74801396Y-77190819D01*
X74960819Y-77031396D01*
X75090136Y-76846711D01*
X75092581Y-76841469D01*
X75125805Y-76770219D01*
X75172723Y-76716934D01*
X75241000Y-76697473D01*
X75308960Y-76718015D01*
X75354195Y-76770219D01*
X75387420Y-76841469D01*
X75389864Y-76846711D01*
X75519181Y-77031396D01*
X75678604Y-77190819D01*
X75863289Y-77320136D01*
X75868267Y-77322457D01*
X75868270Y-77322459D01*
X75924420Y-77348642D01*
X76067624Y-77415419D01*
X76072932Y-77416841D01*
X76072934Y-77416842D01*
X76280085Y-77472348D01*
X76280087Y-77472348D01*
X76285400Y-77473772D01*
X76510000Y-77493422D01*
X76734600Y-77473772D01*
X76739913Y-77472348D01*
X76739915Y-77472348D01*
X76947066Y-77416842D01*
X76947068Y-77416841D01*
X76952376Y-77415419D01*
X77095580Y-77348642D01*
X77151730Y-77322459D01*
X77151733Y-77322457D01*
X77156711Y-77320136D01*
X77341396Y-77190819D01*
X77500819Y-77031396D01*
X77630136Y-76846711D01*
X77632581Y-76841469D01*
X77665805Y-76770219D01*
X77712723Y-76716934D01*
X77781000Y-76697473D01*
X77848960Y-76718015D01*
X77894195Y-76770219D01*
X77927420Y-76841469D01*
X77929864Y-76846711D01*
X78059181Y-77031396D01*
X78218604Y-77190819D01*
X78403289Y-77320136D01*
X78408267Y-77322457D01*
X78408270Y-77322459D01*
X78464420Y-77348642D01*
X78607624Y-77415419D01*
X78612932Y-77416841D01*
X78612934Y-77416842D01*
X78820085Y-77472348D01*
X78820087Y-77472348D01*
X78825400Y-77473772D01*
X79050000Y-77493422D01*
X79274600Y-77473772D01*
X79279913Y-77472348D01*
X79279915Y-77472348D01*
X79487066Y-77416842D01*
X79487068Y-77416841D01*
X79492376Y-77415419D01*
X79635580Y-77348642D01*
X79691730Y-77322459D01*
X79691733Y-77322457D01*
X79696711Y-77320136D01*
X79881396Y-77190819D01*
X80040819Y-77031396D01*
X80170136Y-76846711D01*
X80172581Y-76841469D01*
X80205805Y-76770219D01*
X80252723Y-76716934D01*
X80321000Y-76697473D01*
X80388960Y-76718015D01*
X80434195Y-76770219D01*
X80467420Y-76841469D01*
X80469864Y-76846711D01*
X80599181Y-77031396D01*
X80758604Y-77190819D01*
X80943289Y-77320136D01*
X80948267Y-77322457D01*
X80948270Y-77322459D01*
X81004420Y-77348642D01*
X81147624Y-77415419D01*
X81152932Y-77416841D01*
X81152934Y-77416842D01*
X81360085Y-77472348D01*
X81360087Y-77472348D01*
X81365400Y-77473772D01*
X81590000Y-77493422D01*
X81814600Y-77473772D01*
X81819913Y-77472348D01*
X81819915Y-77472348D01*
X82027066Y-77416842D01*
X82027068Y-77416841D01*
X82032376Y-77415419D01*
X82175580Y-77348642D01*
X82231730Y-77322459D01*
X82231733Y-77322457D01*
X82236711Y-77320136D01*
X82421396Y-77190819D01*
X82580819Y-77031396D01*
X82710136Y-76846711D01*
X82712581Y-76841469D01*
X82745805Y-76770219D01*
X82792723Y-76716934D01*
X82861000Y-76697473D01*
X82928960Y-76718015D01*
X82974195Y-76770219D01*
X83007420Y-76841469D01*
X83009864Y-76846711D01*
X83139181Y-77031396D01*
X83298604Y-77190819D01*
X83483289Y-77320136D01*
X83488267Y-77322457D01*
X83488270Y-77322459D01*
X83544420Y-77348642D01*
X83687624Y-77415419D01*
X83692932Y-77416841D01*
X83692934Y-77416842D01*
X83900085Y-77472348D01*
X83900087Y-77472348D01*
X83905400Y-77473772D01*
X84130000Y-77493422D01*
X84354600Y-77473772D01*
X84359913Y-77472348D01*
X84359915Y-77472348D01*
X84567066Y-77416842D01*
X84567068Y-77416841D01*
X84572376Y-77415419D01*
X84715580Y-77348642D01*
X84771730Y-77322459D01*
X84771733Y-77322457D01*
X84776711Y-77320136D01*
X84961396Y-77190819D01*
X85120819Y-77031396D01*
X85250136Y-76846711D01*
X85252581Y-76841469D01*
X85285805Y-76770219D01*
X85332723Y-76716934D01*
X85401000Y-76697473D01*
X85468960Y-76718015D01*
X85514195Y-76770219D01*
X85547420Y-76841469D01*
X85549864Y-76846711D01*
X85679181Y-77031396D01*
X85838604Y-77190819D01*
X86023289Y-77320136D01*
X86028267Y-77322457D01*
X86028270Y-77322459D01*
X86084420Y-77348642D01*
X86227624Y-77415419D01*
X86232932Y-77416841D01*
X86232934Y-77416842D01*
X86440085Y-77472348D01*
X86440087Y-77472348D01*
X86445400Y-77473772D01*
X86670000Y-77493422D01*
X86894600Y-77473772D01*
X86899913Y-77472348D01*
X86899915Y-77472348D01*
X87107066Y-77416842D01*
X87107068Y-77416841D01*
X87112376Y-77415419D01*
X87255580Y-77348642D01*
X87311730Y-77322459D01*
X87311733Y-77322457D01*
X87316711Y-77320136D01*
X87501396Y-77190819D01*
X87660819Y-77031396D01*
X87790136Y-76846711D01*
X87792581Y-76841469D01*
X87825805Y-76770219D01*
X87872723Y-76716934D01*
X87941000Y-76697473D01*
X88008960Y-76718015D01*
X88054195Y-76770219D01*
X88087420Y-76841469D01*
X88089864Y-76846711D01*
X88219181Y-77031396D01*
X88378604Y-77190819D01*
X88563289Y-77320136D01*
X88568267Y-77322457D01*
X88568270Y-77322459D01*
X88624420Y-77348642D01*
X88767624Y-77415419D01*
X88772932Y-77416841D01*
X88772934Y-77416842D01*
X88980085Y-77472348D01*
X88980087Y-77472348D01*
X88985400Y-77473772D01*
X89210000Y-77493422D01*
X89434600Y-77473772D01*
X89439913Y-77472348D01*
X89439915Y-77472348D01*
X89647066Y-77416842D01*
X89647068Y-77416841D01*
X89652376Y-77415419D01*
X89795580Y-77348642D01*
X89851730Y-77322459D01*
X89851733Y-77322457D01*
X89856711Y-77320136D01*
X90041396Y-77190819D01*
X90200819Y-77031396D01*
X90330136Y-76846711D01*
X90332581Y-76841469D01*
X90365805Y-76770219D01*
X90412723Y-76716934D01*
X90481000Y-76697473D01*
X90548960Y-76718015D01*
X90594195Y-76770219D01*
X90627420Y-76841469D01*
X90629864Y-76846711D01*
X90759181Y-77031396D01*
X90918604Y-77190819D01*
X91103289Y-77320136D01*
X91108267Y-77322457D01*
X91108270Y-77322459D01*
X91164420Y-77348642D01*
X91307624Y-77415419D01*
X91312932Y-77416841D01*
X91312934Y-77416842D01*
X91520085Y-77472348D01*
X91520087Y-77472348D01*
X91525400Y-77473772D01*
X91750000Y-77493422D01*
X91974600Y-77473772D01*
X91979913Y-77472348D01*
X91979915Y-77472348D01*
X92187066Y-77416842D01*
X92187068Y-77416841D01*
X92192376Y-77415419D01*
X92335580Y-77348642D01*
X92391730Y-77322459D01*
X92391733Y-77322457D01*
X92396711Y-77320136D01*
X92581396Y-77190819D01*
X92740819Y-77031396D01*
X92870136Y-76846711D01*
X92872581Y-76841469D01*
X92905805Y-76770219D01*
X92952723Y-76716934D01*
X93021000Y-76697473D01*
X93088960Y-76718015D01*
X93134195Y-76770219D01*
X93167420Y-76841469D01*
X93169864Y-76846711D01*
X93299181Y-77031396D01*
X93458604Y-77190819D01*
X93643289Y-77320136D01*
X93648267Y-77322457D01*
X93648270Y-77322459D01*
X93704420Y-77348642D01*
X93847624Y-77415419D01*
X93852932Y-77416841D01*
X93852934Y-77416842D01*
X94060085Y-77472348D01*
X94060087Y-77472348D01*
X94065400Y-77473772D01*
X94290000Y-77493422D01*
X94514600Y-77473772D01*
X94519913Y-77472348D01*
X94519915Y-77472348D01*
X94727066Y-77416842D01*
X94727068Y-77416841D01*
X94732376Y-77415419D01*
X94875580Y-77348642D01*
X94931730Y-77322459D01*
X94931733Y-77322457D01*
X94936711Y-77320136D01*
X95121396Y-77190819D01*
X95280819Y-77031396D01*
X95410136Y-76846711D01*
X95412581Y-76841469D01*
X95445805Y-76770219D01*
X95492723Y-76716934D01*
X95561000Y-76697473D01*
X95628960Y-76718015D01*
X95674195Y-76770219D01*
X95707420Y-76841469D01*
X95709864Y-76846711D01*
X95839181Y-77031396D01*
X95998604Y-77190819D01*
X96183289Y-77320136D01*
X96188267Y-77322457D01*
X96188270Y-77322459D01*
X96244420Y-77348642D01*
X96387624Y-77415419D01*
X96392932Y-77416841D01*
X96392934Y-77416842D01*
X96600085Y-77472348D01*
X96600087Y-77472348D01*
X96605400Y-77473772D01*
X96830000Y-77493422D01*
X97054600Y-77473772D01*
X97059913Y-77472348D01*
X97059915Y-77472348D01*
X97267066Y-77416842D01*
X97267068Y-77416841D01*
X97272376Y-77415419D01*
X97415580Y-77348642D01*
X97471730Y-77322459D01*
X97471733Y-77322457D01*
X97476711Y-77320136D01*
X97545882Y-77271702D01*
X98662853Y-77271702D01*
X98672149Y-77283717D01*
X98719032Y-77316545D01*
X98728527Y-77322028D01*
X98922810Y-77412622D01*
X98933106Y-77416370D01*
X99140177Y-77471855D01*
X99150964Y-77473757D01*
X99364525Y-77492441D01*
X99375475Y-77492441D01*
X99589036Y-77473757D01*
X99599823Y-77471855D01*
X99806894Y-77416370D01*
X99817190Y-77412622D01*
X100011473Y-77322028D01*
X100020968Y-77316545D01*
X100068689Y-77283130D01*
X100077064Y-77272653D01*
X100069996Y-77259206D01*
X99382812Y-76572022D01*
X99368868Y-76564408D01*
X99367035Y-76564539D01*
X99360420Y-76568790D01*
X98669283Y-77259927D01*
X98662853Y-77271702D01*
X97545882Y-77271702D01*
X97661396Y-77190819D01*
X97820819Y-77031396D01*
X97950136Y-76846711D01*
X97952581Y-76841469D01*
X97986081Y-76769627D01*
X98032998Y-76716342D01*
X98101276Y-76696881D01*
X98169236Y-76717423D01*
X98214471Y-76769628D01*
X98247970Y-76841469D01*
X98253455Y-76850968D01*
X98286870Y-76898689D01*
X98297347Y-76907064D01*
X98310794Y-76899996D01*
X98997978Y-76212812D01*
X99005592Y-76198868D01*
X99005461Y-76197035D01*
X99001210Y-76190420D01*
X98310073Y-75499283D01*
X98298298Y-75492853D01*
X98286283Y-75502149D01*
X98253455Y-75549032D01*
X98247970Y-75558531D01*
X98214471Y-75630372D01*
X98167555Y-75683657D01*
X98099278Y-75703119D01*
X98031317Y-75682578D01*
X97986081Y-75630373D01*
X97952459Y-75558270D01*
X97952457Y-75558267D01*
X97950136Y-75553289D01*
X97820819Y-75368604D01*
X97661396Y-75209181D01*
X97544524Y-75127347D01*
X98662936Y-75127347D01*
X98670004Y-75140794D01*
X99357188Y-75827978D01*
X99371132Y-75835592D01*
X99372965Y-75835461D01*
X99379580Y-75831210D01*
X100070717Y-75140073D01*
X100077147Y-75128298D01*
X100067851Y-75116283D01*
X100020968Y-75083455D01*
X100011473Y-75077972D01*
X99817190Y-74987378D01*
X99806894Y-74983630D01*
X99599823Y-74928145D01*
X99589036Y-74926243D01*
X99375475Y-74907559D01*
X99364525Y-74907559D01*
X99150964Y-74926243D01*
X99140177Y-74928145D01*
X98933106Y-74983630D01*
X98922810Y-74987378D01*
X98728527Y-75077972D01*
X98719032Y-75083455D01*
X98671311Y-75116870D01*
X98662936Y-75127347D01*
X97544524Y-75127347D01*
X97476711Y-75079864D01*
X97471733Y-75077543D01*
X97471730Y-75077541D01*
X97277358Y-74986904D01*
X97277357Y-74986903D01*
X97272376Y-74984581D01*
X97267068Y-74983159D01*
X97267066Y-74983158D01*
X97059915Y-74927652D01*
X97059913Y-74927652D01*
X97054600Y-74926228D01*
X96830000Y-74906578D01*
X96605400Y-74926228D01*
X96600087Y-74927652D01*
X96600085Y-74927652D01*
X96392934Y-74983158D01*
X96392932Y-74983159D01*
X96387624Y-74984581D01*
X96382643Y-74986903D01*
X96382642Y-74986904D01*
X96188270Y-75077541D01*
X96188267Y-75077543D01*
X96183289Y-75079864D01*
X95998604Y-75209181D01*
X95839181Y-75368604D01*
X95709864Y-75553289D01*
X95707543Y-75558267D01*
X95707541Y-75558270D01*
X95674195Y-75629781D01*
X95627277Y-75683066D01*
X95559000Y-75702527D01*
X95491040Y-75681985D01*
X95445805Y-75629781D01*
X95412459Y-75558270D01*
X95412457Y-75558267D01*
X95410136Y-75553289D01*
X95280819Y-75368604D01*
X95121396Y-75209181D01*
X94936711Y-75079864D01*
X94931733Y-75077543D01*
X94931730Y-75077541D01*
X94737358Y-74986904D01*
X94737357Y-74986903D01*
X94732376Y-74984581D01*
X94727068Y-74983159D01*
X94727066Y-74983158D01*
X94519915Y-74927652D01*
X94519913Y-74927652D01*
X94514600Y-74926228D01*
X94290000Y-74906578D01*
X94065400Y-74926228D01*
X94060087Y-74927652D01*
X94060085Y-74927652D01*
X93852934Y-74983158D01*
X93852932Y-74983159D01*
X93847624Y-74984581D01*
X93842643Y-74986903D01*
X93842642Y-74986904D01*
X93648270Y-75077541D01*
X93648267Y-75077543D01*
X93643289Y-75079864D01*
X93458604Y-75209181D01*
X93299181Y-75368604D01*
X93169864Y-75553289D01*
X93167543Y-75558267D01*
X93167541Y-75558270D01*
X93134195Y-75629781D01*
X93087277Y-75683066D01*
X93019000Y-75702527D01*
X92951040Y-75681985D01*
X92905805Y-75629781D01*
X92872459Y-75558270D01*
X92872457Y-75558267D01*
X92870136Y-75553289D01*
X92740819Y-75368604D01*
X92581396Y-75209181D01*
X92396711Y-75079864D01*
X92391733Y-75077543D01*
X92391730Y-75077541D01*
X92197358Y-74986904D01*
X92197357Y-74986903D01*
X92192376Y-74984581D01*
X92187068Y-74983159D01*
X92187066Y-74983158D01*
X91979915Y-74927652D01*
X91979913Y-74927652D01*
X91974600Y-74926228D01*
X91867021Y-74916816D01*
X91859272Y-74916138D01*
X91793154Y-74890274D01*
X91751515Y-74832771D01*
X91747574Y-74761884D01*
X91781159Y-74701522D01*
X92518911Y-73963770D01*
X92533323Y-73951384D01*
X92544918Y-73942851D01*
X92544923Y-73942846D01*
X92550818Y-73938508D01*
X92555557Y-73932930D01*
X92555560Y-73932927D01*
X92585035Y-73898232D01*
X92591965Y-73890716D01*
X92597660Y-73885021D01*
X92615281Y-73862749D01*
X92618072Y-73859345D01*
X92660591Y-73809297D01*
X92660592Y-73809295D01*
X92665333Y-73803715D01*
X92668661Y-73797199D01*
X92672028Y-73792150D01*
X92675195Y-73787021D01*
X92679734Y-73781284D01*
X92710655Y-73715125D01*
X92712561Y-73711225D01*
X92745769Y-73646192D01*
X92747508Y-73639084D01*
X92749607Y-73633441D01*
X92751524Y-73627678D01*
X92754622Y-73621050D01*
X92769487Y-73549583D01*
X92770457Y-73545299D01*
X92781826Y-73498838D01*
X92787808Y-73474390D01*
X92788500Y-73463236D01*
X92788536Y-73463238D01*
X92788775Y-73459245D01*
X92789149Y-73455053D01*
X92790640Y-73447885D01*
X92788546Y-73370479D01*
X92788500Y-73367072D01*
X92788500Y-70948519D01*
X92808502Y-70880398D01*
X92862158Y-70833905D01*
X92932432Y-70823801D01*
X92949652Y-70827522D01*
X93039989Y-70853767D01*
X93039993Y-70853768D01*
X93046169Y-70855562D01*
X93052574Y-70856066D01*
X93052579Y-70856067D01*
X93081042Y-70858307D01*
X93081050Y-70858307D01*
X93083498Y-70858500D01*
X93516502Y-70858500D01*
X93518950Y-70858307D01*
X93518958Y-70858307D01*
X93547421Y-70856067D01*
X93547426Y-70856066D01*
X93553831Y-70855562D01*
X93663154Y-70823801D01*
X93705988Y-70811357D01*
X93705990Y-70811356D01*
X93713601Y-70809145D01*
X93856807Y-70724453D01*
X93859747Y-70721513D01*
X93924271Y-70696179D01*
X93993894Y-70710080D01*
X94012640Y-70722129D01*
X94020323Y-70728089D01*
X94149779Y-70804648D01*
X94164210Y-70810893D01*
X94298605Y-70849939D01*
X94312706Y-70849899D01*
X94316000Y-70842630D01*
X94316000Y-70836878D01*
X94824000Y-70836878D01*
X94827973Y-70850409D01*
X94835871Y-70851544D01*
X94975790Y-70810893D01*
X94990221Y-70804648D01*
X95119678Y-70728089D01*
X95132104Y-70718449D01*
X95238449Y-70612104D01*
X95248089Y-70599678D01*
X95324648Y-70470221D01*
X95330893Y-70455790D01*
X95373269Y-70309935D01*
X95375570Y-70297333D01*
X95377807Y-70268916D01*
X95378000Y-70263986D01*
X95378000Y-69647115D01*
X95373525Y-69631876D01*
X95372135Y-69630671D01*
X95364452Y-69629000D01*
X94842115Y-69629000D01*
X94826876Y-69633475D01*
X94825671Y-69634865D01*
X94824000Y-69642548D01*
X94824000Y-70836878D01*
X94316000Y-70836878D01*
X94316000Y-69247000D01*
X94336002Y-69178879D01*
X94389658Y-69132386D01*
X94442000Y-69121000D01*
X95359884Y-69121000D01*
X95375123Y-69116525D01*
X95376328Y-69115135D01*
X95377999Y-69107452D01*
X95377999Y-68486017D01*
X95377805Y-68481080D01*
X95375570Y-68452664D01*
X95373269Y-68440066D01*
X95369770Y-68428023D01*
X95369971Y-68357027D01*
X95408523Y-68297410D01*
X95473187Y-68268099D01*
X95523377Y-68271160D01*
X95601598Y-68292119D01*
X95601600Y-68292119D01*
X95606913Y-68293543D01*
X95835000Y-68313498D01*
X96063087Y-68293543D01*
X96068400Y-68292119D01*
X96068402Y-68292119D01*
X96278933Y-68235707D01*
X96278935Y-68235706D01*
X96284243Y-68234284D01*
X96291914Y-68230707D01*
X96486762Y-68139849D01*
X96486767Y-68139846D01*
X96491749Y-68137523D01*
X96633805Y-68038054D01*
X96674789Y-68009357D01*
X96674792Y-68009355D01*
X96679300Y-68006198D01*
X96841198Y-67844300D01*
X96845442Y-67838240D01*
X96900240Y-67759979D01*
X96972523Y-67656749D01*
X96974846Y-67651767D01*
X96974849Y-67651762D01*
X96991081Y-67616951D01*
X97037998Y-67563666D01*
X97106275Y-67544205D01*
X97174235Y-67564747D01*
X97219471Y-67616951D01*
X97235586Y-67651511D01*
X97241069Y-67661007D01*
X97366028Y-67839467D01*
X97373084Y-67847875D01*
X97527125Y-68001916D01*
X97535533Y-68008972D01*
X97713993Y-68133931D01*
X97723489Y-68139414D01*
X97920947Y-68231490D01*
X97931239Y-68235236D01*
X98103503Y-68281394D01*
X98117599Y-68281058D01*
X98121000Y-68273116D01*
X98121000Y-68267967D01*
X98629000Y-68267967D01*
X98632973Y-68281498D01*
X98641522Y-68282727D01*
X98818761Y-68235236D01*
X98829053Y-68231490D01*
X99026511Y-68139414D01*
X99036007Y-68133931D01*
X99214467Y-68008972D01*
X99222875Y-68001916D01*
X99376916Y-67847875D01*
X99383972Y-67839467D01*
X99508931Y-67661007D01*
X99514414Y-67651511D01*
X99606490Y-67454053D01*
X99610236Y-67443761D01*
X99656394Y-67271497D01*
X99656058Y-67257401D01*
X99648116Y-67254000D01*
X98647115Y-67254000D01*
X98631876Y-67258475D01*
X98630671Y-67259865D01*
X98629000Y-67267548D01*
X98629000Y-68267967D01*
X98121000Y-68267967D01*
X98121000Y-66727885D01*
X98629000Y-66727885D01*
X98633475Y-66743124D01*
X98634865Y-66744329D01*
X98642548Y-66746000D01*
X99642967Y-66746000D01*
X99656498Y-66742027D01*
X99657727Y-66733478D01*
X99610236Y-66556239D01*
X99606490Y-66545947D01*
X99514414Y-66348489D01*
X99508931Y-66338993D01*
X99383972Y-66160533D01*
X99376916Y-66152125D01*
X99222875Y-65998084D01*
X99214467Y-65991028D01*
X99036007Y-65866069D01*
X99026511Y-65860586D01*
X98829053Y-65768510D01*
X98818761Y-65764764D01*
X98646497Y-65718606D01*
X98632401Y-65718942D01*
X98629000Y-65726884D01*
X98629000Y-66727885D01*
X98121000Y-66727885D01*
X98121000Y-65732033D01*
X98117027Y-65718502D01*
X98108478Y-65717273D01*
X97931239Y-65764764D01*
X97920947Y-65768510D01*
X97723489Y-65860586D01*
X97713993Y-65866069D01*
X97535533Y-65991028D01*
X97527125Y-65998084D01*
X97373084Y-66152125D01*
X97366028Y-66160533D01*
X97241069Y-66338993D01*
X97235586Y-66348489D01*
X97219471Y-66383049D01*
X97172554Y-66436334D01*
X97104277Y-66455795D01*
X97036317Y-66435253D01*
X96991081Y-66383049D01*
X96974849Y-66348238D01*
X96974846Y-66348233D01*
X96972523Y-66343251D01*
X96899098Y-66238389D01*
X96844357Y-66160211D01*
X96844355Y-66160208D01*
X96841198Y-66155700D01*
X96679300Y-65993802D01*
X96674792Y-65990645D01*
X96674789Y-65990643D01*
X96586042Y-65928502D01*
X96491749Y-65862477D01*
X96486767Y-65860154D01*
X96486762Y-65860151D01*
X96289225Y-65768039D01*
X96289224Y-65768039D01*
X96284243Y-65765716D01*
X96278935Y-65764294D01*
X96278933Y-65764293D01*
X96068402Y-65707881D01*
X96068400Y-65707881D01*
X96063087Y-65706457D01*
X95835000Y-65686502D01*
X95606913Y-65706457D01*
X95439539Y-65751305D01*
X95368564Y-65749615D01*
X95309768Y-65709821D01*
X95281820Y-65644557D01*
X95293593Y-65574543D01*
X95298468Y-65565472D01*
X95329145Y-65513601D01*
X95375562Y-65353831D01*
X95378500Y-65316502D01*
X95378500Y-64006371D01*
X95398502Y-63938250D01*
X95415405Y-63917276D01*
X98655780Y-60676901D01*
X98712264Y-60644289D01*
X98818929Y-60615708D01*
X98818932Y-60615707D01*
X98824243Y-60614284D01*
X98984068Y-60539757D01*
X99026762Y-60519849D01*
X99026767Y-60519846D01*
X99031749Y-60517523D01*
X99209740Y-60392892D01*
X99214789Y-60389357D01*
X99214792Y-60389355D01*
X99219300Y-60386198D01*
X99381198Y-60224300D01*
X99512523Y-60036749D01*
X99514846Y-60031767D01*
X99514849Y-60031762D01*
X99606961Y-59834225D01*
X99606961Y-59834224D01*
X99609284Y-59829243D01*
X99664651Y-59622614D01*
X99667119Y-59613402D01*
X99667119Y-59613400D01*
X99668543Y-59608087D01*
X99688498Y-59380000D01*
X99668543Y-59151913D01*
X99666959Y-59146002D01*
X99610707Y-58936067D01*
X99610706Y-58936065D01*
X99609284Y-58930757D01*
X99540691Y-58783658D01*
X99514849Y-58728238D01*
X99514846Y-58728233D01*
X99512523Y-58723251D01*
X99418616Y-58589138D01*
X99384357Y-58540211D01*
X99384355Y-58540208D01*
X99381198Y-58535700D01*
X99219300Y-58373802D01*
X99214792Y-58370645D01*
X99214789Y-58370643D01*
X99108030Y-58295890D01*
X99031749Y-58242477D01*
X99026767Y-58240154D01*
X99026762Y-58240151D01*
X98829225Y-58148039D01*
X98829224Y-58148039D01*
X98824243Y-58145716D01*
X98818935Y-58144294D01*
X98818933Y-58144293D01*
X98608402Y-58087881D01*
X98608400Y-58087881D01*
X98603087Y-58086457D01*
X98375000Y-58066502D01*
X98146913Y-58086457D01*
X98141600Y-58087881D01*
X98141598Y-58087881D01*
X97931067Y-58144293D01*
X97931065Y-58144294D01*
X97925757Y-58145716D01*
X97920776Y-58148039D01*
X97920775Y-58148039D01*
X97723238Y-58240151D01*
X97723233Y-58240154D01*
X97718251Y-58242477D01*
X97641970Y-58295890D01*
X97535211Y-58370643D01*
X97535208Y-58370645D01*
X97530700Y-58373802D01*
X97368802Y-58535700D01*
X97365645Y-58540208D01*
X97365643Y-58540211D01*
X97331384Y-58589138D01*
X97237477Y-58723251D01*
X97235154Y-58728233D01*
X97235151Y-58728238D01*
X97219195Y-58762457D01*
X97172278Y-58815742D01*
X97104001Y-58835203D01*
X97036041Y-58814661D01*
X96990805Y-58762457D01*
X96974849Y-58728238D01*
X96974846Y-58728233D01*
X96972523Y-58723251D01*
X96878616Y-58589138D01*
X96844357Y-58540211D01*
X96844355Y-58540208D01*
X96841198Y-58535700D01*
X96679300Y-58373802D01*
X96674792Y-58370645D01*
X96674789Y-58370643D01*
X96568030Y-58295890D01*
X96491749Y-58242477D01*
X96486767Y-58240154D01*
X96486762Y-58240151D01*
X96289225Y-58148039D01*
X96289224Y-58148039D01*
X96284243Y-58145716D01*
X96278935Y-58144294D01*
X96278933Y-58144293D01*
X96068402Y-58087881D01*
X96068400Y-58087881D01*
X96063087Y-58086457D01*
X95835000Y-58066502D01*
X95606913Y-58086457D01*
X95601600Y-58087881D01*
X95601598Y-58087881D01*
X95530679Y-58106884D01*
X95385757Y-58145716D01*
X95382321Y-58147318D01*
X95311993Y-58151787D01*
X95250659Y-58117978D01*
X89408984Y-52276303D01*
X89374958Y-52213991D01*
X89380023Y-52143176D01*
X89422570Y-52086340D01*
X89465468Y-52065501D01*
X89647066Y-52016842D01*
X89647068Y-52016841D01*
X89652376Y-52015419D01*
X89658374Y-52012622D01*
X89851730Y-51922459D01*
X89851733Y-51922457D01*
X89856711Y-51920136D01*
X90041396Y-51790819D01*
X90200819Y-51631396D01*
X90330136Y-51446711D01*
X90332581Y-51441469D01*
X90365805Y-51370219D01*
X90412723Y-51316934D01*
X90481000Y-51297473D01*
X90548960Y-51318015D01*
X90594195Y-51370219D01*
X90627420Y-51441469D01*
X90629864Y-51446711D01*
X90759181Y-51631396D01*
X90918604Y-51790819D01*
X91103289Y-51920136D01*
X91108267Y-51922457D01*
X91108270Y-51922459D01*
X91301626Y-52012622D01*
X91307624Y-52015419D01*
X91312932Y-52016841D01*
X91312934Y-52016842D01*
X91520085Y-52072348D01*
X91520087Y-52072348D01*
X91525400Y-52073772D01*
X91750000Y-52093422D01*
X91974600Y-52073772D01*
X91979913Y-52072348D01*
X91979915Y-52072348D01*
X92187066Y-52016842D01*
X92187068Y-52016841D01*
X92192376Y-52015419D01*
X92198374Y-52012622D01*
X92391730Y-51922459D01*
X92391733Y-51922457D01*
X92396711Y-51920136D01*
X92581396Y-51790819D01*
X92740819Y-51631396D01*
X92870136Y-51446711D01*
X92872581Y-51441469D01*
X92905805Y-51370219D01*
X92952723Y-51316934D01*
X93021000Y-51297473D01*
X93088960Y-51318015D01*
X93134195Y-51370219D01*
X93167420Y-51441469D01*
X93169864Y-51446711D01*
X93299181Y-51631396D01*
X93458604Y-51790819D01*
X93643289Y-51920136D01*
X93648267Y-51922457D01*
X93648270Y-51922459D01*
X93841626Y-52012622D01*
X93847624Y-52015419D01*
X93852932Y-52016841D01*
X93852934Y-52016842D01*
X94060085Y-52072348D01*
X94060087Y-52072348D01*
X94065400Y-52073772D01*
X94290000Y-52093422D01*
X94514600Y-52073772D01*
X94519913Y-52072348D01*
X94519915Y-52072348D01*
X94727066Y-52016842D01*
X94727068Y-52016841D01*
X94732376Y-52015419D01*
X94738374Y-52012622D01*
X94931730Y-51922459D01*
X94931733Y-51922457D01*
X94936711Y-51920136D01*
X95121396Y-51790819D01*
X95280819Y-51631396D01*
X95410136Y-51446711D01*
X95412581Y-51441469D01*
X95445805Y-51370219D01*
X95492723Y-51316934D01*
X95561000Y-51297473D01*
X95628960Y-51318015D01*
X95674195Y-51370219D01*
X95707420Y-51441469D01*
X95709864Y-51446711D01*
X95839181Y-51631396D01*
X95998604Y-51790819D01*
X96183289Y-51920136D01*
X96188267Y-51922457D01*
X96188270Y-51922459D01*
X96381626Y-52012622D01*
X96387624Y-52015419D01*
X96392932Y-52016841D01*
X96392934Y-52016842D01*
X96600085Y-52072348D01*
X96600087Y-52072348D01*
X96605400Y-52073772D01*
X96830000Y-52093422D01*
X97054600Y-52073772D01*
X97059913Y-52072348D01*
X97059915Y-52072348D01*
X97267066Y-52016842D01*
X97267068Y-52016841D01*
X97272376Y-52015419D01*
X97278374Y-52012622D01*
X97471730Y-51922459D01*
X97471733Y-51922457D01*
X97476711Y-51920136D01*
X97661396Y-51790819D01*
X97820819Y-51631396D01*
X97950136Y-51446711D01*
X97952581Y-51441469D01*
X97985805Y-51370219D01*
X98032723Y-51316934D01*
X98101000Y-51297473D01*
X98168960Y-51318015D01*
X98214195Y-51370219D01*
X98247420Y-51441469D01*
X98249864Y-51446711D01*
X98379181Y-51631396D01*
X98538604Y-51790819D01*
X98723289Y-51920136D01*
X98728267Y-51922457D01*
X98728270Y-51922459D01*
X98921626Y-52012622D01*
X98927624Y-52015419D01*
X98932932Y-52016841D01*
X98932934Y-52016842D01*
X99140085Y-52072348D01*
X99140087Y-52072348D01*
X99145400Y-52073772D01*
X99370000Y-52093422D01*
X99594600Y-52073772D01*
X99599913Y-52072348D01*
X99599915Y-52072348D01*
X99807066Y-52016842D01*
X99807068Y-52016841D01*
X99812376Y-52015419D01*
X99818374Y-52012622D01*
X100011730Y-51922459D01*
X100011733Y-51922457D01*
X100016711Y-51920136D01*
X100201396Y-51790819D01*
X100360819Y-51631396D01*
X100490136Y-51446711D01*
X100492581Y-51441469D01*
X100525805Y-51370219D01*
X100572723Y-51316934D01*
X100641000Y-51297473D01*
X100708960Y-51318015D01*
X100754195Y-51370219D01*
X100787420Y-51441469D01*
X100789864Y-51446711D01*
X100919181Y-51631396D01*
X101078604Y-51790819D01*
X101263289Y-51920136D01*
X101268267Y-51922457D01*
X101268270Y-51922459D01*
X101461626Y-52012622D01*
X101467624Y-52015419D01*
X101472932Y-52016841D01*
X101472934Y-52016842D01*
X101680085Y-52072348D01*
X101680087Y-52072348D01*
X101685400Y-52073772D01*
X101910000Y-52093422D01*
X102134600Y-52073772D01*
X102139913Y-52072348D01*
X102139915Y-52072348D01*
X102347066Y-52016842D01*
X102347068Y-52016841D01*
X102352376Y-52015419D01*
X102358374Y-52012622D01*
X102551730Y-51922459D01*
X102551733Y-51922457D01*
X102556711Y-51920136D01*
X102741396Y-51790819D01*
X102900819Y-51631396D01*
X103030136Y-51446711D01*
X103032581Y-51441469D01*
X103065805Y-51370219D01*
X103112723Y-51316934D01*
X103181000Y-51297473D01*
X103248960Y-51318015D01*
X103294195Y-51370219D01*
X103327420Y-51441469D01*
X103329864Y-51446711D01*
X103459181Y-51631396D01*
X103618604Y-51790819D01*
X103803289Y-51920136D01*
X103808267Y-51922457D01*
X103808270Y-51922459D01*
X104001626Y-52012622D01*
X104007624Y-52015419D01*
X104012932Y-52016841D01*
X104012934Y-52016842D01*
X104220085Y-52072348D01*
X104220087Y-52072348D01*
X104225400Y-52073772D01*
X104450000Y-52093422D01*
X104674600Y-52073772D01*
X104679913Y-52072348D01*
X104679915Y-52072348D01*
X104887066Y-52016842D01*
X104887068Y-52016841D01*
X104892376Y-52015419D01*
X104898374Y-52012622D01*
X105091730Y-51922459D01*
X105091733Y-51922457D01*
X105096711Y-51920136D01*
X105281396Y-51790819D01*
X105440819Y-51631396D01*
X105570136Y-51446711D01*
X105572581Y-51441469D01*
X105605805Y-51370219D01*
X105652723Y-51316934D01*
X105721000Y-51297473D01*
X105788960Y-51318015D01*
X105834195Y-51370219D01*
X105867420Y-51441469D01*
X105869864Y-51446711D01*
X105999181Y-51631396D01*
X106158604Y-51790819D01*
X106343289Y-51920136D01*
X106348267Y-51922457D01*
X106348270Y-51922459D01*
X106541626Y-52012622D01*
X106547624Y-52015419D01*
X106552932Y-52016841D01*
X106552934Y-52016842D01*
X106760085Y-52072348D01*
X106760087Y-52072348D01*
X106765400Y-52073772D01*
X106990000Y-52093422D01*
X107214600Y-52073772D01*
X107219913Y-52072348D01*
X107219915Y-52072348D01*
X107427066Y-52016842D01*
X107427068Y-52016841D01*
X107432376Y-52015419D01*
X107438374Y-52012622D01*
X107631730Y-51922459D01*
X107631733Y-51922457D01*
X107636711Y-51920136D01*
X107821396Y-51790819D01*
X107980819Y-51631396D01*
X108110136Y-51446711D01*
X108112581Y-51441469D01*
X108145805Y-51370219D01*
X108192723Y-51316934D01*
X108261000Y-51297473D01*
X108328960Y-51318015D01*
X108374195Y-51370219D01*
X108407420Y-51441469D01*
X108409864Y-51446711D01*
X108539181Y-51631396D01*
X108698604Y-51790819D01*
X108883289Y-51920136D01*
X108888267Y-51922457D01*
X108888270Y-51922459D01*
X109081626Y-52012622D01*
X109087624Y-52015419D01*
X109092932Y-52016841D01*
X109092934Y-52016842D01*
X109300085Y-52072348D01*
X109300087Y-52072348D01*
X109305400Y-52073772D01*
X109530000Y-52093422D01*
X109754600Y-52073772D01*
X109759913Y-52072348D01*
X109759915Y-52072348D01*
X109967066Y-52016842D01*
X109967068Y-52016841D01*
X109972376Y-52015419D01*
X109978374Y-52012622D01*
X110171730Y-51922459D01*
X110171733Y-51922457D01*
X110176711Y-51920136D01*
X110361396Y-51790819D01*
X110520819Y-51631396D01*
X110650136Y-51446711D01*
X110652581Y-51441469D01*
X110685805Y-51370219D01*
X110732723Y-51316934D01*
X110801000Y-51297473D01*
X110868960Y-51318015D01*
X110914195Y-51370219D01*
X110947420Y-51441469D01*
X110949864Y-51446711D01*
X111079181Y-51631396D01*
X111238604Y-51790819D01*
X111423289Y-51920136D01*
X111428267Y-51922457D01*
X111428270Y-51922459D01*
X111621626Y-52012622D01*
X111627624Y-52015419D01*
X111632932Y-52016841D01*
X111632934Y-52016842D01*
X111840085Y-52072348D01*
X111840087Y-52072348D01*
X111845400Y-52073772D01*
X112070000Y-52093422D01*
X112294600Y-52073772D01*
X112299913Y-52072348D01*
X112299915Y-52072348D01*
X112507066Y-52016842D01*
X112507068Y-52016841D01*
X112512376Y-52015419D01*
X112518374Y-52012622D01*
X112711730Y-51922459D01*
X112711733Y-51922457D01*
X112716711Y-51920136D01*
X112901396Y-51790819D01*
X113060819Y-51631396D01*
X113190136Y-51446711D01*
X113192581Y-51441469D01*
X113283096Y-51247358D01*
X113283097Y-51247357D01*
X113285419Y-51242376D01*
X113304271Y-51172022D01*
X113342348Y-51029915D01*
X113342348Y-51029913D01*
X113343772Y-51024600D01*
X113363422Y-50800000D01*
X113343772Y-50575400D01*
X113340000Y-50561323D01*
X113286842Y-50362934D01*
X113286841Y-50362932D01*
X113285419Y-50357624D01*
X113250652Y-50283066D01*
X113192459Y-50158270D01*
X113192457Y-50158267D01*
X113190136Y-50153289D01*
X113060819Y-49968604D01*
X112901396Y-49809181D01*
X112716711Y-49679864D01*
X112711733Y-49677543D01*
X112711730Y-49677541D01*
X112517358Y-49586904D01*
X112517357Y-49586903D01*
X112512376Y-49584581D01*
X112507068Y-49583159D01*
X112507066Y-49583158D01*
X112299915Y-49527652D01*
X112299913Y-49527652D01*
X112294600Y-49526228D01*
X112070000Y-49506578D01*
X111845400Y-49526228D01*
X111840087Y-49527652D01*
X111840085Y-49527652D01*
X111632934Y-49583158D01*
X111632932Y-49583159D01*
X111627624Y-49584581D01*
X111622643Y-49586903D01*
X111622642Y-49586904D01*
X111428270Y-49677541D01*
X111428267Y-49677543D01*
X111423289Y-49679864D01*
X111238604Y-49809181D01*
X111079181Y-49968604D01*
X110949864Y-50153289D01*
X110947543Y-50158267D01*
X110947541Y-50158270D01*
X110914195Y-50229781D01*
X110867277Y-50283066D01*
X110799000Y-50302527D01*
X110731040Y-50281985D01*
X110685805Y-50229781D01*
X110652459Y-50158270D01*
X110652457Y-50158267D01*
X110650136Y-50153289D01*
X110520819Y-49968604D01*
X110361396Y-49809181D01*
X110176711Y-49679864D01*
X110171733Y-49677543D01*
X110171730Y-49677541D01*
X109977358Y-49586904D01*
X109977357Y-49586903D01*
X109972376Y-49584581D01*
X109967068Y-49583159D01*
X109967066Y-49583158D01*
X109759915Y-49527652D01*
X109759913Y-49527652D01*
X109754600Y-49526228D01*
X109530000Y-49506578D01*
X109305400Y-49526228D01*
X109300087Y-49527652D01*
X109300085Y-49527652D01*
X109092934Y-49583158D01*
X109092932Y-49583159D01*
X109087624Y-49584581D01*
X109082643Y-49586903D01*
X109082642Y-49586904D01*
X108888270Y-49677541D01*
X108888267Y-49677543D01*
X108883289Y-49679864D01*
X108698604Y-49809181D01*
X108539181Y-49968604D01*
X108409864Y-50153289D01*
X108407543Y-50158267D01*
X108407541Y-50158270D01*
X108374195Y-50229781D01*
X108327277Y-50283066D01*
X108259000Y-50302527D01*
X108191040Y-50281985D01*
X108145805Y-50229781D01*
X108112459Y-50158270D01*
X108112457Y-50158267D01*
X108110136Y-50153289D01*
X107980819Y-49968604D01*
X107821396Y-49809181D01*
X107636711Y-49679864D01*
X107631733Y-49677543D01*
X107631730Y-49677541D01*
X107437358Y-49586904D01*
X107437357Y-49586903D01*
X107432376Y-49584581D01*
X107427068Y-49583159D01*
X107427066Y-49583158D01*
X107219915Y-49527652D01*
X107219913Y-49527652D01*
X107214600Y-49526228D01*
X106990000Y-49506578D01*
X106765400Y-49526228D01*
X106760087Y-49527652D01*
X106760085Y-49527652D01*
X106552934Y-49583158D01*
X106552932Y-49583159D01*
X106547624Y-49584581D01*
X106542643Y-49586903D01*
X106542642Y-49586904D01*
X106348270Y-49677541D01*
X106348267Y-49677543D01*
X106343289Y-49679864D01*
X106158604Y-49809181D01*
X105999181Y-49968604D01*
X105869864Y-50153289D01*
X105867543Y-50158267D01*
X105867541Y-50158270D01*
X105834195Y-50229781D01*
X105787277Y-50283066D01*
X105719000Y-50302527D01*
X105651040Y-50281985D01*
X105605805Y-50229781D01*
X105572459Y-50158270D01*
X105572457Y-50158267D01*
X105570136Y-50153289D01*
X105440819Y-49968604D01*
X105281396Y-49809181D01*
X105096711Y-49679864D01*
X105091733Y-49677543D01*
X105091730Y-49677541D01*
X104897358Y-49586904D01*
X104897357Y-49586903D01*
X104892376Y-49584581D01*
X104887068Y-49583159D01*
X104887066Y-49583158D01*
X104679915Y-49527652D01*
X104679913Y-49527652D01*
X104674600Y-49526228D01*
X104450000Y-49506578D01*
X104225400Y-49526228D01*
X104220087Y-49527652D01*
X104220085Y-49527652D01*
X104012934Y-49583158D01*
X104012932Y-49583159D01*
X104007624Y-49584581D01*
X104002643Y-49586903D01*
X104002642Y-49586904D01*
X103808270Y-49677541D01*
X103808267Y-49677543D01*
X103803289Y-49679864D01*
X103618604Y-49809181D01*
X103459181Y-49968604D01*
X103329864Y-50153289D01*
X103327543Y-50158267D01*
X103327541Y-50158270D01*
X103294195Y-50229781D01*
X103247277Y-50283066D01*
X103179000Y-50302527D01*
X103111040Y-50281985D01*
X103065805Y-50229781D01*
X103032459Y-50158270D01*
X103032457Y-50158267D01*
X103030136Y-50153289D01*
X102900819Y-49968604D01*
X102741396Y-49809181D01*
X102556711Y-49679864D01*
X102551733Y-49677543D01*
X102551730Y-49677541D01*
X102357358Y-49586904D01*
X102357357Y-49586903D01*
X102352376Y-49584581D01*
X102347068Y-49583159D01*
X102347066Y-49583158D01*
X102139915Y-49527652D01*
X102139913Y-49527652D01*
X102134600Y-49526228D01*
X101910000Y-49506578D01*
X101685400Y-49526228D01*
X101680087Y-49527652D01*
X101680085Y-49527652D01*
X101472934Y-49583158D01*
X101472932Y-49583159D01*
X101467624Y-49584581D01*
X101462643Y-49586903D01*
X101462642Y-49586904D01*
X101268270Y-49677541D01*
X101268267Y-49677543D01*
X101263289Y-49679864D01*
X101078604Y-49809181D01*
X100919181Y-49968604D01*
X100789864Y-50153289D01*
X100787543Y-50158267D01*
X100787541Y-50158270D01*
X100754195Y-50229781D01*
X100707277Y-50283066D01*
X100639000Y-50302527D01*
X100571040Y-50281985D01*
X100525805Y-50229781D01*
X100492459Y-50158270D01*
X100492457Y-50158267D01*
X100490136Y-50153289D01*
X100360819Y-49968604D01*
X100201396Y-49809181D01*
X100016711Y-49679864D01*
X100011733Y-49677543D01*
X100011730Y-49677541D01*
X99817358Y-49586904D01*
X99817357Y-49586903D01*
X99812376Y-49584581D01*
X99807068Y-49583159D01*
X99807066Y-49583158D01*
X99599915Y-49527652D01*
X99599913Y-49527652D01*
X99594600Y-49526228D01*
X99370000Y-49506578D01*
X99145400Y-49526228D01*
X99140087Y-49527652D01*
X99140085Y-49527652D01*
X98932934Y-49583158D01*
X98932932Y-49583159D01*
X98927624Y-49584581D01*
X98922643Y-49586903D01*
X98922642Y-49586904D01*
X98728270Y-49677541D01*
X98728267Y-49677543D01*
X98723289Y-49679864D01*
X98538604Y-49809181D01*
X98379181Y-49968604D01*
X98249864Y-50153289D01*
X98247543Y-50158267D01*
X98247541Y-50158270D01*
X98214195Y-50229781D01*
X98167277Y-50283066D01*
X98099000Y-50302527D01*
X98031040Y-50281985D01*
X97985805Y-50229781D01*
X97952459Y-50158270D01*
X97952457Y-50158267D01*
X97950136Y-50153289D01*
X97820819Y-49968604D01*
X97661396Y-49809181D01*
X97476711Y-49679864D01*
X97471733Y-49677543D01*
X97471730Y-49677541D01*
X97277358Y-49586904D01*
X97277357Y-49586903D01*
X97272376Y-49584581D01*
X97267068Y-49583159D01*
X97267066Y-49583158D01*
X97059915Y-49527652D01*
X97059913Y-49527652D01*
X97054600Y-49526228D01*
X96830000Y-49506578D01*
X96605400Y-49526228D01*
X96600087Y-49527652D01*
X96600085Y-49527652D01*
X96392934Y-49583158D01*
X96392932Y-49583159D01*
X96387624Y-49584581D01*
X96382643Y-49586903D01*
X96382642Y-49586904D01*
X96188270Y-49677541D01*
X96188267Y-49677543D01*
X96183289Y-49679864D01*
X95998604Y-49809181D01*
X95839181Y-49968604D01*
X95709864Y-50153289D01*
X95707543Y-50158267D01*
X95707541Y-50158270D01*
X95674195Y-50229781D01*
X95627277Y-50283066D01*
X95559000Y-50302527D01*
X95491040Y-50281985D01*
X95445805Y-50229781D01*
X95412459Y-50158270D01*
X95412457Y-50158267D01*
X95410136Y-50153289D01*
X95280819Y-49968604D01*
X95121396Y-49809181D01*
X94936711Y-49679864D01*
X94931733Y-49677543D01*
X94931730Y-49677541D01*
X94737358Y-49586904D01*
X94737357Y-49586903D01*
X94732376Y-49584581D01*
X94727068Y-49583159D01*
X94727066Y-49583158D01*
X94519915Y-49527652D01*
X94519913Y-49527652D01*
X94514600Y-49526228D01*
X94290000Y-49506578D01*
X94065400Y-49526228D01*
X94060087Y-49527652D01*
X94060085Y-49527652D01*
X93852934Y-49583158D01*
X93852932Y-49583159D01*
X93847624Y-49584581D01*
X93842643Y-49586903D01*
X93842642Y-49586904D01*
X93648270Y-49677541D01*
X93648267Y-49677543D01*
X93643289Y-49679864D01*
X93458604Y-49809181D01*
X93299181Y-49968604D01*
X93169864Y-50153289D01*
X93167543Y-50158267D01*
X93167541Y-50158270D01*
X93134195Y-50229781D01*
X93087277Y-50283066D01*
X93019000Y-50302527D01*
X92951040Y-50281985D01*
X92905805Y-50229781D01*
X92872459Y-50158270D01*
X92872457Y-50158267D01*
X92870136Y-50153289D01*
X92740819Y-49968604D01*
X92581396Y-49809181D01*
X92396711Y-49679864D01*
X92391733Y-49677543D01*
X92391730Y-49677541D01*
X92197358Y-49586904D01*
X92197357Y-49586903D01*
X92192376Y-49584581D01*
X92187068Y-49583159D01*
X92187066Y-49583158D01*
X91979915Y-49527652D01*
X91979913Y-49527652D01*
X91974600Y-49526228D01*
X91750000Y-49506578D01*
X91525400Y-49526228D01*
X91520087Y-49527652D01*
X91520085Y-49527652D01*
X91312934Y-49583158D01*
X91312932Y-49583159D01*
X91307624Y-49584581D01*
X91302643Y-49586903D01*
X91302642Y-49586904D01*
X91108270Y-49677541D01*
X91108267Y-49677543D01*
X91103289Y-49679864D01*
X90918604Y-49809181D01*
X90759181Y-49968604D01*
X90629864Y-50153289D01*
X90627543Y-50158267D01*
X90627541Y-50158270D01*
X90594195Y-50229781D01*
X90547277Y-50283066D01*
X90479000Y-50302527D01*
X90411040Y-50281985D01*
X90365805Y-50229781D01*
X90332459Y-50158270D01*
X90332457Y-50158267D01*
X90330136Y-50153289D01*
X90200819Y-49968604D01*
X90041396Y-49809181D01*
X89856711Y-49679864D01*
X89851733Y-49677543D01*
X89851730Y-49677541D01*
X89657358Y-49586904D01*
X89657357Y-49586903D01*
X89652376Y-49584581D01*
X89647068Y-49583159D01*
X89647066Y-49583158D01*
X89439915Y-49527652D01*
X89439913Y-49527652D01*
X89434600Y-49526228D01*
X89210000Y-49506578D01*
X88985400Y-49526228D01*
X88980087Y-49527652D01*
X88980085Y-49527652D01*
X88772934Y-49583158D01*
X88772932Y-49583159D01*
X88767624Y-49584581D01*
X88762643Y-49586903D01*
X88762642Y-49586904D01*
X88568270Y-49677541D01*
X88568267Y-49677543D01*
X88563289Y-49679864D01*
X88378604Y-49809181D01*
X88219181Y-49968604D01*
X88089864Y-50153289D01*
X88087543Y-50158267D01*
X88087541Y-50158270D01*
X88054195Y-50229781D01*
X88007277Y-50283066D01*
X87939000Y-50302527D01*
X87871040Y-50281985D01*
X87825805Y-50229781D01*
X87792459Y-50158270D01*
X87792457Y-50158267D01*
X87790136Y-50153289D01*
X87660819Y-49968604D01*
X87501396Y-49809181D01*
X87316711Y-49679864D01*
X87311733Y-49677543D01*
X87311730Y-49677541D01*
X87117358Y-49586904D01*
X87117357Y-49586903D01*
X87112376Y-49584581D01*
X87107068Y-49583159D01*
X87107066Y-49583158D01*
X86899915Y-49527652D01*
X86899913Y-49527652D01*
X86894600Y-49526228D01*
X86670000Y-49506578D01*
X86445400Y-49526228D01*
X86440087Y-49527652D01*
X86440085Y-49527652D01*
X86232934Y-49583158D01*
X86232932Y-49583159D01*
X86227624Y-49584581D01*
X86222643Y-49586903D01*
X86222642Y-49586904D01*
X86028270Y-49677541D01*
X86028267Y-49677543D01*
X86023289Y-49679864D01*
X85838604Y-49809181D01*
X85679181Y-49968604D01*
X85549864Y-50153289D01*
X85547543Y-50158267D01*
X85547541Y-50158270D01*
X85514195Y-50229781D01*
X85467277Y-50283066D01*
X85399000Y-50302527D01*
X85331040Y-50281985D01*
X85285805Y-50229781D01*
X85252459Y-50158270D01*
X85252457Y-50158267D01*
X85250136Y-50153289D01*
X85120819Y-49968604D01*
X84961396Y-49809181D01*
X84776711Y-49679864D01*
X84771733Y-49677543D01*
X84771730Y-49677541D01*
X84577358Y-49586904D01*
X84577357Y-49586903D01*
X84572376Y-49584581D01*
X84567068Y-49583159D01*
X84567066Y-49583158D01*
X84359915Y-49527652D01*
X84359913Y-49527652D01*
X84354600Y-49526228D01*
X84130000Y-49506578D01*
X83905400Y-49526228D01*
X83900087Y-49527652D01*
X83900085Y-49527652D01*
X83692934Y-49583158D01*
X83692932Y-49583159D01*
X83687624Y-49584581D01*
X83682643Y-49586903D01*
X83682642Y-49586904D01*
X83488270Y-49677541D01*
X83488267Y-49677543D01*
X83483289Y-49679864D01*
X83298604Y-49809181D01*
X83139181Y-49968604D01*
X83009864Y-50153289D01*
X83007543Y-50158267D01*
X83007541Y-50158270D01*
X82973919Y-50230373D01*
X82927002Y-50283658D01*
X82858724Y-50303119D01*
X82790764Y-50282577D01*
X82745529Y-50230372D01*
X82712030Y-50158531D01*
X82706545Y-50149032D01*
X82673130Y-50101311D01*
X82662653Y-50092936D01*
X82649206Y-50100004D01*
X81962022Y-50787188D01*
X81954408Y-50801132D01*
X81954539Y-50802965D01*
X81958790Y-50809580D01*
X82649927Y-51500717D01*
X82661702Y-51507147D01*
X82673717Y-51497851D01*
X82706545Y-51450968D01*
X82712030Y-51441469D01*
X82745529Y-51369628D01*
X82792445Y-51316343D01*
X82860722Y-51296881D01*
X82928683Y-51317422D01*
X82973919Y-51369627D01*
X83007420Y-51441469D01*
X83009864Y-51446711D01*
X83139181Y-51631396D01*
X83298604Y-51790819D01*
X83483289Y-51920136D01*
X83488267Y-51922457D01*
X83488270Y-51922459D01*
X83681626Y-52012622D01*
X83687624Y-52015419D01*
X83692932Y-52016841D01*
X83692934Y-52016842D01*
X83900085Y-52072348D01*
X83900087Y-52072348D01*
X83905400Y-52073772D01*
X84130000Y-52093422D01*
X84135475Y-52092943D01*
X84274452Y-52080784D01*
X84344057Y-52094773D01*
X84374529Y-52117210D01*
X87419595Y-55162276D01*
X87453621Y-55224588D01*
X87456500Y-55251371D01*
X87456500Y-58248133D01*
X87436498Y-58316254D01*
X87402772Y-58351345D01*
X87370700Y-58373802D01*
X87208802Y-58535700D01*
X87205645Y-58540208D01*
X87205643Y-58540211D01*
X87171384Y-58589138D01*
X87077477Y-58723251D01*
X87075154Y-58728233D01*
X87075151Y-58728238D01*
X87058919Y-58763049D01*
X87012002Y-58816334D01*
X86943725Y-58835795D01*
X86875765Y-58815253D01*
X86830529Y-58763049D01*
X86814414Y-58728489D01*
X86808931Y-58718993D01*
X86683972Y-58540533D01*
X86676916Y-58532125D01*
X86522875Y-58378084D01*
X86514467Y-58371028D01*
X86336007Y-58246069D01*
X86326511Y-58240586D01*
X86129053Y-58148510D01*
X86118761Y-58144764D01*
X85946497Y-58098606D01*
X85932401Y-58098942D01*
X85929000Y-58106884D01*
X85929000Y-59508000D01*
X85908998Y-59576121D01*
X85855342Y-59622614D01*
X85803000Y-59634000D01*
X85547000Y-59634000D01*
X85478879Y-59613998D01*
X85432386Y-59560342D01*
X85421000Y-59508000D01*
X85421000Y-58112033D01*
X85417027Y-58098502D01*
X85408478Y-58097273D01*
X85231239Y-58144764D01*
X85220947Y-58148510D01*
X85023489Y-58240586D01*
X85013993Y-58246069D01*
X84835533Y-58371028D01*
X84827125Y-58378084D01*
X84673084Y-58532125D01*
X84666028Y-58540533D01*
X84541069Y-58718993D01*
X84535586Y-58728489D01*
X84519471Y-58763049D01*
X84472554Y-58816334D01*
X84404277Y-58835795D01*
X84336317Y-58815253D01*
X84291081Y-58763049D01*
X84274849Y-58728238D01*
X84274846Y-58728233D01*
X84272523Y-58723251D01*
X84178616Y-58589138D01*
X84144357Y-58540211D01*
X84144355Y-58540208D01*
X84141198Y-58535700D01*
X83979300Y-58373802D01*
X83974792Y-58370645D01*
X83974789Y-58370643D01*
X83868030Y-58295890D01*
X83791749Y-58242477D01*
X83786767Y-58240154D01*
X83786762Y-58240151D01*
X83589225Y-58148039D01*
X83589224Y-58148039D01*
X83584243Y-58145716D01*
X83578935Y-58144294D01*
X83578933Y-58144293D01*
X83368402Y-58087881D01*
X83368400Y-58087881D01*
X83363087Y-58086457D01*
X83135000Y-58066502D01*
X82906913Y-58086457D01*
X82901600Y-58087881D01*
X82901598Y-58087881D01*
X82691067Y-58144293D01*
X82691065Y-58144294D01*
X82685757Y-58145716D01*
X82680776Y-58148039D01*
X82680775Y-58148039D01*
X82483238Y-58240151D01*
X82483233Y-58240154D01*
X82478251Y-58242477D01*
X82401970Y-58295890D01*
X82295211Y-58370643D01*
X82295208Y-58370645D01*
X82290700Y-58373802D01*
X82128802Y-58535700D01*
X82125645Y-58540208D01*
X82125643Y-58540211D01*
X82091384Y-58589138D01*
X81997477Y-58723251D01*
X81995154Y-58728233D01*
X81995151Y-58728238D01*
X81969309Y-58783658D01*
X81900716Y-58930757D01*
X81899294Y-58936065D01*
X81899293Y-58936067D01*
X81843041Y-59146002D01*
X81841457Y-59151913D01*
X81821502Y-59380000D01*
X81841457Y-59608087D01*
X81842881Y-59613400D01*
X81842881Y-59613402D01*
X81845350Y-59622614D01*
X81900716Y-59829243D01*
X81903039Y-59834224D01*
X81903039Y-59834225D01*
X81995151Y-60031762D01*
X81995154Y-60031767D01*
X81997477Y-60036749D01*
X82128802Y-60224300D01*
X82290700Y-60386198D01*
X82295208Y-60389355D01*
X82295211Y-60389357D01*
X82300260Y-60392892D01*
X82478251Y-60517523D01*
X82483233Y-60519846D01*
X82483238Y-60519849D01*
X82679765Y-60611490D01*
X82685757Y-60614284D01*
X82691065Y-60615706D01*
X82691067Y-60615707D01*
X82901598Y-60672119D01*
X82901600Y-60672119D01*
X82906913Y-60673543D01*
X83135000Y-60693498D01*
X83140475Y-60693019D01*
X83140476Y-60693019D01*
X83302512Y-60678843D01*
X83372116Y-60692832D01*
X83402588Y-60715269D01*
X86106213Y-63418894D01*
X86140239Y-63481206D01*
X86142729Y-63517878D01*
X86141694Y-63531024D01*
X86141693Y-63531042D01*
X86141500Y-63533498D01*
X86141500Y-65316502D01*
X86144438Y-65353831D01*
X86190855Y-65513601D01*
X86223408Y-65568644D01*
X86240867Y-65637459D01*
X86218351Y-65704790D01*
X86163006Y-65749259D01*
X86092406Y-65756748D01*
X86082352Y-65754491D01*
X85903087Y-65706457D01*
X85675000Y-65686502D01*
X85446913Y-65706457D01*
X85441600Y-65707881D01*
X85441598Y-65707881D01*
X85231067Y-65764293D01*
X85231065Y-65764294D01*
X85225757Y-65765716D01*
X85220776Y-65768039D01*
X85220775Y-65768039D01*
X85023238Y-65860151D01*
X85023233Y-65860154D01*
X85018251Y-65862477D01*
X84923958Y-65928502D01*
X84835211Y-65990643D01*
X84835208Y-65990645D01*
X84830700Y-65993802D01*
X84668802Y-66155700D01*
X84665643Y-66160211D01*
X84662108Y-66164424D01*
X84661140Y-66163612D01*
X84610506Y-66204090D01*
X84539887Y-66211404D01*
X84476524Y-66179376D01*
X84440536Y-66118177D01*
X84437480Y-66101099D01*
X84437105Y-66097648D01*
X84433479Y-66082396D01*
X84388324Y-65961946D01*
X84379786Y-65946351D01*
X84303285Y-65844276D01*
X84290724Y-65831715D01*
X84188649Y-65755214D01*
X84173054Y-65746676D01*
X84052606Y-65701522D01*
X84037351Y-65697895D01*
X83986486Y-65692369D01*
X83979672Y-65692000D01*
X83407115Y-65692000D01*
X83391876Y-65696475D01*
X83390671Y-65697865D01*
X83389000Y-65705548D01*
X83389000Y-68289884D01*
X83393475Y-68305123D01*
X83394865Y-68306328D01*
X83402548Y-68307999D01*
X83979669Y-68307999D01*
X83986490Y-68307629D01*
X84037352Y-68302105D01*
X84052604Y-68298479D01*
X84173054Y-68253324D01*
X84188649Y-68244786D01*
X84290724Y-68168285D01*
X84303285Y-68155724D01*
X84379786Y-68053649D01*
X84388324Y-68038054D01*
X84433478Y-67917606D01*
X84437104Y-67902357D01*
X84437479Y-67898904D01*
X84438522Y-67896394D01*
X84438932Y-67894669D01*
X84439211Y-67894735D01*
X84464719Y-67833341D01*
X84523080Y-67792912D01*
X84594034Y-67790454D01*
X84655054Y-67826747D01*
X84664344Y-67838240D01*
X84665641Y-67839786D01*
X84668802Y-67844300D01*
X84830700Y-68006198D01*
X84835208Y-68009355D01*
X84835211Y-68009357D01*
X84876195Y-68038054D01*
X85018251Y-68137523D01*
X85023233Y-68139846D01*
X85023238Y-68139849D01*
X85218086Y-68230707D01*
X85225757Y-68234284D01*
X85231065Y-68235706D01*
X85231067Y-68235707D01*
X85441598Y-68292119D01*
X85441600Y-68292119D01*
X85446913Y-68293543D01*
X85675000Y-68313498D01*
X85903087Y-68293543D01*
X85908400Y-68292119D01*
X85908402Y-68292119D01*
X85997467Y-68268254D01*
X86068443Y-68269944D01*
X86127239Y-68309738D01*
X86155187Y-68375002D01*
X86151075Y-68425115D01*
X86146731Y-68440065D01*
X86144430Y-68452667D01*
X86142193Y-68481084D01*
X86142000Y-68486014D01*
X86142000Y-69102885D01*
X86146475Y-69118124D01*
X86147865Y-69119329D01*
X86155548Y-69121000D01*
X87078000Y-69121000D01*
X87146121Y-69141002D01*
X87192614Y-69194658D01*
X87204000Y-69247000D01*
X87204000Y-70836878D01*
X87207973Y-70850409D01*
X87215870Y-70851544D01*
X87300346Y-70827001D01*
X87371342Y-70827203D01*
X87430959Y-70865757D01*
X87460268Y-70930422D01*
X87461500Y-70947998D01*
X87461500Y-74283629D01*
X87441498Y-74351750D01*
X87424595Y-74372724D01*
X86914529Y-74882790D01*
X86852217Y-74916816D01*
X86814452Y-74919216D01*
X86675475Y-74907057D01*
X86670000Y-74906578D01*
X86445400Y-74926228D01*
X86440087Y-74927652D01*
X86440085Y-74927652D01*
X86232934Y-74983158D01*
X86232932Y-74983159D01*
X86227624Y-74984581D01*
X86222643Y-74986903D01*
X86222642Y-74986904D01*
X86028270Y-75077541D01*
X86028267Y-75077543D01*
X86023289Y-75079864D01*
X85838604Y-75209181D01*
X85679181Y-75368604D01*
X85549864Y-75553289D01*
X85547543Y-75558267D01*
X85547541Y-75558270D01*
X85514195Y-75629781D01*
X85467277Y-75683066D01*
X85399000Y-75702527D01*
X85331040Y-75681985D01*
X85285805Y-75629781D01*
X85252459Y-75558270D01*
X85252457Y-75558267D01*
X85250136Y-75553289D01*
X85120819Y-75368604D01*
X84961396Y-75209181D01*
X84776711Y-75079864D01*
X84771733Y-75077543D01*
X84771730Y-75077541D01*
X84577358Y-74986904D01*
X84577357Y-74986903D01*
X84572376Y-74984581D01*
X84567068Y-74983159D01*
X84567066Y-74983158D01*
X84359915Y-74927652D01*
X84359913Y-74927652D01*
X84354600Y-74926228D01*
X84130000Y-74906578D01*
X83905400Y-74926228D01*
X83900087Y-74927652D01*
X83900085Y-74927652D01*
X83692934Y-74983158D01*
X83692932Y-74983159D01*
X83687624Y-74984581D01*
X83682643Y-74986903D01*
X83682642Y-74986904D01*
X83488270Y-75077541D01*
X83488267Y-75077543D01*
X83483289Y-75079864D01*
X83298604Y-75209181D01*
X83139181Y-75368604D01*
X83009864Y-75553289D01*
X83007543Y-75558267D01*
X83007541Y-75558270D01*
X82974195Y-75629781D01*
X82927277Y-75683066D01*
X82859000Y-75702527D01*
X82791040Y-75681985D01*
X82745805Y-75629781D01*
X82712459Y-75558270D01*
X82712457Y-75558267D01*
X82710136Y-75553289D01*
X82580819Y-75368604D01*
X82421396Y-75209181D01*
X82236711Y-75079864D01*
X82231733Y-75077543D01*
X82231730Y-75077541D01*
X82037358Y-74986904D01*
X82037357Y-74986903D01*
X82032376Y-74984581D01*
X82027068Y-74983159D01*
X82027066Y-74983158D01*
X81819915Y-74927652D01*
X81819913Y-74927652D01*
X81814600Y-74926228D01*
X81590000Y-74906578D01*
X81365400Y-74926228D01*
X81360087Y-74927652D01*
X81360085Y-74927652D01*
X81152934Y-74983158D01*
X81152932Y-74983159D01*
X81147624Y-74984581D01*
X81142643Y-74986903D01*
X81142642Y-74986904D01*
X80948270Y-75077541D01*
X80948267Y-75077543D01*
X80943289Y-75079864D01*
X80758604Y-75209181D01*
X80599181Y-75368604D01*
X80469864Y-75553289D01*
X80467543Y-75558267D01*
X80467541Y-75558270D01*
X80434195Y-75629781D01*
X80387277Y-75683066D01*
X80319000Y-75702527D01*
X80251040Y-75681985D01*
X80205805Y-75629781D01*
X80172459Y-75558270D01*
X80172457Y-75558267D01*
X80170136Y-75553289D01*
X80040819Y-75368604D01*
X79881396Y-75209181D01*
X79696711Y-75079864D01*
X79691733Y-75077543D01*
X79691730Y-75077541D01*
X79497358Y-74986904D01*
X79497357Y-74986903D01*
X79492376Y-74984581D01*
X79487068Y-74983159D01*
X79487066Y-74983158D01*
X79279915Y-74927652D01*
X79279913Y-74927652D01*
X79274600Y-74926228D01*
X79050000Y-74906578D01*
X78825400Y-74926228D01*
X78820087Y-74927652D01*
X78820085Y-74927652D01*
X78612934Y-74983158D01*
X78612932Y-74983159D01*
X78607624Y-74984581D01*
X78602643Y-74986903D01*
X78602642Y-74986904D01*
X78408270Y-75077541D01*
X78408267Y-75077543D01*
X78403289Y-75079864D01*
X78218604Y-75209181D01*
X78059181Y-75368604D01*
X77929864Y-75553289D01*
X77927543Y-75558267D01*
X77927541Y-75558270D01*
X77894195Y-75629781D01*
X77847277Y-75683066D01*
X77779000Y-75702527D01*
X77711040Y-75681985D01*
X77665805Y-75629781D01*
X77632459Y-75558270D01*
X77632457Y-75558267D01*
X77630136Y-75553289D01*
X77500819Y-75368604D01*
X77341396Y-75209181D01*
X77156711Y-75079864D01*
X77151733Y-75077543D01*
X77151730Y-75077541D01*
X76957358Y-74986904D01*
X76957357Y-74986903D01*
X76952376Y-74984581D01*
X76947068Y-74983159D01*
X76947066Y-74983158D01*
X76739915Y-74927652D01*
X76739913Y-74927652D01*
X76734600Y-74926228D01*
X76510000Y-74906578D01*
X76285400Y-74926228D01*
X76280087Y-74927652D01*
X76280085Y-74927652D01*
X76072934Y-74983158D01*
X76072932Y-74983159D01*
X76067624Y-74984581D01*
X76062643Y-74986903D01*
X76062642Y-74986904D01*
X75868270Y-75077541D01*
X75868267Y-75077543D01*
X75863289Y-75079864D01*
X75678604Y-75209181D01*
X75519181Y-75368604D01*
X75389864Y-75553289D01*
X75387543Y-75558267D01*
X75387541Y-75558270D01*
X75354195Y-75629781D01*
X75307277Y-75683066D01*
X75239000Y-75702527D01*
X75171040Y-75681985D01*
X75125805Y-75629781D01*
X75092459Y-75558270D01*
X75092457Y-75558267D01*
X75090136Y-75553289D01*
X74960819Y-75368604D01*
X74801396Y-75209181D01*
X74616711Y-75079864D01*
X74611733Y-75077543D01*
X74611730Y-75077541D01*
X74417358Y-74986904D01*
X74417357Y-74986903D01*
X74412376Y-74984581D01*
X74407068Y-74983159D01*
X74407066Y-74983158D01*
X74199915Y-74927652D01*
X74199913Y-74927652D01*
X74194600Y-74926228D01*
X73970000Y-74906578D01*
X73745400Y-74926228D01*
X73740087Y-74927652D01*
X73740085Y-74927652D01*
X73532934Y-74983158D01*
X73532932Y-74983159D01*
X73527624Y-74984581D01*
X73522643Y-74986903D01*
X73522642Y-74986904D01*
X73328270Y-75077541D01*
X73328267Y-75077543D01*
X73323289Y-75079864D01*
X73138604Y-75209181D01*
X72979181Y-75368604D01*
X72849864Y-75553289D01*
X72847543Y-75558267D01*
X72847541Y-75558270D01*
X72814195Y-75629781D01*
X72767277Y-75683066D01*
X72699000Y-75702527D01*
X72631040Y-75681985D01*
X72585805Y-75629781D01*
X72552459Y-75558270D01*
X72552457Y-75558267D01*
X72550136Y-75553289D01*
X72420819Y-75368604D01*
X72261396Y-75209181D01*
X72076711Y-75079864D01*
X72071733Y-75077543D01*
X72071730Y-75077541D01*
X71877358Y-74986904D01*
X71877357Y-74986903D01*
X71872376Y-74984581D01*
X71867068Y-74983159D01*
X71867066Y-74983158D01*
X71659915Y-74927652D01*
X71659913Y-74927652D01*
X71654600Y-74926228D01*
X71430000Y-74906578D01*
X71205400Y-74926228D01*
X71200087Y-74927652D01*
X71200085Y-74927652D01*
X70992934Y-74983158D01*
X70992932Y-74983159D01*
X70987624Y-74984581D01*
X70982643Y-74986903D01*
X70982642Y-74986904D01*
X70788270Y-75077541D01*
X70788267Y-75077543D01*
X70783289Y-75079864D01*
X70598604Y-75209181D01*
X70439181Y-75368604D01*
X70309864Y-75553289D01*
X70307543Y-75558267D01*
X70307541Y-75558270D01*
X70274195Y-75629781D01*
X70227277Y-75683066D01*
X70159000Y-75702527D01*
X70091040Y-75681985D01*
X70045805Y-75629781D01*
X70012459Y-75558270D01*
X70012457Y-75558267D01*
X70010136Y-75553289D01*
X69880819Y-75368604D01*
X69721396Y-75209181D01*
X69536711Y-75079864D01*
X69531733Y-75077543D01*
X69531730Y-75077541D01*
X69337358Y-74986904D01*
X69337357Y-74986903D01*
X69332376Y-74984581D01*
X69327068Y-74983159D01*
X69327066Y-74983158D01*
X69119915Y-74927652D01*
X69119913Y-74927652D01*
X69114600Y-74926228D01*
X68890000Y-74906578D01*
X68665400Y-74926228D01*
X68660087Y-74927652D01*
X68660085Y-74927652D01*
X68452934Y-74983158D01*
X68452932Y-74983159D01*
X68447624Y-74984581D01*
X68442643Y-74986903D01*
X68442642Y-74986904D01*
X68248270Y-75077541D01*
X68248267Y-75077543D01*
X68243289Y-75079864D01*
X68058604Y-75209181D01*
X67899181Y-75368604D01*
X67865477Y-75416739D01*
X67810021Y-75461066D01*
X67739402Y-75468375D01*
X67676041Y-75436345D01*
X67640056Y-75375143D01*
X67637002Y-75358075D01*
X67632598Y-75317540D01*
X67631745Y-75309684D01*
X67580615Y-75173295D01*
X67493261Y-75056739D01*
X67376705Y-74969385D01*
X67240316Y-74918255D01*
X67178134Y-74911500D01*
X66986000Y-74911500D01*
X66917879Y-74891498D01*
X66871386Y-74837842D01*
X66860000Y-74785500D01*
X66860000Y-70263984D01*
X86142001Y-70263984D01*
X86142195Y-70268920D01*
X86144430Y-70297336D01*
X86146730Y-70309931D01*
X86189107Y-70455790D01*
X86195352Y-70470221D01*
X86271911Y-70599678D01*
X86281551Y-70612104D01*
X86387896Y-70718449D01*
X86400322Y-70728089D01*
X86529779Y-70804648D01*
X86544210Y-70810893D01*
X86678605Y-70849939D01*
X86692706Y-70849899D01*
X86696000Y-70842630D01*
X86696000Y-69647115D01*
X86691525Y-69631876D01*
X86690135Y-69630671D01*
X86682452Y-69629000D01*
X86160116Y-69629000D01*
X86144877Y-69633475D01*
X86143672Y-69634865D01*
X86142001Y-69642548D01*
X86142001Y-70263984D01*
X66860000Y-70263984D01*
X66860000Y-67844669D01*
X81827001Y-67844669D01*
X81827371Y-67851490D01*
X81832895Y-67902352D01*
X81836521Y-67917604D01*
X81881676Y-68038054D01*
X81890214Y-68053649D01*
X81966715Y-68155724D01*
X81979276Y-68168285D01*
X82081351Y-68244786D01*
X82096946Y-68253324D01*
X82217394Y-68298478D01*
X82232649Y-68302105D01*
X82283514Y-68307631D01*
X82290328Y-68308000D01*
X82862885Y-68308000D01*
X82878124Y-68303525D01*
X82879329Y-68302135D01*
X82881000Y-68294452D01*
X82881000Y-67272115D01*
X82876525Y-67256876D01*
X82875135Y-67255671D01*
X82867452Y-67254000D01*
X81845116Y-67254000D01*
X81829877Y-67258475D01*
X81828672Y-67259865D01*
X81827001Y-67267548D01*
X81827001Y-67844669D01*
X66860000Y-67844669D01*
X66860000Y-66727885D01*
X81827000Y-66727885D01*
X81831475Y-66743124D01*
X81832865Y-66744329D01*
X81840548Y-66746000D01*
X82862885Y-66746000D01*
X82878124Y-66741525D01*
X82879329Y-66740135D01*
X82881000Y-66732452D01*
X82881000Y-65710116D01*
X82876525Y-65694877D01*
X82875135Y-65693672D01*
X82867452Y-65692001D01*
X82290331Y-65692001D01*
X82283510Y-65692371D01*
X82232648Y-65697895D01*
X82217396Y-65701521D01*
X82096946Y-65746676D01*
X82081351Y-65755214D01*
X81979276Y-65831715D01*
X81966715Y-65844276D01*
X81890214Y-65946351D01*
X81881676Y-65961946D01*
X81836522Y-66082394D01*
X81832895Y-66097649D01*
X81827369Y-66148514D01*
X81827000Y-66155328D01*
X81827000Y-66727885D01*
X66860000Y-66727885D01*
X66860000Y-52063605D01*
X66880002Y-51995484D01*
X66932751Y-51949410D01*
X66991469Y-51922030D01*
X67000968Y-51916545D01*
X67048689Y-51883130D01*
X67057064Y-51872653D01*
X67049996Y-51859206D01*
X66079885Y-50889095D01*
X66045859Y-50826783D01*
X66047694Y-50801132D01*
X66714408Y-50801132D01*
X66714539Y-50802965D01*
X66718790Y-50809580D01*
X67409927Y-51500717D01*
X67421702Y-51507147D01*
X67433717Y-51497851D01*
X67466545Y-51450968D01*
X67472030Y-51441469D01*
X67505529Y-51369628D01*
X67552445Y-51316343D01*
X67620722Y-51296881D01*
X67688683Y-51317422D01*
X67733919Y-51369627D01*
X67767420Y-51441469D01*
X67769864Y-51446711D01*
X67899181Y-51631396D01*
X68058604Y-51790819D01*
X68243289Y-51920136D01*
X68248267Y-51922457D01*
X68248270Y-51922459D01*
X68441626Y-52012622D01*
X68447624Y-52015419D01*
X68452932Y-52016841D01*
X68452934Y-52016842D01*
X68660085Y-52072348D01*
X68660087Y-52072348D01*
X68665400Y-52073772D01*
X68890000Y-52093422D01*
X69114600Y-52073772D01*
X69119913Y-52072348D01*
X69119915Y-52072348D01*
X69327066Y-52016842D01*
X69327068Y-52016841D01*
X69332376Y-52015419D01*
X69338374Y-52012622D01*
X69531730Y-51922459D01*
X69531733Y-51922457D01*
X69536711Y-51920136D01*
X69721396Y-51790819D01*
X69880819Y-51631396D01*
X70010136Y-51446711D01*
X70012581Y-51441469D01*
X70045805Y-51370219D01*
X70092723Y-51316934D01*
X70161000Y-51297473D01*
X70228960Y-51318015D01*
X70274195Y-51370219D01*
X70307420Y-51441469D01*
X70309864Y-51446711D01*
X70439181Y-51631396D01*
X70598604Y-51790819D01*
X70783289Y-51920136D01*
X70788267Y-51922457D01*
X70788270Y-51922459D01*
X70981626Y-52012622D01*
X70987624Y-52015419D01*
X70992932Y-52016841D01*
X70992934Y-52016842D01*
X71200085Y-52072348D01*
X71200087Y-52072348D01*
X71205400Y-52073772D01*
X71430000Y-52093422D01*
X71654600Y-52073772D01*
X71659913Y-52072348D01*
X71659915Y-52072348D01*
X71867066Y-52016842D01*
X71867068Y-52016841D01*
X71872376Y-52015419D01*
X71878374Y-52012622D01*
X72071730Y-51922459D01*
X72071733Y-51922457D01*
X72076711Y-51920136D01*
X72261396Y-51790819D01*
X72420819Y-51631396D01*
X72550136Y-51446711D01*
X72552581Y-51441469D01*
X72585805Y-51370219D01*
X72632723Y-51316934D01*
X72701000Y-51297473D01*
X72768960Y-51318015D01*
X72814195Y-51370219D01*
X72847420Y-51441469D01*
X72849864Y-51446711D01*
X72979181Y-51631396D01*
X73138604Y-51790819D01*
X73323289Y-51920136D01*
X73328267Y-51922457D01*
X73328270Y-51922459D01*
X73521626Y-52012622D01*
X73527624Y-52015419D01*
X73532932Y-52016841D01*
X73532934Y-52016842D01*
X73740085Y-52072348D01*
X73740087Y-52072348D01*
X73745400Y-52073772D01*
X73970000Y-52093422D01*
X74194600Y-52073772D01*
X74199913Y-52072348D01*
X74199915Y-52072348D01*
X74407066Y-52016842D01*
X74407068Y-52016841D01*
X74412376Y-52015419D01*
X74418374Y-52012622D01*
X74611730Y-51922459D01*
X74611733Y-51922457D01*
X74616711Y-51920136D01*
X74801396Y-51790819D01*
X74960819Y-51631396D01*
X75090136Y-51446711D01*
X75092581Y-51441469D01*
X75125805Y-51370219D01*
X75172723Y-51316934D01*
X75241000Y-51297473D01*
X75308960Y-51318015D01*
X75354195Y-51370219D01*
X75387420Y-51441469D01*
X75389864Y-51446711D01*
X75519181Y-51631396D01*
X75678604Y-51790819D01*
X75863289Y-51920136D01*
X75868267Y-51922457D01*
X75868270Y-51922459D01*
X76061626Y-52012622D01*
X76067624Y-52015419D01*
X76072932Y-52016841D01*
X76072934Y-52016842D01*
X76280085Y-52072348D01*
X76280087Y-52072348D01*
X76285400Y-52073772D01*
X76510000Y-52093422D01*
X76734600Y-52073772D01*
X76739913Y-52072348D01*
X76739915Y-52072348D01*
X76947066Y-52016842D01*
X76947068Y-52016841D01*
X76952376Y-52015419D01*
X76958374Y-52012622D01*
X77151730Y-51922459D01*
X77151733Y-51922457D01*
X77156711Y-51920136D01*
X77341396Y-51790819D01*
X77500819Y-51631396D01*
X77630136Y-51446711D01*
X77632581Y-51441469D01*
X77665805Y-51370219D01*
X77712723Y-51316934D01*
X77781000Y-51297473D01*
X77848960Y-51318015D01*
X77894195Y-51370219D01*
X77927420Y-51441469D01*
X77929864Y-51446711D01*
X78059181Y-51631396D01*
X78218604Y-51790819D01*
X78403289Y-51920136D01*
X78408267Y-51922457D01*
X78408270Y-51922459D01*
X78601626Y-52012622D01*
X78607624Y-52015419D01*
X78612932Y-52016841D01*
X78612934Y-52016842D01*
X78820085Y-52072348D01*
X78820087Y-52072348D01*
X78825400Y-52073772D01*
X79050000Y-52093422D01*
X79274600Y-52073772D01*
X79279913Y-52072348D01*
X79279915Y-52072348D01*
X79487066Y-52016842D01*
X79487068Y-52016841D01*
X79492376Y-52015419D01*
X79498374Y-52012622D01*
X79691730Y-51922459D01*
X79691733Y-51922457D01*
X79696711Y-51920136D01*
X79765882Y-51871702D01*
X80882853Y-51871702D01*
X80892149Y-51883717D01*
X80939032Y-51916545D01*
X80948527Y-51922028D01*
X81142810Y-52012622D01*
X81153106Y-52016370D01*
X81360177Y-52071855D01*
X81370964Y-52073757D01*
X81584525Y-52092441D01*
X81595475Y-52092441D01*
X81809036Y-52073757D01*
X81819823Y-52071855D01*
X82026894Y-52016370D01*
X82037190Y-52012622D01*
X82231473Y-51922028D01*
X82240968Y-51916545D01*
X82288689Y-51883130D01*
X82297064Y-51872653D01*
X82289996Y-51859206D01*
X81602812Y-51172022D01*
X81588868Y-51164408D01*
X81587035Y-51164539D01*
X81580420Y-51168790D01*
X80889283Y-51859927D01*
X80882853Y-51871702D01*
X79765882Y-51871702D01*
X79881396Y-51790819D01*
X80040819Y-51631396D01*
X80170136Y-51446711D01*
X80172581Y-51441469D01*
X80206081Y-51369627D01*
X80252998Y-51316342D01*
X80321276Y-51296881D01*
X80389236Y-51317423D01*
X80434471Y-51369628D01*
X80467970Y-51441469D01*
X80473455Y-51450968D01*
X80506870Y-51498689D01*
X80517347Y-51507064D01*
X80530794Y-51499996D01*
X81217978Y-50812812D01*
X81225592Y-50798868D01*
X81225461Y-50797035D01*
X81221210Y-50790420D01*
X80530073Y-50099283D01*
X80518298Y-50092853D01*
X80506283Y-50102149D01*
X80473455Y-50149032D01*
X80467970Y-50158531D01*
X80434471Y-50230372D01*
X80387555Y-50283657D01*
X80319278Y-50303119D01*
X80251317Y-50282578D01*
X80206081Y-50230373D01*
X80172459Y-50158270D01*
X80172457Y-50158267D01*
X80170136Y-50153289D01*
X80040819Y-49968604D01*
X79881396Y-49809181D01*
X79764524Y-49727347D01*
X80882936Y-49727347D01*
X80890004Y-49740794D01*
X81577188Y-50427978D01*
X81591132Y-50435592D01*
X81592965Y-50435461D01*
X81599580Y-50431210D01*
X82290717Y-49740073D01*
X82297147Y-49728298D01*
X82287851Y-49716283D01*
X82240968Y-49683455D01*
X82231473Y-49677972D01*
X82037190Y-49587378D01*
X82026894Y-49583630D01*
X81819823Y-49528145D01*
X81809036Y-49526243D01*
X81595475Y-49507559D01*
X81584525Y-49507559D01*
X81370964Y-49526243D01*
X81360177Y-49528145D01*
X81153106Y-49583630D01*
X81142810Y-49587378D01*
X80948527Y-49677972D01*
X80939032Y-49683455D01*
X80891311Y-49716870D01*
X80882936Y-49727347D01*
X79764524Y-49727347D01*
X79696711Y-49679864D01*
X79691733Y-49677543D01*
X79691730Y-49677541D01*
X79497358Y-49586904D01*
X79497357Y-49586903D01*
X79492376Y-49584581D01*
X79487068Y-49583159D01*
X79487066Y-49583158D01*
X79279915Y-49527652D01*
X79279913Y-49527652D01*
X79274600Y-49526228D01*
X79050000Y-49506578D01*
X78825400Y-49526228D01*
X78820087Y-49527652D01*
X78820085Y-49527652D01*
X78612934Y-49583158D01*
X78612932Y-49583159D01*
X78607624Y-49584581D01*
X78602643Y-49586903D01*
X78602642Y-49586904D01*
X78408270Y-49677541D01*
X78408267Y-49677543D01*
X78403289Y-49679864D01*
X78218604Y-49809181D01*
X78059181Y-49968604D01*
X77929864Y-50153289D01*
X77927543Y-50158267D01*
X77927541Y-50158270D01*
X77894195Y-50229781D01*
X77847277Y-50283066D01*
X77779000Y-50302527D01*
X77711040Y-50281985D01*
X77665805Y-50229781D01*
X77632459Y-50158270D01*
X77632457Y-50158267D01*
X77630136Y-50153289D01*
X77500819Y-49968604D01*
X77341396Y-49809181D01*
X77156711Y-49679864D01*
X77151733Y-49677543D01*
X77151730Y-49677541D01*
X76957358Y-49586904D01*
X76957357Y-49586903D01*
X76952376Y-49584581D01*
X76947068Y-49583159D01*
X76947066Y-49583158D01*
X76739915Y-49527652D01*
X76739913Y-49527652D01*
X76734600Y-49526228D01*
X76510000Y-49506578D01*
X76285400Y-49526228D01*
X76280087Y-49527652D01*
X76280085Y-49527652D01*
X76072934Y-49583158D01*
X76072932Y-49583159D01*
X76067624Y-49584581D01*
X76062643Y-49586903D01*
X76062642Y-49586904D01*
X75868270Y-49677541D01*
X75868267Y-49677543D01*
X75863289Y-49679864D01*
X75678604Y-49809181D01*
X75519181Y-49968604D01*
X75389864Y-50153289D01*
X75387543Y-50158267D01*
X75387541Y-50158270D01*
X75354195Y-50229781D01*
X75307277Y-50283066D01*
X75239000Y-50302527D01*
X75171040Y-50281985D01*
X75125805Y-50229781D01*
X75092459Y-50158270D01*
X75092457Y-50158267D01*
X75090136Y-50153289D01*
X74960819Y-49968604D01*
X74801396Y-49809181D01*
X74616711Y-49679864D01*
X74611733Y-49677543D01*
X74611730Y-49677541D01*
X74417358Y-49586904D01*
X74417357Y-49586903D01*
X74412376Y-49584581D01*
X74407068Y-49583159D01*
X74407066Y-49583158D01*
X74199915Y-49527652D01*
X74199913Y-49527652D01*
X74194600Y-49526228D01*
X73970000Y-49506578D01*
X73745400Y-49526228D01*
X73740087Y-49527652D01*
X73740085Y-49527652D01*
X73532934Y-49583158D01*
X73532932Y-49583159D01*
X73527624Y-49584581D01*
X73522643Y-49586903D01*
X73522642Y-49586904D01*
X73328270Y-49677541D01*
X73328267Y-49677543D01*
X73323289Y-49679864D01*
X73138604Y-49809181D01*
X72979181Y-49968604D01*
X72849864Y-50153289D01*
X72847543Y-50158267D01*
X72847541Y-50158270D01*
X72814195Y-50229781D01*
X72767277Y-50283066D01*
X72699000Y-50302527D01*
X72631040Y-50281985D01*
X72585805Y-50229781D01*
X72552459Y-50158270D01*
X72552457Y-50158267D01*
X72550136Y-50153289D01*
X72420819Y-49968604D01*
X72261396Y-49809181D01*
X72076711Y-49679864D01*
X72071733Y-49677543D01*
X72071730Y-49677541D01*
X71877358Y-49586904D01*
X71877357Y-49586903D01*
X71872376Y-49584581D01*
X71867068Y-49583159D01*
X71867066Y-49583158D01*
X71659915Y-49527652D01*
X71659913Y-49527652D01*
X71654600Y-49526228D01*
X71430000Y-49506578D01*
X71205400Y-49526228D01*
X71200087Y-49527652D01*
X71200085Y-49527652D01*
X70992934Y-49583158D01*
X70992932Y-49583159D01*
X70987624Y-49584581D01*
X70982643Y-49586903D01*
X70982642Y-49586904D01*
X70788270Y-49677541D01*
X70788267Y-49677543D01*
X70783289Y-49679864D01*
X70598604Y-49809181D01*
X70439181Y-49968604D01*
X70309864Y-50153289D01*
X70307543Y-50158267D01*
X70307541Y-50158270D01*
X70274195Y-50229781D01*
X70227277Y-50283066D01*
X70159000Y-50302527D01*
X70091040Y-50281985D01*
X70045805Y-50229781D01*
X70012459Y-50158270D01*
X70012457Y-50158267D01*
X70010136Y-50153289D01*
X69880819Y-49968604D01*
X69721396Y-49809181D01*
X69536711Y-49679864D01*
X69531733Y-49677543D01*
X69531730Y-49677541D01*
X69337358Y-49586904D01*
X69337357Y-49586903D01*
X69332376Y-49584581D01*
X69327068Y-49583159D01*
X69327066Y-49583158D01*
X69119915Y-49527652D01*
X69119913Y-49527652D01*
X69114600Y-49526228D01*
X68890000Y-49506578D01*
X68665400Y-49526228D01*
X68660087Y-49527652D01*
X68660085Y-49527652D01*
X68452934Y-49583158D01*
X68452932Y-49583159D01*
X68447624Y-49584581D01*
X68442643Y-49586903D01*
X68442642Y-49586904D01*
X68248270Y-49677541D01*
X68248267Y-49677543D01*
X68243289Y-49679864D01*
X68058604Y-49809181D01*
X67899181Y-49968604D01*
X67769864Y-50153289D01*
X67767543Y-50158267D01*
X67767541Y-50158270D01*
X67733919Y-50230373D01*
X67687002Y-50283658D01*
X67618724Y-50303119D01*
X67550764Y-50282577D01*
X67505529Y-50230372D01*
X67472030Y-50158531D01*
X67466545Y-50149032D01*
X67433130Y-50101311D01*
X67422653Y-50092936D01*
X67409206Y-50100004D01*
X66722022Y-50787188D01*
X66714408Y-50801132D01*
X66047694Y-50801132D01*
X66050924Y-50755968D01*
X66079885Y-50710905D01*
X67050717Y-49740073D01*
X67057147Y-49728298D01*
X67047851Y-49716283D01*
X67000968Y-49683455D01*
X66991473Y-49677972D01*
X66797190Y-49587378D01*
X66786894Y-49583630D01*
X66579823Y-49528145D01*
X66569036Y-49526243D01*
X66355475Y-49507559D01*
X66344525Y-49507559D01*
X66130964Y-49526243D01*
X66120177Y-49528145D01*
X65913106Y-49583630D01*
X65902810Y-49587378D01*
X65708527Y-49677972D01*
X65699032Y-49683455D01*
X65558271Y-49782017D01*
X65490997Y-49804705D01*
X65422137Y-49787420D01*
X65373552Y-49735651D01*
X65360000Y-49678804D01*
X65360000Y-49000000D01*
X59494000Y-49000000D01*
X59425879Y-48979998D01*
X59379386Y-48926342D01*
X59368000Y-48874000D01*
X59368000Y-42827526D01*
X71852050Y-42827526D01*
X71852274Y-42832192D01*
X71852274Y-42832197D01*
X71854946Y-42887812D01*
X71864947Y-43096019D01*
X71917388Y-43359656D01*
X72008220Y-43612646D01*
X72135450Y-43849431D01*
X72138241Y-43853168D01*
X72138245Y-43853175D01*
X72214405Y-43955165D01*
X72296281Y-44064810D01*
X72299590Y-44068090D01*
X72299595Y-44068096D01*
X72483863Y-44250762D01*
X72487180Y-44254050D01*
X72490942Y-44256808D01*
X72490945Y-44256811D01*
X72602737Y-44338780D01*
X72703954Y-44412995D01*
X72708089Y-44415171D01*
X72708093Y-44415173D01*
X72937698Y-44535975D01*
X72941840Y-44538154D01*
X73195613Y-44626775D01*
X73200206Y-44627647D01*
X73455109Y-44676042D01*
X73455112Y-44676042D01*
X73459698Y-44676913D01*
X73587370Y-44681929D01*
X73723625Y-44687283D01*
X73723630Y-44687283D01*
X73728293Y-44687466D01*
X73832607Y-44676042D01*
X73990844Y-44658713D01*
X73990850Y-44658712D01*
X73995497Y-44658203D01*
X74000021Y-44657012D01*
X74250918Y-44590956D01*
X74250920Y-44590955D01*
X74255441Y-44589765D01*
X74362795Y-44543642D01*
X74498120Y-44485502D01*
X74498122Y-44485501D01*
X74502414Y-44483657D01*
X74631943Y-44403502D01*
X74727017Y-44344669D01*
X74727021Y-44344666D01*
X74730990Y-44342210D01*
X74757337Y-44319906D01*
X77664839Y-44319906D01*
X77673553Y-44331427D01*
X77780452Y-44409809D01*
X77788351Y-44414745D01*
X78017905Y-44535519D01*
X78026454Y-44539236D01*
X78271327Y-44624749D01*
X78280336Y-44627163D01*
X78535166Y-44675544D01*
X78544423Y-44676598D01*
X78803607Y-44686783D01*
X78812921Y-44686457D01*
X79070753Y-44658220D01*
X79079930Y-44656519D01*
X79330758Y-44590481D01*
X79339574Y-44587445D01*
X79577880Y-44485062D01*
X79586167Y-44480748D01*
X79806718Y-44344266D01*
X79814268Y-44338780D01*
X79819559Y-44334301D01*
X79827997Y-44321497D01*
X79821935Y-44311145D01*
X78757812Y-43247022D01*
X78743868Y-43239408D01*
X78742035Y-43239539D01*
X78735420Y-43243790D01*
X77671497Y-44307713D01*
X77664839Y-44319906D01*
X74757337Y-44319906D01*
X74936149Y-44168530D01*
X75113382Y-43966434D01*
X75120631Y-43955165D01*
X75256269Y-43744291D01*
X75258797Y-43740361D01*
X75369199Y-43495278D01*
X75406247Y-43363917D01*
X75440893Y-43241072D01*
X75440894Y-43241069D01*
X75442163Y-43236568D01*
X75460043Y-43096019D01*
X75475688Y-42973045D01*
X75475688Y-42973041D01*
X75476086Y-42969915D01*
X75476170Y-42966733D01*
X75477477Y-42916779D01*
X75478571Y-42875000D01*
X75475391Y-42832211D01*
X76932775Y-42832211D01*
X76945220Y-43091288D01*
X76946356Y-43100543D01*
X76996961Y-43354945D01*
X76999449Y-43363917D01*
X77087095Y-43608033D01*
X77090895Y-43616568D01*
X77213658Y-43845042D01*
X77218666Y-43852904D01*
X77288720Y-43946716D01*
X77299979Y-43955165D01*
X77312397Y-43948393D01*
X78372978Y-42887812D01*
X78379356Y-42876132D01*
X79109408Y-42876132D01*
X79109539Y-42877965D01*
X79113790Y-42884580D01*
X80181094Y-43951884D01*
X80193474Y-43958644D01*
X80201815Y-43952400D01*
X80335832Y-43744048D01*
X80340275Y-43735864D01*
X80446807Y-43499370D01*
X80449997Y-43490605D01*
X80520402Y-43240972D01*
X80522262Y-43231830D01*
X80555187Y-42973019D01*
X80555668Y-42966733D01*
X80557987Y-42878160D01*
X80557836Y-42871851D01*
X80538501Y-42611663D01*
X80537125Y-42602457D01*
X80479878Y-42349467D01*
X80477154Y-42340556D01*
X80383143Y-42098806D01*
X80379132Y-42090397D01*
X80250422Y-41865202D01*
X80245211Y-41857476D01*
X80201996Y-41802658D01*
X80190071Y-41794187D01*
X80178537Y-41800673D01*
X79117022Y-42862188D01*
X79109408Y-42876132D01*
X78379356Y-42876132D01*
X78380592Y-42873868D01*
X78380461Y-42872035D01*
X78376210Y-42865420D01*
X77310816Y-41800026D01*
X77297507Y-41792758D01*
X77287472Y-41799878D01*
X77271937Y-41818556D01*
X77266531Y-41826135D01*
X77131965Y-42047891D01*
X77127736Y-42056192D01*
X77027432Y-42295389D01*
X77024471Y-42304239D01*
X76960628Y-42555625D01*
X76959006Y-42564822D01*
X76933020Y-42822885D01*
X76932775Y-42832211D01*
X75475391Y-42832211D01*
X75458650Y-42606937D01*
X75457619Y-42602379D01*
X75400361Y-42349331D01*
X75400360Y-42349326D01*
X75399327Y-42344763D01*
X75301902Y-42094238D01*
X75168518Y-41860864D01*
X75138521Y-41822812D01*
X75078954Y-41747252D01*
X75002105Y-41649769D01*
X74806317Y-41465591D01*
X74751682Y-41427689D01*
X77662102Y-41427689D01*
X77666675Y-41437465D01*
X78732188Y-42502978D01*
X78746132Y-42510592D01*
X78747965Y-42510461D01*
X78754580Y-42506210D01*
X79819349Y-41441441D01*
X79825733Y-41429751D01*
X79816321Y-41417641D01*
X79669045Y-41315471D01*
X79661010Y-41310738D01*
X79428376Y-41196016D01*
X79419743Y-41192528D01*
X79172703Y-41113450D01*
X79163643Y-41111274D01*
X78907630Y-41069580D01*
X78898343Y-41068768D01*
X78638992Y-41065373D01*
X78629681Y-41065943D01*
X78372682Y-41100919D01*
X78363546Y-41102860D01*
X78114543Y-41175439D01*
X78105800Y-41178707D01*
X77870252Y-41287296D01*
X77862097Y-41291816D01*
X77671240Y-41416947D01*
X77662102Y-41427689D01*
X74751682Y-41427689D01*
X74608407Y-41328295D01*
X74589299Y-41315039D01*
X74589296Y-41315037D01*
X74585457Y-41312374D01*
X74543770Y-41291816D01*
X74348564Y-41195551D01*
X74348561Y-41195550D01*
X74344376Y-41193486D01*
X74298207Y-41178707D01*
X74118657Y-41121233D01*
X74088370Y-41111538D01*
X74083763Y-41110788D01*
X74083760Y-41110787D01*
X73870337Y-41076029D01*
X73823063Y-41068330D01*
X73692719Y-41066624D01*
X73558961Y-41064873D01*
X73558958Y-41064873D01*
X73554284Y-41064812D01*
X73287937Y-41101060D01*
X73283451Y-41102368D01*
X73283449Y-41102368D01*
X73218726Y-41121233D01*
X73029874Y-41176278D01*
X72785763Y-41288815D01*
X72781854Y-41291378D01*
X72564881Y-41433631D01*
X72564876Y-41433635D01*
X72560968Y-41436197D01*
X72500060Y-41490560D01*
X72419466Y-41562493D01*
X72360426Y-41615188D01*
X72188544Y-41821854D01*
X72049096Y-42051656D01*
X72047287Y-42055970D01*
X72047285Y-42055974D01*
X71981265Y-42213416D01*
X71945148Y-42299545D01*
X71878981Y-42560077D01*
X71852050Y-42827526D01*
X59368000Y-42827526D01*
X59368000Y-38553207D01*
X59369746Y-38532303D01*
X59372264Y-38517335D01*
X59373071Y-38512539D01*
X59373224Y-38500000D01*
X60146411Y-38500000D01*
X60166754Y-38888176D01*
X60227562Y-39272099D01*
X60328167Y-39647562D01*
X60467468Y-40010453D01*
X60643938Y-40356794D01*
X60855643Y-40682793D01*
X61100266Y-40984876D01*
X61375124Y-41259734D01*
X61377682Y-41261806D01*
X61377686Y-41261809D01*
X61508377Y-41367641D01*
X61677207Y-41504357D01*
X61679970Y-41506152D01*
X61679971Y-41506152D01*
X61979382Y-41700591D01*
X62003205Y-41716062D01*
X62006139Y-41717557D01*
X62006146Y-41717561D01*
X62280194Y-41857195D01*
X62349547Y-41892532D01*
X62712438Y-42031833D01*
X63087901Y-42132438D01*
X63291793Y-42164732D01*
X63468576Y-42192732D01*
X63468584Y-42192733D01*
X63471824Y-42193246D01*
X63860000Y-42213589D01*
X64248176Y-42193246D01*
X64251416Y-42192733D01*
X64251424Y-42192732D01*
X64428207Y-42164732D01*
X64632099Y-42132438D01*
X65007562Y-42031833D01*
X65370453Y-41892532D01*
X65439806Y-41857195D01*
X65713854Y-41717561D01*
X65713861Y-41717557D01*
X65716795Y-41716062D01*
X65740619Y-41700591D01*
X66040029Y-41506152D01*
X66040030Y-41506152D01*
X66042793Y-41504357D01*
X66211623Y-41367641D01*
X66342314Y-41261809D01*
X66342318Y-41261806D01*
X66344876Y-41259734D01*
X66619734Y-40984876D01*
X66864357Y-40682793D01*
X67076062Y-40356794D01*
X67252532Y-40010453D01*
X67391833Y-39647562D01*
X67492438Y-39272099D01*
X67553246Y-38888176D01*
X67573589Y-38500000D01*
X67553246Y-38111824D01*
X67492438Y-37727901D01*
X67391833Y-37352438D01*
X67252532Y-36989547D01*
X67076062Y-36643206D01*
X66864357Y-36317207D01*
X66619734Y-36015124D01*
X66344876Y-35740266D01*
X66042793Y-35495643D01*
X65784232Y-35327732D01*
X65719564Y-35285736D01*
X65719561Y-35285734D01*
X65716795Y-35283938D01*
X65713861Y-35282443D01*
X65713854Y-35282439D01*
X65373393Y-35108966D01*
X65370453Y-35107468D01*
X65007562Y-34968167D01*
X64632099Y-34867562D01*
X64428207Y-34835268D01*
X64251424Y-34807268D01*
X64251416Y-34807267D01*
X64248176Y-34806754D01*
X63860000Y-34786411D01*
X63471824Y-34806754D01*
X63468584Y-34807267D01*
X63468576Y-34807268D01*
X63291793Y-34835268D01*
X63087901Y-34867562D01*
X62712438Y-34968167D01*
X62349547Y-35107468D01*
X62346607Y-35108966D01*
X62006147Y-35282439D01*
X62006140Y-35282443D01*
X62003206Y-35283938D01*
X61677207Y-35495643D01*
X61375124Y-35740266D01*
X61100266Y-36015124D01*
X60855643Y-36317207D01*
X60643938Y-36643206D01*
X60467468Y-36989547D01*
X60328167Y-37352438D01*
X60227562Y-37727901D01*
X60166754Y-38111824D01*
X60146411Y-38500000D01*
X59373224Y-38500000D01*
X59370885Y-38483664D01*
X59369733Y-38460311D01*
X59370422Y-38444542D01*
X59384853Y-38113993D01*
X59385811Y-38103042D01*
X59435527Y-37725421D01*
X59437436Y-37714597D01*
X59519870Y-37342757D01*
X59522715Y-37332139D01*
X59581181Y-37146710D01*
X59637248Y-36968890D01*
X59641004Y-36958568D01*
X59743953Y-36710026D01*
X59786766Y-36606666D01*
X59791399Y-36596731D01*
X59967278Y-36258872D01*
X59972768Y-36249363D01*
X60177410Y-35928140D01*
X60183714Y-35919136D01*
X60415583Y-35616957D01*
X60422649Y-35608537D01*
X60679959Y-35327732D01*
X60687732Y-35319959D01*
X60968537Y-35062649D01*
X60976957Y-35055583D01*
X61279136Y-34823714D01*
X61288140Y-34817410D01*
X61609363Y-34612768D01*
X61618872Y-34607278D01*
X61956731Y-34431399D01*
X61966666Y-34426766D01*
X62318575Y-34281001D01*
X62328890Y-34277248D01*
X62692140Y-34162715D01*
X62702757Y-34159870D01*
X63074597Y-34077436D01*
X63085421Y-34075527D01*
X63463042Y-34025811D01*
X63473993Y-34024853D01*
X63741226Y-34013186D01*
X63816583Y-34009896D01*
X63841462Y-34011276D01*
X63853730Y-34013186D01*
X63885252Y-34009064D01*
X63901589Y-34008000D01*
X123810672Y-34008000D01*
X123830057Y-34009500D01*
G37*
%TD.AperFunction*%
%TA.AperFunction,Conductor*%
G36*
X90951121Y-66766002D02*
G01*
X90997614Y-66819658D01*
X91009000Y-66872000D01*
X91009000Y-67834255D01*
X91014000Y-67869029D01*
X91014000Y-70836878D01*
X91017973Y-70850409D01*
X91025870Y-70851544D01*
X91110346Y-70827001D01*
X91181342Y-70827203D01*
X91240959Y-70865757D01*
X91270268Y-70930422D01*
X91271500Y-70947998D01*
X91271500Y-73013629D01*
X91251498Y-73081750D01*
X91234595Y-73102724D01*
X89454529Y-74882790D01*
X89392217Y-74916816D01*
X89354452Y-74919216D01*
X89215475Y-74907057D01*
X89210000Y-74906578D01*
X89107337Y-74915560D01*
X89037732Y-74901571D01*
X88986740Y-74852172D01*
X88970549Y-74783046D01*
X88973966Y-74760091D01*
X88976473Y-74749844D01*
X88977808Y-74744390D01*
X88978500Y-74733236D01*
X88978536Y-74733238D01*
X88978775Y-74729245D01*
X88979149Y-74725053D01*
X88980640Y-74717885D01*
X88978546Y-74640479D01*
X88978500Y-74637072D01*
X88978500Y-70948519D01*
X88998502Y-70880398D01*
X89052158Y-70833905D01*
X89122432Y-70823801D01*
X89139652Y-70827522D01*
X89229989Y-70853767D01*
X89229993Y-70853768D01*
X89236169Y-70855562D01*
X89242574Y-70856066D01*
X89242579Y-70856067D01*
X89271042Y-70858307D01*
X89271050Y-70858307D01*
X89273498Y-70858500D01*
X89706502Y-70858500D01*
X89708950Y-70858307D01*
X89708958Y-70858307D01*
X89737421Y-70856067D01*
X89737426Y-70856066D01*
X89743831Y-70855562D01*
X89853154Y-70823801D01*
X89895988Y-70811357D01*
X89895990Y-70811356D01*
X89903601Y-70809145D01*
X90046807Y-70724453D01*
X90049747Y-70721513D01*
X90114271Y-70696179D01*
X90183894Y-70710080D01*
X90202640Y-70722129D01*
X90210323Y-70728089D01*
X90339779Y-70804648D01*
X90354210Y-70810893D01*
X90488605Y-70849939D01*
X90502706Y-70849899D01*
X90506000Y-70842630D01*
X90506000Y-68365745D01*
X90501000Y-68330971D01*
X90501000Y-66872000D01*
X90521002Y-66803879D01*
X90574658Y-66757386D01*
X90627000Y-66746000D01*
X90883000Y-66746000D01*
X90951121Y-66766002D01*
G37*
%TD.AperFunction*%
%TA.AperFunction,Conductor*%
G36*
X93491121Y-59146002D02*
G01*
X93537614Y-59199658D01*
X93549000Y-59252000D01*
X93549000Y-60647967D01*
X93552973Y-60661498D01*
X93561522Y-60662727D01*
X93738761Y-60615236D01*
X93749053Y-60611490D01*
X93946511Y-60519414D01*
X93956007Y-60513931D01*
X94134467Y-60388972D01*
X94142875Y-60381916D01*
X94296916Y-60227875D01*
X94303972Y-60219467D01*
X94428931Y-60041007D01*
X94434414Y-60031511D01*
X94450529Y-59996951D01*
X94497446Y-59943666D01*
X94565723Y-59924205D01*
X94633683Y-59944747D01*
X94678919Y-59996951D01*
X94695151Y-60031762D01*
X94695154Y-60031767D01*
X94697477Y-60036749D01*
X94828802Y-60224300D01*
X94990700Y-60386198D01*
X94995209Y-60389355D01*
X94999424Y-60392892D01*
X94997871Y-60394743D01*
X95035796Y-60442211D01*
X95043090Y-60512832D01*
X95008282Y-60579037D01*
X92811089Y-62776230D01*
X92796677Y-62788616D01*
X92785082Y-62797149D01*
X92785077Y-62797154D01*
X92779182Y-62801492D01*
X92774443Y-62807070D01*
X92774440Y-62807073D01*
X92744965Y-62841768D01*
X92738035Y-62849284D01*
X92732340Y-62854979D01*
X92730060Y-62857861D01*
X92714719Y-62877251D01*
X92711928Y-62880655D01*
X92669409Y-62930703D01*
X92664667Y-62936285D01*
X92661338Y-62942804D01*
X92657986Y-62947830D01*
X92654811Y-62952971D01*
X92650266Y-62958716D01*
X92647163Y-62965355D01*
X92645857Y-62967470D01*
X92593045Y-63014919D01*
X92522964Y-63026284D01*
X92474513Y-63009718D01*
X92450221Y-62995352D01*
X92435790Y-62989107D01*
X92301395Y-62950061D01*
X92287294Y-62950101D01*
X92284000Y-62957370D01*
X92284000Y-65886878D01*
X92288475Y-65902117D01*
X92304123Y-65915676D01*
X92327323Y-65926270D01*
X92365709Y-65985995D01*
X92365712Y-66056991D01*
X92333909Y-66110593D01*
X92288802Y-66155700D01*
X92285645Y-66160208D01*
X92285643Y-66160211D01*
X92230902Y-66238389D01*
X92157477Y-66343251D01*
X92155154Y-66348233D01*
X92155151Y-66348238D01*
X92138919Y-66383049D01*
X92092002Y-66436334D01*
X92023725Y-66455795D01*
X91955765Y-66435253D01*
X91910529Y-66383049D01*
X91894414Y-66348489D01*
X91888931Y-66338993D01*
X91763972Y-66160533D01*
X91756916Y-66152125D01*
X91719682Y-66114891D01*
X91685656Y-66052579D01*
X91690721Y-65981764D01*
X91733268Y-65924928D01*
X91744024Y-65920916D01*
X91743421Y-65919983D01*
X91771971Y-65901520D01*
X91776000Y-65892630D01*
X91776000Y-62963122D01*
X91772027Y-62949591D01*
X91764129Y-62948456D01*
X91674653Y-62974451D01*
X91603657Y-62974248D01*
X91544040Y-62935694D01*
X91514732Y-62871030D01*
X91513500Y-62853454D01*
X91513500Y-60511867D01*
X91533502Y-60443746D01*
X91567228Y-60408655D01*
X91599300Y-60386198D01*
X91761198Y-60224300D01*
X91892523Y-60036749D01*
X91894846Y-60031767D01*
X91894849Y-60031762D01*
X91911081Y-59996951D01*
X91957998Y-59943666D01*
X92026275Y-59924205D01*
X92094235Y-59944747D01*
X92139471Y-59996951D01*
X92155586Y-60031511D01*
X92161069Y-60041007D01*
X92286028Y-60219467D01*
X92293084Y-60227875D01*
X92447125Y-60381916D01*
X92455533Y-60388972D01*
X92633993Y-60513931D01*
X92643489Y-60519414D01*
X92840947Y-60611490D01*
X92851239Y-60615236D01*
X93023503Y-60661394D01*
X93037599Y-60661058D01*
X93041000Y-60653116D01*
X93041000Y-59252000D01*
X93061002Y-59183879D01*
X93114658Y-59137386D01*
X93167000Y-59126000D01*
X93423000Y-59126000D01*
X93491121Y-59146002D01*
G37*
%TD.AperFunction*%
%TA.AperFunction,Conductor*%
G36*
X87013683Y-59944747D02*
G01*
X87058919Y-59996951D01*
X87075151Y-60031762D01*
X87075154Y-60031767D01*
X87077477Y-60036749D01*
X87208802Y-60224300D01*
X87370700Y-60386198D01*
X87375208Y-60389355D01*
X87375211Y-60389357D01*
X87380260Y-60392892D01*
X87558251Y-60517523D01*
X87563233Y-60519846D01*
X87563238Y-60519849D01*
X87759765Y-60611490D01*
X87765757Y-60614284D01*
X87771065Y-60615706D01*
X87771067Y-60615707D01*
X87981598Y-60672119D01*
X87981600Y-60672119D01*
X87986913Y-60673543D01*
X88215000Y-60693498D01*
X88220475Y-60693019D01*
X88377913Y-60679245D01*
X88447518Y-60693234D01*
X88477990Y-60715671D01*
X88694595Y-60932276D01*
X88728621Y-60994588D01*
X88731500Y-61021371D01*
X88731500Y-62852002D01*
X88711498Y-62920123D01*
X88657842Y-62966616D01*
X88587568Y-62976720D01*
X88570346Y-62972999D01*
X88491395Y-62950061D01*
X88477294Y-62950101D01*
X88474000Y-62957370D01*
X88474000Y-64553000D01*
X88453998Y-64621121D01*
X88400342Y-64667614D01*
X88348000Y-64679000D01*
X88092000Y-64679000D01*
X88023879Y-64658998D01*
X87977386Y-64605342D01*
X87966000Y-64553000D01*
X87966000Y-62963122D01*
X87962027Y-62949591D01*
X87954130Y-62948456D01*
X87810965Y-62990050D01*
X87739968Y-62989847D01*
X87680352Y-62951294D01*
X87655944Y-62907884D01*
X87646609Y-62879067D01*
X87646608Y-62879064D01*
X87644352Y-62872101D01*
X87640556Y-62865846D01*
X87638057Y-62860387D01*
X87635329Y-62854939D01*
X87632833Y-62848063D01*
X87592805Y-62787010D01*
X87590481Y-62783327D01*
X87586175Y-62776230D01*
X87579097Y-62764567D01*
X87555504Y-62725686D01*
X87555501Y-62725682D01*
X87552595Y-62720893D01*
X87548886Y-62716694D01*
X87548883Y-62716689D01*
X87545197Y-62712516D01*
X87545224Y-62712492D01*
X87542571Y-62709500D01*
X87539868Y-62706267D01*
X87535856Y-62700148D01*
X87479617Y-62646872D01*
X87477175Y-62644494D01*
X85728756Y-60896075D01*
X85694730Y-60833763D01*
X85699795Y-60762948D01*
X85742342Y-60706112D01*
X85806870Y-60681459D01*
X85897520Y-60673528D01*
X85908312Y-60671625D01*
X86118761Y-60615236D01*
X86129053Y-60611490D01*
X86326511Y-60519414D01*
X86336007Y-60513931D01*
X86514467Y-60388972D01*
X86522875Y-60381916D01*
X86676916Y-60227875D01*
X86683972Y-60219467D01*
X86808931Y-60041007D01*
X86814414Y-60031511D01*
X86830529Y-59996951D01*
X86877446Y-59943666D01*
X86945723Y-59924205D01*
X87013683Y-59944747D01*
G37*
%TD.AperFunction*%
%TD*%
M02*
