%TF.GenerationSoftware,KiCad,Pcbnew,(6.0.0)*%
%TF.CreationDate,2022-09-21T16:06:09+02:00*%
%TF.ProjectId,ESP32_Wled_hub,45535033-325f-4576-9c65-645f6875622e,rev?*%
%TF.SameCoordinates,Original*%
%TF.FileFunction,Soldermask,Bot*%
%TF.FilePolarity,Negative*%
%FSLAX46Y46*%
G04 Gerber Fmt 4.6, Leading zero omitted, Abs format (unit mm)*
G04 Created by KiCad (PCBNEW (6.0.0)) date 2022-09-21 16:06:09*
%MOMM*%
%LPD*%
G01*
G04 APERTURE LIST*
%ADD10R,2.600000X2.600000*%
%ADD11C,2.600000*%
%ADD12C,6.400000*%
%ADD13C,0.800000*%
%ADD14R,1.560000X1.560000*%
%ADD15C,1.560000*%
%ADD16C,1.600000*%
%ADD17R,1.600000X1.600000*%
%ADD18O,1.600000X1.600000*%
G04 APERTURE END LIST*
D10*
%TO.C,J5*%
X104145000Y-42875000D03*
D11*
X99065000Y-42875000D03*
X93985000Y-42875000D03*
%TD*%
D12*
%TO.C,H4*%
X63860000Y-88500000D03*
D13*
X65557056Y-90197056D03*
X63860000Y-86100000D03*
X62162944Y-90197056D03*
X63860000Y-90900000D03*
X62162944Y-86802944D03*
X66260000Y-88500000D03*
X61460000Y-88500000D03*
X65557056Y-86802944D03*
%TD*%
D14*
%TO.C,U2*%
X66350000Y-76200000D03*
D15*
X68890000Y-76200000D03*
X71430000Y-76200000D03*
X73970000Y-76200000D03*
X76510000Y-76200000D03*
X79050000Y-76200000D03*
X81590000Y-76200000D03*
X84130000Y-76200000D03*
X86670000Y-76200000D03*
X89210000Y-76200000D03*
X91750000Y-76200000D03*
X94290000Y-76200000D03*
X96830000Y-76200000D03*
X99370000Y-76200000D03*
X101910000Y-76200000D03*
X104450000Y-76200000D03*
X106990000Y-76200000D03*
X109530000Y-76200000D03*
X112070000Y-76200000D03*
X66350000Y-50800000D03*
X68890000Y-50800000D03*
X71430000Y-50800000D03*
X73970000Y-50800000D03*
X76510000Y-50800000D03*
X79050000Y-50800000D03*
X81590000Y-50800000D03*
X84130000Y-50800000D03*
X86670000Y-50800000D03*
X89210000Y-50800000D03*
X91750000Y-50800000D03*
X94290000Y-50800000D03*
X96830000Y-50800000D03*
X99370000Y-50800000D03*
X101910000Y-50800000D03*
X104450000Y-50800000D03*
X106990000Y-50800000D03*
X109530000Y-50800000D03*
X112070000Y-50800000D03*
%TD*%
D13*
%TO.C,H3*%
X125557056Y-86802944D03*
X123860000Y-90900000D03*
X121460000Y-88500000D03*
X122162944Y-90197056D03*
X123860000Y-86100000D03*
D12*
X123860000Y-88500000D03*
D13*
X122162944Y-86802944D03*
X126260000Y-88500000D03*
X125557056Y-90197056D03*
%TD*%
D10*
%TO.C,J6*%
X93980000Y-83820000D03*
D11*
X99060000Y-83820000D03*
X104140000Y-83820000D03*
%TD*%
D10*
%TO.C,J4*%
X73655000Y-84125000D03*
D11*
X78735000Y-84125000D03*
X83815000Y-84125000D03*
%TD*%
D13*
%TO.C,H1*%
X65557056Y-40197056D03*
X65557056Y-36802944D03*
D12*
X63860000Y-38500000D03*
D13*
X61460000Y-38500000D03*
X63860000Y-36100000D03*
X62162944Y-36802944D03*
X66260000Y-38500000D03*
X63860000Y-40900000D03*
X62162944Y-40197056D03*
%TD*%
%TO.C,H2*%
X126260000Y-38500000D03*
X121460000Y-38500000D03*
X125557056Y-36802944D03*
X125557056Y-40197056D03*
D12*
X123860000Y-38500000D03*
D13*
X122162944Y-36802944D03*
X122162944Y-40197056D03*
X123860000Y-36100000D03*
X123860000Y-40900000D03*
%TD*%
D16*
%TO.C,C1*%
X118860000Y-48800000D03*
X123860000Y-48800000D03*
%TD*%
D10*
%TO.C,J1*%
X120360000Y-78500000D03*
D11*
X120360000Y-73420000D03*
%TD*%
D17*
%TO.C,U1*%
X83135000Y-67000000D03*
D18*
X85675000Y-67000000D03*
X88215000Y-67000000D03*
X90755000Y-67000000D03*
X93295000Y-67000000D03*
X95835000Y-67000000D03*
X98375000Y-67000000D03*
X98375000Y-59380000D03*
X95835000Y-59380000D03*
X93295000Y-59380000D03*
X90755000Y-59380000D03*
X88215000Y-59380000D03*
X85675000Y-59380000D03*
X83135000Y-59380000D03*
%TD*%
D10*
%TO.C,J7*%
X83825000Y-42875000D03*
D11*
X78745000Y-42875000D03*
X73665000Y-42875000D03*
%TD*%
M02*
