M48
; DRILL file {KiCad (6.0.0)} date Wed Sep 21 16:06:09 2022
; FORMAT={-:-/ absolute / inch / decimal}
; #@! TF.CreationDate,2022-09-21T16:06:09+02:00
; #@! TF.GenerationSoftware,Kicad,Pcbnew,(6.0.0)
; #@! TF.FileFunction,Plated,1,2,PTH
FMAT,2
INCH
; #@! TA.AperFunction,Plated,PTH,ViaDrill
T1C0.0157
; #@! TA.AperFunction,Plated,PTH,ComponentDrill
T2C0.0197
; #@! TA.AperFunction,Plated,PTH,ComponentDrill
T3C0.0315
; #@! TA.AperFunction,Plated,PTH,ComponentDrill
T4C0.0409
; #@! TA.AperFunction,Plated,PTH,ComponentDrill
T5C0.0512
; #@! TA.AperFunction,Plated,PTH,ComponentDrill
T6C0.1260
%
G90
G05
T1
X3.4157Y-2.8543
X3.5496Y-2.8543
X3.7858Y-2.7441
X4.1323Y-2.9173
X4.2268Y-2.9173
T2
X2.4197Y-1.5157
X2.4197Y-3.4843
X2.4474Y-1.4489
X2.4474Y-1.5826
X2.4474Y-3.4174
X2.4474Y-3.5511
X2.5142Y-1.4213
X2.5142Y-1.6102
X2.5142Y-3.3898
X2.5142Y-3.5787
X2.581Y-1.4489
X2.581Y-1.5826
X2.581Y-3.4174
X2.581Y-3.5511
X2.6087Y-1.5157
X2.6087Y-3.4843
X4.7819Y-1.5157
X4.7819Y-3.4843
X4.8096Y-1.4489
X4.8096Y-1.5826
X4.8096Y-3.4174
X4.8096Y-3.5511
X4.8764Y-1.4213
X4.8764Y-1.6102
X4.8764Y-3.3898
X4.8764Y-3.5787
X4.9432Y-1.4489
X4.9432Y-1.5826
X4.9432Y-3.4174
X4.9432Y-3.5511
X4.9709Y-1.5157
X4.9709Y-3.4843
T3
X3.273Y-2.3378
X3.273Y-2.6378
X3.373Y-2.3378
X3.373Y-2.6378
X3.473Y-2.3378
X3.473Y-2.6378
X3.573Y-2.3378
X3.573Y-2.6378
X3.673Y-2.3378
X3.673Y-2.6378
X3.773Y-2.3378
X3.773Y-2.6378
X3.873Y-2.3378
X3.873Y-2.6378
X4.6795Y-1.9213
X4.8764Y-1.9213
T4
X2.6122Y-2.0
X2.6122Y-3.0
X2.7122Y-2.0
X2.7122Y-3.0
X2.8122Y-2.0
X2.8122Y-3.0
X2.9122Y-2.0
X2.9122Y-3.0
X3.0122Y-2.0
X3.0122Y-3.0
X3.1122Y-2.0
X3.1122Y-3.0
X3.2122Y-2.0
X3.2122Y-3.0
X3.3122Y-2.0
X3.3122Y-3.0
X3.4122Y-2.0
X3.4122Y-3.0
X3.5122Y-2.0
X3.5122Y-3.0
X3.6122Y-2.0
X3.6122Y-3.0
X3.7122Y-2.0
X3.7122Y-3.0
X3.8122Y-2.0
X3.8122Y-3.0
X3.9122Y-2.0
X3.9122Y-3.0
X4.0122Y-2.0
X4.0122Y-3.0
X4.1122Y-2.0
X4.1122Y-3.0
X4.2122Y-2.0
X4.2122Y-3.0
X4.3122Y-2.0
X4.3122Y-3.0
X4.4122Y-2.0
X4.4122Y-3.0
T5
X2.8998Y-3.312
X2.9002Y-1.688
X3.0998Y-3.312
X3.1002Y-1.688
X3.2998Y-3.312
X3.3002Y-1.688
X3.7Y-3.3
X3.7002Y-1.688
X3.9Y-3.3
X3.9002Y-1.688
X4.1Y-3.3
X4.1002Y-1.688
X4.7386Y-2.8906
X4.7386Y-3.0906
T6
X2.5142Y-1.5157
X2.5142Y-3.4843
X4.8764Y-1.5157
X4.8764Y-3.4843
T0
M30
