%TF.GenerationSoftware,KiCad,Pcbnew,(6.0.0)*%
%TF.CreationDate,2022-09-21T16:06:09+02:00*%
%TF.ProjectId,ESP32_Wled_hub,45535033-325f-4576-9c65-645f6875622e,rev?*%
%TF.SameCoordinates,Original*%
%TF.FileFunction,Legend,Bot*%
%TF.FilePolarity,Positive*%
%FSLAX46Y46*%
G04 Gerber Fmt 4.6, Leading zero omitted, Abs format (unit mm)*
G04 Created by KiCad (PCBNEW (6.0.0)) date 2022-09-21 16:06:09*
%MOMM*%
%LPD*%
G01*
G04 APERTURE LIST*
%ADD10C,0.250000*%
%ADD11C,0.150000*%
%ADD12C,0.300000*%
G04 APERTURE END LIST*
D10*
X65800285Y-71952380D02*
X65800285Y-71419047D01*
X64962190Y-71190476D02*
X64962190Y-71952380D01*
X66562190Y-71952380D01*
X66562190Y-71190476D01*
X65038380Y-70580952D02*
X64962190Y-70352380D01*
X64962190Y-69971428D01*
X65038380Y-69819047D01*
X65114571Y-69742857D01*
X65266952Y-69666666D01*
X65419333Y-69666666D01*
X65571714Y-69742857D01*
X65647904Y-69819047D01*
X65724095Y-69971428D01*
X65800285Y-70276190D01*
X65876476Y-70428571D01*
X65952666Y-70504761D01*
X66105047Y-70580952D01*
X66257428Y-70580952D01*
X66409809Y-70504761D01*
X66486000Y-70428571D01*
X66562190Y-70276190D01*
X66562190Y-69895238D01*
X66486000Y-69666666D01*
X64962190Y-68980952D02*
X66562190Y-68980952D01*
X66562190Y-68371428D01*
X66486000Y-68219047D01*
X66409809Y-68142857D01*
X66257428Y-68066666D01*
X66028857Y-68066666D01*
X65876476Y-68142857D01*
X65800285Y-68219047D01*
X65724095Y-68371428D01*
X65724095Y-68980952D01*
X66562190Y-67533333D02*
X66562190Y-66542857D01*
X65952666Y-67076190D01*
X65952666Y-66847619D01*
X65876476Y-66695238D01*
X65800285Y-66619047D01*
X65647904Y-66542857D01*
X65266952Y-66542857D01*
X65114571Y-66619047D01*
X65038380Y-66695238D01*
X64962190Y-66847619D01*
X64962190Y-67304761D01*
X65038380Y-67457142D01*
X65114571Y-67533333D01*
X66409809Y-65933333D02*
X66486000Y-65857142D01*
X66562190Y-65704761D01*
X66562190Y-65323809D01*
X66486000Y-65171428D01*
X66409809Y-65095238D01*
X66257428Y-65019047D01*
X66105047Y-65019047D01*
X65876476Y-65095238D01*
X64962190Y-66009523D01*
X64962190Y-65019047D01*
X65571714Y-64333333D02*
X65571714Y-63114285D01*
X64962190Y-62352380D02*
X66562190Y-62352380D01*
X66562190Y-61971428D01*
X66486000Y-61742857D01*
X66333619Y-61590476D01*
X66181238Y-61514285D01*
X65876476Y-61438095D01*
X65647904Y-61438095D01*
X65343142Y-61514285D01*
X65190761Y-61590476D01*
X65038380Y-61742857D01*
X64962190Y-61971428D01*
X64962190Y-62352380D01*
X65038380Y-60142857D02*
X64962190Y-60295238D01*
X64962190Y-60600000D01*
X65038380Y-60752380D01*
X65190761Y-60828571D01*
X65800285Y-60828571D01*
X65952666Y-60752380D01*
X66028857Y-60600000D01*
X66028857Y-60295238D01*
X65952666Y-60142857D01*
X65800285Y-60066666D01*
X65647904Y-60066666D01*
X65495523Y-60828571D01*
X66028857Y-59533333D02*
X64962190Y-59152380D01*
X66028857Y-58771428D01*
X64962190Y-58161904D02*
X66562190Y-58161904D01*
X64962190Y-57247619D02*
X65876476Y-57933333D01*
X66562190Y-57247619D02*
X65647904Y-58161904D01*
X64962190Y-56561904D02*
X66028857Y-56561904D01*
X66562190Y-56561904D02*
X66486000Y-56638095D01*
X66409809Y-56561904D01*
X66486000Y-56485714D01*
X66562190Y-56561904D01*
X66409809Y-56561904D01*
X66028857Y-56028571D02*
X66028857Y-55419047D01*
X66562190Y-55800000D02*
X65190761Y-55800000D01*
X65038380Y-55723809D01*
X64962190Y-55571428D01*
X64962190Y-55419047D01*
X65114571Y-53971428D02*
X65038380Y-54047619D01*
X64962190Y-54276190D01*
X64962190Y-54428571D01*
X65038380Y-54657142D01*
X65190761Y-54809523D01*
X65343142Y-54885714D01*
X65647904Y-54961904D01*
X65876476Y-54961904D01*
X66181238Y-54885714D01*
X66333619Y-54809523D01*
X66486000Y-54657142D01*
X66562190Y-54428571D01*
X66562190Y-54276190D01*
X66486000Y-54047619D01*
X66409809Y-53971428D01*
X63986190Y-76942857D02*
X62386190Y-76561904D01*
X63529047Y-76257142D01*
X62386190Y-75952380D01*
X63986190Y-75571428D01*
X62386190Y-74733333D02*
X62462380Y-74885714D01*
X62614761Y-74961904D01*
X63986190Y-74961904D01*
X62462380Y-73514285D02*
X62386190Y-73666666D01*
X62386190Y-73971428D01*
X62462380Y-74123809D01*
X62614761Y-74200000D01*
X63224285Y-74200000D01*
X63376666Y-74123809D01*
X63452857Y-73971428D01*
X63452857Y-73666666D01*
X63376666Y-73514285D01*
X63224285Y-73438095D01*
X63071904Y-73438095D01*
X62919523Y-74200000D01*
X62386190Y-72066666D02*
X63986190Y-72066666D01*
X62462380Y-72066666D02*
X62386190Y-72219047D01*
X62386190Y-72523809D01*
X62462380Y-72676190D01*
X62538571Y-72752380D01*
X62690952Y-72828571D01*
X63148095Y-72828571D01*
X63300476Y-72752380D01*
X63376666Y-72676190D01*
X63452857Y-72523809D01*
X63452857Y-72219047D01*
X63376666Y-72066666D01*
X62386190Y-69400000D02*
X63986190Y-69400000D01*
X62462380Y-69400000D02*
X62386190Y-69552380D01*
X62386190Y-69857142D01*
X62462380Y-70009523D01*
X62538571Y-70085714D01*
X62690952Y-70161904D01*
X63148095Y-70161904D01*
X63300476Y-70085714D01*
X63376666Y-70009523D01*
X63452857Y-69857142D01*
X63452857Y-69552380D01*
X63376666Y-69400000D01*
X62386190Y-68638095D02*
X63452857Y-68638095D01*
X63986190Y-68638095D02*
X63910000Y-68714285D01*
X63833809Y-68638095D01*
X63910000Y-68561904D01*
X63986190Y-68638095D01*
X63833809Y-68638095D01*
X62462380Y-67952380D02*
X62386190Y-67800000D01*
X62386190Y-67495238D01*
X62462380Y-67342857D01*
X62614761Y-67266666D01*
X62690952Y-67266666D01*
X62843333Y-67342857D01*
X62919523Y-67495238D01*
X62919523Y-67723809D01*
X62995714Y-67876190D01*
X63148095Y-67952380D01*
X63224285Y-67952380D01*
X63376666Y-67876190D01*
X63452857Y-67723809D01*
X63452857Y-67495238D01*
X63376666Y-67342857D01*
X63452857Y-66809523D02*
X63452857Y-66200000D01*
X63986190Y-66580952D02*
X62614761Y-66580952D01*
X62462380Y-66504761D01*
X62386190Y-66352380D01*
X62386190Y-66200000D01*
X62386190Y-65666666D02*
X63452857Y-65666666D01*
X63148095Y-65666666D02*
X63300476Y-65590476D01*
X63376666Y-65514285D01*
X63452857Y-65361904D01*
X63452857Y-65209523D01*
X62386190Y-64676190D02*
X63452857Y-64676190D01*
X63986190Y-64676190D02*
X63910000Y-64752380D01*
X63833809Y-64676190D01*
X63910000Y-64600000D01*
X63986190Y-64676190D01*
X63833809Y-64676190D01*
X62386190Y-63914285D02*
X63986190Y-63914285D01*
X63376666Y-63914285D02*
X63452857Y-63761904D01*
X63452857Y-63457142D01*
X63376666Y-63304761D01*
X63300476Y-63228571D01*
X63148095Y-63152380D01*
X62690952Y-63152380D01*
X62538571Y-63228571D01*
X62462380Y-63304761D01*
X62386190Y-63457142D01*
X62386190Y-63761904D01*
X62462380Y-63914285D01*
X63452857Y-61780952D02*
X62386190Y-61780952D01*
X63452857Y-62466666D02*
X62614761Y-62466666D01*
X62462380Y-62390476D01*
X62386190Y-62238095D01*
X62386190Y-62009523D01*
X62462380Y-61857142D01*
X62538571Y-61780952D01*
X63452857Y-61247619D02*
X63452857Y-60638095D01*
X63986190Y-61019047D02*
X62614761Y-61019047D01*
X62462380Y-60942857D01*
X62386190Y-60790476D01*
X62386190Y-60638095D01*
X62386190Y-60104761D02*
X63452857Y-60104761D01*
X63986190Y-60104761D02*
X63910000Y-60180952D01*
X63833809Y-60104761D01*
X63910000Y-60028571D01*
X63986190Y-60104761D01*
X63833809Y-60104761D01*
X62386190Y-59114285D02*
X62462380Y-59266666D01*
X62538571Y-59342857D01*
X62690952Y-59419047D01*
X63148095Y-59419047D01*
X63300476Y-59342857D01*
X63376666Y-59266666D01*
X63452857Y-59114285D01*
X63452857Y-58885714D01*
X63376666Y-58733333D01*
X63300476Y-58657142D01*
X63148095Y-58580952D01*
X62690952Y-58580952D01*
X62538571Y-58657142D01*
X62462380Y-58733333D01*
X62386190Y-58885714D01*
X62386190Y-59114285D01*
X63452857Y-57895238D02*
X62386190Y-57895238D01*
X63300476Y-57895238D02*
X63376666Y-57819047D01*
X63452857Y-57666666D01*
X63452857Y-57438095D01*
X63376666Y-57285714D01*
X63224285Y-57209523D01*
X62386190Y-57209523D01*
X62386190Y-55228571D02*
X63986190Y-55228571D01*
X63376666Y-55228571D02*
X63452857Y-55076190D01*
X63452857Y-54771428D01*
X63376666Y-54619047D01*
X63300476Y-54542857D01*
X63148095Y-54466666D01*
X62690952Y-54466666D01*
X62538571Y-54542857D01*
X62462380Y-54619047D01*
X62386190Y-54771428D01*
X62386190Y-55076190D01*
X62462380Y-55228571D01*
X62386190Y-53552380D02*
X62462380Y-53704761D01*
X62538571Y-53780952D01*
X62690952Y-53857142D01*
X63148095Y-53857142D01*
X63300476Y-53780952D01*
X63376666Y-53704761D01*
X63452857Y-53552380D01*
X63452857Y-53323809D01*
X63376666Y-53171428D01*
X63300476Y-53095238D01*
X63148095Y-53019047D01*
X62690952Y-53019047D01*
X62538571Y-53095238D01*
X62462380Y-53171428D01*
X62386190Y-53323809D01*
X62386190Y-53552380D01*
X62386190Y-51647619D02*
X63224285Y-51647619D01*
X63376666Y-51723809D01*
X63452857Y-51876190D01*
X63452857Y-52180952D01*
X63376666Y-52333333D01*
X62462380Y-51647619D02*
X62386190Y-51800000D01*
X62386190Y-52180952D01*
X62462380Y-52333333D01*
X62614761Y-52409523D01*
X62767142Y-52409523D01*
X62919523Y-52333333D01*
X62995714Y-52180952D01*
X62995714Y-51800000D01*
X63071904Y-51647619D01*
X62386190Y-50885714D02*
X63452857Y-50885714D01*
X63148095Y-50885714D02*
X63300476Y-50809523D01*
X63376666Y-50733333D01*
X63452857Y-50580952D01*
X63452857Y-50428571D01*
X62386190Y-49209523D02*
X63986190Y-49209523D01*
X62462380Y-49209523D02*
X62386190Y-49361904D01*
X62386190Y-49666666D01*
X62462380Y-49819047D01*
X62538571Y-49895238D01*
X62690952Y-49971428D01*
X63148095Y-49971428D01*
X63300476Y-49895238D01*
X63376666Y-49819047D01*
X63452857Y-49666666D01*
X63452857Y-49361904D01*
X63376666Y-49209523D01*
X60876857Y-65285714D02*
X59810190Y-64904761D01*
X60876857Y-64523809D01*
X59810190Y-63076190D02*
X59810190Y-63990476D01*
X59810190Y-63533333D02*
X61410190Y-63533333D01*
X61181619Y-63685714D01*
X61029238Y-63838095D01*
X60953047Y-63990476D01*
X59962571Y-62390476D02*
X59886380Y-62314285D01*
X59810190Y-62390476D01*
X59886380Y-62466666D01*
X59962571Y-62390476D01*
X59810190Y-62390476D01*
X61410190Y-61323809D02*
X61410190Y-61171428D01*
X61334000Y-61019047D01*
X61257809Y-60942857D01*
X61105428Y-60866666D01*
X60800666Y-60790476D01*
X60419714Y-60790476D01*
X60114952Y-60866666D01*
X59962571Y-60942857D01*
X59886380Y-61019047D01*
X59810190Y-61171428D01*
X59810190Y-61323809D01*
X59886380Y-61476190D01*
X59962571Y-61552380D01*
X60114952Y-61628571D01*
X60419714Y-61704761D01*
X60800666Y-61704761D01*
X61105428Y-61628571D01*
X61257809Y-61552380D01*
X61334000Y-61476190D01*
X61410190Y-61323809D01*
D11*
X119479047Y-91202380D02*
X119479047Y-91916666D01*
X119526666Y-92059523D01*
X119621904Y-92154761D01*
X119764761Y-92202380D01*
X119860000Y-92202380D01*
X118526666Y-92202380D02*
X119002857Y-92202380D01*
X119002857Y-91202380D01*
X117621904Y-92107142D02*
X117669523Y-92154761D01*
X117812380Y-92202380D01*
X117907619Y-92202380D01*
X118050476Y-92154761D01*
X118145714Y-92059523D01*
X118193333Y-91964285D01*
X118240952Y-91773809D01*
X118240952Y-91630952D01*
X118193333Y-91440476D01*
X118145714Y-91345238D01*
X118050476Y-91250000D01*
X117907619Y-91202380D01*
X117812380Y-91202380D01*
X117669523Y-91250000D01*
X117621904Y-91297619D01*
X116907619Y-91202380D02*
X116907619Y-91916666D01*
X116955238Y-92059523D01*
X117050476Y-92154761D01*
X117193333Y-92202380D01*
X117288571Y-92202380D01*
X115955238Y-92202380D02*
X116431428Y-92202380D01*
X116431428Y-91202380D01*
X115050476Y-92107142D02*
X115098095Y-92154761D01*
X115240952Y-92202380D01*
X115336190Y-92202380D01*
X115479047Y-92154761D01*
X115574285Y-92059523D01*
X115621904Y-91964285D01*
X115669523Y-91773809D01*
X115669523Y-91630952D01*
X115621904Y-91440476D01*
X115574285Y-91345238D01*
X115479047Y-91250000D01*
X115336190Y-91202380D01*
X115240952Y-91202380D01*
X115098095Y-91250000D01*
X115050476Y-91297619D01*
X114336190Y-91202380D02*
X114336190Y-91916666D01*
X114383809Y-92059523D01*
X114479047Y-92154761D01*
X114621904Y-92202380D01*
X114717142Y-92202380D01*
X113383809Y-92202380D02*
X113860000Y-92202380D01*
X113860000Y-91202380D01*
X112479047Y-92107142D02*
X112526666Y-92154761D01*
X112669523Y-92202380D01*
X112764761Y-92202380D01*
X112907619Y-92154761D01*
X113002857Y-92059523D01*
X113050476Y-91964285D01*
X113098095Y-91773809D01*
X113098095Y-91630952D01*
X113050476Y-91440476D01*
X113002857Y-91345238D01*
X112907619Y-91250000D01*
X112764761Y-91202380D01*
X112669523Y-91202380D01*
X112526666Y-91250000D01*
X112479047Y-91297619D01*
X111764761Y-91202380D02*
X111764761Y-91916666D01*
X111812380Y-92059523D01*
X111907619Y-92154761D01*
X112050476Y-92202380D01*
X112145714Y-92202380D01*
X110812380Y-92202380D02*
X111288571Y-92202380D01*
X111288571Y-91202380D01*
X109907619Y-92107142D02*
X109955238Y-92154761D01*
X110098095Y-92202380D01*
X110193333Y-92202380D01*
X110336190Y-92154761D01*
X110431428Y-92059523D01*
X110479047Y-91964285D01*
X110526666Y-91773809D01*
X110526666Y-91630952D01*
X110479047Y-91440476D01*
X110431428Y-91345238D01*
X110336190Y-91250000D01*
X110193333Y-91202380D01*
X110098095Y-91202380D01*
X109955238Y-91250000D01*
X109907619Y-91297619D01*
D12*
X95155238Y-40200000D02*
X94964761Y-40295238D01*
X94679047Y-40295238D01*
X94393333Y-40200000D01*
X94202857Y-40009523D01*
X94107619Y-39819047D01*
X94012380Y-39438095D01*
X94012380Y-39152380D01*
X94107619Y-38771428D01*
X94202857Y-38580952D01*
X94393333Y-38390476D01*
X94679047Y-38295238D01*
X94869523Y-38295238D01*
X95155238Y-38390476D01*
X95250476Y-38485714D01*
X95250476Y-39152380D01*
X94869523Y-39152380D01*
X96107619Y-38295238D02*
X96107619Y-40295238D01*
X96869523Y-40295238D01*
X97060000Y-40200000D01*
X97155238Y-40104761D01*
X97250476Y-39914285D01*
X97250476Y-39628571D01*
X97155238Y-39438095D01*
X97060000Y-39342857D01*
X96869523Y-39247619D01*
X96107619Y-39247619D01*
X98107619Y-38295238D02*
X98107619Y-40295238D01*
X99440952Y-40295238D02*
X99821904Y-40295238D01*
X100012380Y-40200000D01*
X100202857Y-40009523D01*
X100298095Y-39628571D01*
X100298095Y-38961904D01*
X100202857Y-38580952D01*
X100012380Y-38390476D01*
X99821904Y-38295238D01*
X99440952Y-38295238D01*
X99250476Y-38390476D01*
X99060000Y-38580952D01*
X98964761Y-38961904D01*
X98964761Y-39628571D01*
X99060000Y-40009523D01*
X99250476Y-40200000D01*
X99440952Y-40295238D01*
X102202857Y-38295238D02*
X101060000Y-38295238D01*
X101631428Y-38295238D02*
X101631428Y-40295238D01*
X101440952Y-40009523D01*
X101250476Y-39819047D01*
X101060000Y-39723809D01*
X103345714Y-39438095D02*
X103155238Y-39533333D01*
X103060000Y-39628571D01*
X102964761Y-39819047D01*
X102964761Y-39914285D01*
X103060000Y-40104761D01*
X103155238Y-40200000D01*
X103345714Y-40295238D01*
X103726666Y-40295238D01*
X103917142Y-40200000D01*
X104012380Y-40104761D01*
X104107619Y-39914285D01*
X104107619Y-39819047D01*
X104012380Y-39628571D01*
X103917142Y-39533333D01*
X103726666Y-39438095D01*
X103345714Y-39438095D01*
X103155238Y-39342857D01*
X103060000Y-39247619D01*
X102964761Y-39057142D01*
X102964761Y-38676190D01*
X103060000Y-38485714D01*
X103155238Y-38390476D01*
X103345714Y-38295238D01*
X103726666Y-38295238D01*
X103917142Y-38390476D01*
X104012380Y-38485714D01*
X104107619Y-38676190D01*
X104107619Y-39057142D01*
X104012380Y-39247619D01*
X103917142Y-39342857D01*
X103726666Y-39438095D01*
X82664761Y-86800000D02*
X82855238Y-86704761D01*
X83140952Y-86704761D01*
X83426666Y-86800000D01*
X83617142Y-86990476D01*
X83712380Y-87180952D01*
X83807619Y-87561904D01*
X83807619Y-87847619D01*
X83712380Y-88228571D01*
X83617142Y-88419047D01*
X83426666Y-88609523D01*
X83140952Y-88704761D01*
X82950476Y-88704761D01*
X82664761Y-88609523D01*
X82569523Y-88514285D01*
X82569523Y-87847619D01*
X82950476Y-87847619D01*
X81712380Y-88704761D02*
X81712380Y-86704761D01*
X80950476Y-86704761D01*
X80760000Y-86800000D01*
X80664761Y-86895238D01*
X80569523Y-87085714D01*
X80569523Y-87371428D01*
X80664761Y-87561904D01*
X80760000Y-87657142D01*
X80950476Y-87752380D01*
X81712380Y-87752380D01*
X79712380Y-88704761D02*
X79712380Y-86704761D01*
X78379047Y-86704761D02*
X77998095Y-86704761D01*
X77807619Y-86800000D01*
X77617142Y-86990476D01*
X77521904Y-87371428D01*
X77521904Y-88038095D01*
X77617142Y-88419047D01*
X77807619Y-88609523D01*
X77998095Y-88704761D01*
X78379047Y-88704761D01*
X78569523Y-88609523D01*
X78760000Y-88419047D01*
X78855238Y-88038095D01*
X78855238Y-87371428D01*
X78760000Y-86990476D01*
X78569523Y-86800000D01*
X78379047Y-86704761D01*
X76760000Y-86895238D02*
X76664761Y-86800000D01*
X76474285Y-86704761D01*
X75998095Y-86704761D01*
X75807619Y-86800000D01*
X75712380Y-86895238D01*
X75617142Y-87085714D01*
X75617142Y-87276190D01*
X75712380Y-87561904D01*
X76855238Y-88704761D01*
X75617142Y-88704761D01*
X73807619Y-86704761D02*
X74760000Y-86704761D01*
X74855238Y-87657142D01*
X74760000Y-87561904D01*
X74569523Y-87466666D01*
X74093333Y-87466666D01*
X73902857Y-87561904D01*
X73807619Y-87657142D01*
X73712380Y-87847619D01*
X73712380Y-88323809D01*
X73807619Y-88514285D01*
X73902857Y-88609523D01*
X74093333Y-88704761D01*
X74569523Y-88704761D01*
X74760000Y-88609523D01*
X74855238Y-88514285D01*
X74855238Y-40200000D02*
X74664761Y-40295238D01*
X74379047Y-40295238D01*
X74093333Y-40200000D01*
X73902857Y-40009523D01*
X73807619Y-39819047D01*
X73712380Y-39438095D01*
X73712380Y-39152380D01*
X73807619Y-38771428D01*
X73902857Y-38580952D01*
X74093333Y-38390476D01*
X74379047Y-38295238D01*
X74569523Y-38295238D01*
X74855238Y-38390476D01*
X74950476Y-38485714D01*
X74950476Y-39152380D01*
X74569523Y-39152380D01*
X75807619Y-38295238D02*
X75807619Y-40295238D01*
X76569523Y-40295238D01*
X76760000Y-40200000D01*
X76855238Y-40104761D01*
X76950476Y-39914285D01*
X76950476Y-39628571D01*
X76855238Y-39438095D01*
X76760000Y-39342857D01*
X76569523Y-39247619D01*
X75807619Y-39247619D01*
X77807619Y-38295238D02*
X77807619Y-40295238D01*
X79140952Y-40295238D02*
X79521904Y-40295238D01*
X79712380Y-40200000D01*
X79902857Y-40009523D01*
X79998095Y-39628571D01*
X79998095Y-38961904D01*
X79902857Y-38580952D01*
X79712380Y-38390476D01*
X79521904Y-38295238D01*
X79140952Y-38295238D01*
X78950476Y-38390476D01*
X78760000Y-38580952D01*
X78664761Y-38961904D01*
X78664761Y-39628571D01*
X78760000Y-40009523D01*
X78950476Y-40200000D01*
X79140952Y-40295238D01*
X81902857Y-38295238D02*
X80760000Y-38295238D01*
X81331428Y-38295238D02*
X81331428Y-40295238D01*
X81140952Y-40009523D01*
X80950476Y-39819047D01*
X80760000Y-39723809D01*
X82855238Y-38295238D02*
X83236190Y-38295238D01*
X83426666Y-38390476D01*
X83521904Y-38485714D01*
X83712380Y-38771428D01*
X83807619Y-39152380D01*
X83807619Y-39914285D01*
X83712380Y-40104761D01*
X83617142Y-40200000D01*
X83426666Y-40295238D01*
X83045714Y-40295238D01*
X82855238Y-40200000D01*
X82760000Y-40104761D01*
X82664761Y-39914285D01*
X82664761Y-39438095D01*
X82760000Y-39247619D01*
X82855238Y-39152380D01*
X83045714Y-39057142D01*
X83426666Y-39057142D01*
X83617142Y-39152380D01*
X83712380Y-39247619D01*
X83807619Y-39438095D01*
X102964761Y-86500000D02*
X103155238Y-86404761D01*
X103440952Y-86404761D01*
X103726666Y-86500000D01*
X103917142Y-86690476D01*
X104012380Y-86880952D01*
X104107619Y-87261904D01*
X104107619Y-87547619D01*
X104012380Y-87928571D01*
X103917142Y-88119047D01*
X103726666Y-88309523D01*
X103440952Y-88404761D01*
X103250476Y-88404761D01*
X102964761Y-88309523D01*
X102869523Y-88214285D01*
X102869523Y-87547619D01*
X103250476Y-87547619D01*
X102012380Y-88404761D02*
X102012380Y-86404761D01*
X101250476Y-86404761D01*
X101060000Y-86500000D01*
X100964761Y-86595238D01*
X100869523Y-86785714D01*
X100869523Y-87071428D01*
X100964761Y-87261904D01*
X101060000Y-87357142D01*
X101250476Y-87452380D01*
X102012380Y-87452380D01*
X100012380Y-88404761D02*
X100012380Y-86404761D01*
X98679047Y-86404761D02*
X98298095Y-86404761D01*
X98107619Y-86500000D01*
X97917142Y-86690476D01*
X97821904Y-87071428D01*
X97821904Y-87738095D01*
X97917142Y-88119047D01*
X98107619Y-88309523D01*
X98298095Y-88404761D01*
X98679047Y-88404761D01*
X98869523Y-88309523D01*
X99060000Y-88119047D01*
X99155238Y-87738095D01*
X99155238Y-87071428D01*
X99060000Y-86690476D01*
X98869523Y-86500000D01*
X98679047Y-86404761D01*
X97060000Y-86595238D02*
X96964761Y-86500000D01*
X96774285Y-86404761D01*
X96298095Y-86404761D01*
X96107619Y-86500000D01*
X96012380Y-86595238D01*
X95917142Y-86785714D01*
X95917142Y-86976190D01*
X96012380Y-87261904D01*
X97155238Y-88404761D01*
X95917142Y-88404761D01*
X94202857Y-86404761D02*
X94583809Y-86404761D01*
X94774285Y-86500000D01*
X94869523Y-86595238D01*
X95060000Y-86880952D01*
X95155238Y-87261904D01*
X95155238Y-88023809D01*
X95060000Y-88214285D01*
X94964761Y-88309523D01*
X94774285Y-88404761D01*
X94393333Y-88404761D01*
X94202857Y-88309523D01*
X94107619Y-88214285D01*
X94012380Y-88023809D01*
X94012380Y-87547619D01*
X94107619Y-87357142D01*
X94202857Y-87261904D01*
X94393333Y-87166666D01*
X94774285Y-87166666D01*
X94964761Y-87261904D01*
X95060000Y-87357142D01*
X95155238Y-87547619D01*
M02*
